<svg width="20" height="19" viewBox="0 0 20 19" fill="none" xmlns="http://www.w3.org/2000/svg">
<path d="M4.02308 14.7923C4.87308 14.1615 5.79903 13.6635 6.80095 13.2981C7.80287 12.9327 8.86921 12.75 9.99998 12.75C11.1307 12.75 12.1971 12.9327 13.199 13.2981C14.2009 13.6635 15.1269 14.1615 15.9769 14.7923C16.5987 14.109 17.0913 13.3179 17.4548 12.4192C17.8182 11.5205 18 10.5474 18 9.49998C18 7.28331 17.2208 5.39581 15.6625 3.83748C14.1041 2.27914 12.2166 1.49998 9.99998 1.49998C7.78331 1.49998 5.89581 2.27914 4.33748 3.83748C2.77914 5.39581 1.99998 7.28331 1.99998 9.49998C1.99998 10.5474 2.18171 11.5205 2.54518 12.4192C2.90864 13.3179 3.40128 14.109 4.02308 14.7923ZM9.99998 10.25C9.08716 10.25 8.31729 9.93649 7.69038 9.30958C7.06346 8.68266 6.75 7.91279 6.75 6.99998C6.75 6.08716 7.06346 5.31729 7.69038 4.69038C8.31729 4.06346 9.08716 3.75 9.99998 3.75C10.9128 3.75 11.6827 4.06346 12.3096 4.69038C12.9365 5.31729 13.25 6.08716 13.25 6.99998C13.25 7.91279 12.9365 8.68266 12.3096 9.30958C11.6827 9.93649 10.9128 10.25 9.99998 10.25ZM9.99998 19C8.68074 19 7.44325 18.7519 6.2875 18.2557C5.13173 17.7596 4.12628 17.0839 3.27115 16.2288C2.41603 15.3737 1.7404 14.3682 1.24425 13.2125C0.748083 12.0567 0.5 10.8192 0.5 9.49998C0.5 8.18074 0.748083 6.94325 1.24425 5.7875C1.7404 4.63173 2.41603 3.62628 3.27115 2.77115C4.12628 1.91603 5.13173 1.2404 6.2875 0.744251C7.44325 0.248084 8.68074 0 9.99998 0C11.3192 0 12.5567 0.248084 13.7125 0.744251C14.8682 1.2404 15.8737 1.91603 16.7288 2.77115C17.5839 3.62628 18.2596 4.63173 18.7557 5.7875C19.2519 6.94325 19.5 8.18074 19.5 9.49998C19.5 10.8192 19.2519 12.0567 18.7557 13.2125C18.2596 14.3682 17.5839 15.3737 16.7288 16.2288C15.8737 17.0839 14.8682 17.7596 13.7125 18.2557C12.5567 18.7519 11.3192 19 9.99998 19Z" fill="#C3C3C3"/>
</svg>
