<svg width="24" height="24" viewBox="0 0 24 24" fill="none" xmlns="http://www.w3.org/2000/svg">
<mask id="mask0_10_1108" style="mask-type:alpha" maskUnits="userSpaceOnUse" x="0" y="0" width="24" height="24">
<rect y="24" width="24" height="24" transform="rotate(-90 0 24)" fill="#D9D9D9"/>
</mask>
<g mask="url(#mask0_10_1108)">
<path d="M19.3047 12.701C19.1214 12.8843 18.888 12.9803 18.6047 12.989C18.3214 12.997 18.088 12.9093 17.9047 12.726L13.0047 7.82598L13.0047 19.001C13.0047 19.2843 12.9087 19.522 12.7167 19.714C12.5254 19.9053 12.288 20.001 12.0047 20.001C11.7214 20.001 11.4837 19.9053 11.2917 19.714C11.1004 19.522 11.0047 19.2843 11.0047 19.001L11.0047 7.82598L6.10469 12.726C5.92135 12.9093 5.68802 12.997 5.40469 12.989C5.12135 12.9803 4.88802 12.8843 4.70469 12.701C4.52135 12.5176 4.42969 12.2843 4.42969 12.001C4.42969 11.7176 4.52135 11.4843 4.70469 11.301L11.3047 4.70098C11.388 4.60098 11.492 4.52998 11.6167 4.48798C11.742 4.44664 11.8714 4.42598 12.0047 4.42598C12.138 4.42598 12.263 4.44664 12.3797 4.48798C12.4964 4.52998 12.6047 4.60098 12.7047 4.70098L19.3047 11.301C19.488 11.4843 19.5797 11.7176 19.5797 12.001C19.5797 12.2843 19.488 12.5176 19.3047 12.701Z" fill="#A799FF"/>
</g>
</svg>
