<svg width="32" height="32" viewBox="0 0 32 32" fill="none" xmlns="http://www.w3.org/2000/svg">
<g opacity="0.8" clip-path="url(#clip0_10_182)">
<path d="M16.0003 2.66675C23.3643 2.66675 29.3337 8.63608 29.3337 16.0001C29.3337 23.3641 23.3643 29.3334 16.0003 29.3334C8.63633 29.3334 2.66699 23.3641 2.66699 16.0001C2.66699 8.63608 8.63633 2.66675 16.0003 2.66675ZM11.9523 11.5334L11.8817 12.2001L11.8417 12.6441L11.7857 13.4441L11.7537 14.0574L11.7297 14.7307L11.7163 15.4627V16.2334L11.7297 16.9654L11.7537 17.6401L11.7857 18.2534L11.8417 19.0534L11.9363 20.0267L11.9537 20.1627C11.9831 20.4076 12.0692 20.6423 12.2051 20.8482C12.3409 21.0541 12.5229 21.2255 12.7364 21.3489C12.95 21.4723 13.1894 21.5443 13.4356 21.5592C13.6818 21.5741 13.9281 21.5315 14.155 21.4347L14.763 21.1654L15.631 20.7534L16.151 20.4921L16.7243 20.1934L17.3457 19.8561L18.0097 19.4801L18.667 19.0934L18.975 18.9067L19.5483 18.5467L20.0657 18.2134L20.5217 17.9081L21.3923 17.2947L21.6283 17.1201C21.8258 16.972 21.9861 16.7799 22.0965 16.559C22.2068 16.3382 22.2642 16.0946 22.2641 15.8477C22.264 15.6009 22.2063 15.3574 22.0957 15.1367C21.9852 14.9159 21.8247 14.724 21.627 14.5761L21.0857 14.1801L20.719 13.9227L20.2923 13.6321L19.539 13.1414L18.9683 12.7841L18.3417 12.4081L17.6763 12.0241L17.039 11.6707L16.443 11.3534L15.8963 11.0734L15.1763 10.7227L14.591 10.4534L14.2843 10.3174L14.1577 10.2641C13.9308 10.1666 13.6843 10.1233 13.4377 10.1377C13.1912 10.152 12.9514 10.2236 12.7373 10.3468C12.5233 10.47 12.3409 10.6414 12.2046 10.8474C12.0684 11.0533 11.982 11.2882 11.9523 11.5334Z" fill="white"/>
</g>
<defs>
<clipPath id="clip0_10_182">
<rect width="32" height="32" fill="white"/>
</clipPath>
</defs>
</svg>
