<svg width="24" height="30" viewBox="0 0 24 30" fill="none" xmlns="http://www.w3.org/2000/svg">
<path fill-rule="evenodd" clip-rule="evenodd" d="M1.33298 20.6667V4.66675C1.33298 3.60588 1.75441 2.58847 2.50455 1.83832C3.2547 1.08818 4.27211 0.666748 5.33298 0.666748H18.6663C19.7272 0.666748 20.7446 1.08818 21.4947 1.83832C22.2449 2.58847 22.6663 3.60588 22.6663 4.66675V20.6667C22.9785 20.6671 23.2806 20.7769 23.5201 20.9771C23.7596 21.1772 23.9212 21.4551 23.9769 21.7622C24.0326 22.0694 23.9788 22.3863 23.8248 22.6578C23.6708 22.9293 23.4265 23.1382 23.1343 23.2481L12.4676 27.2481C12.1659 27.3612 11.8334 27.3612 11.5316 27.2481L0.864981 23.2481C0.57282 23.1382 0.328467 22.9293 0.174493 22.6578C0.0205186 22.3863 -0.0333164 22.0694 0.0223668 21.7622C0.07805 21.4551 0.239722 21.1772 0.479216 20.9771C0.718709 20.7769 1.02084 20.6671 1.33298 20.6667ZM13.333 6.00008C13.333 5.64646 13.1925 5.30732 12.9425 5.05727C12.6924 4.80722 12.3533 4.66675 11.9996 4.66675C11.646 4.66675 11.3069 4.80722 11.0568 5.05727C10.8068 5.30732 10.6663 5.64646 10.6663 6.00008V7.33342H9.33298C8.44893 7.33342 7.60108 7.6846 6.97596 8.30973C6.35084 8.93485 5.99965 9.78269 5.99965 10.6667C5.99965 11.5508 6.35084 12.3987 6.97596 13.0238C7.60108 13.6489 8.44893 14.0001 9.33298 14.0001H14.6663C14.8431 14.0001 15.0127 14.0703 15.1377 14.1953C15.2627 14.3204 15.333 14.4899 15.333 14.6667C15.333 14.8436 15.2627 15.0131 15.1377 15.1382C15.0127 15.2632 14.8431 15.3334 14.6663 15.3334H7.99965C7.64603 15.3334 7.30689 15.4739 7.05684 15.7239C6.80679 15.974 6.66631 16.3131 6.66631 16.6667C6.66631 17.0204 6.80679 17.3595 7.05684 17.6096C7.30689 17.8596 7.64603 18.0001 7.99965 18.0001H10.6663V19.3334C10.6663 19.687 10.8068 20.0262 11.0568 20.2762C11.3069 20.5263 11.646 20.6667 11.9996 20.6667C12.3533 20.6667 12.6924 20.5263 12.9425 20.2762C13.1925 20.0262 13.333 19.687 13.333 19.3334V18.0001H14.6663C15.5504 18.0001 16.3982 17.6489 17.0233 17.0238C17.6485 16.3987 17.9996 15.5508 17.9996 14.6667C17.9996 13.7827 17.6485 12.9348 17.0233 12.3097C16.3982 11.6846 15.5504 11.3334 14.6663 11.3334H9.33298C9.15617 11.3334 8.9866 11.2632 8.86158 11.1382C8.73655 11.0131 8.66631 10.8436 8.66631 10.6667C8.66631 10.4899 8.73655 10.3204 8.86158 10.1953C8.9866 10.0703 9.15617 10.0001 9.33298 10.0001H15.9996C16.3533 10.0001 16.6924 9.85961 16.9425 9.60956C17.1925 9.35951 17.333 9.02037 17.333 8.66675C17.333 8.31313 17.1925 7.97399 16.9425 7.72394C16.6924 7.47389 16.3533 7.33342 15.9996 7.33342H13.333V6.00008Z" fill="white"/>
</svg>
