<svg width="32" height="32" viewBox="0 0 32 32" fill="none" xmlns="http://www.w3.org/2000/svg">
<g opacity="0.7" clip-path="url(#clip0_10_128)">
<path fill-rule="evenodd" clip-rule="evenodd" d="M2.66699 14.0001C2.66715 12.1929 3.09948 10.4119 3.92792 8.80577C4.75636 7.19963 5.95688 5.81488 7.42933 4.76708C8.90178 3.71927 10.6035 3.03877 12.3924 2.78237C14.1813 2.52597 16.0056 2.70109 17.7131 3.29313C19.4206 3.88517 20.9617 4.87696 22.208 6.18574C23.4542 7.49453 24.3694 9.08237 24.8771 10.8168C25.3849 12.5512 25.4705 14.3819 25.1269 16.1561C24.7832 17.9304 24.0203 19.5967 22.9017 21.0161L27.771 25.8854C28.0139 26.1369 28.1483 26.4737 28.1452 26.8233C28.1422 27.1729 28.002 27.5073 27.7548 27.7545C27.5075 28.0017 27.1731 28.142 26.8235 28.145C26.4739 28.148 26.1371 28.0136 25.8857 27.7708L21.0163 22.9014C19.3451 24.2188 17.3369 25.039 15.2213 25.2682C13.1057 25.4975 10.9684 25.1265 9.05378 24.1977C7.13921 23.269 5.5248 21.8199 4.3953 20.0165C3.2658 18.2131 2.66685 16.128 2.66699 14.0001ZM14.0003 8.00009C13.6467 8.00009 13.3076 8.14057 13.0575 8.39062C12.8075 8.64067 12.667 8.97981 12.667 9.33343C12.667 9.68705 12.8075 10.0262 13.0575 10.2762C13.3076 10.5263 13.6467 10.6668 14.0003 10.6668C14.8844 10.6668 15.7322 11.018 16.3573 11.6431C16.9825 12.2682 17.3337 13.116 17.3337 14.0001C17.3337 14.3537 17.4741 14.6929 17.7242 14.9429C17.9742 15.193 18.3134 15.3334 18.667 15.3334C19.0206 15.3334 19.3598 15.193 19.6098 14.9429C19.8598 14.6929 20.0003 14.3537 20.0003 14.0001C20.0003 12.4088 19.3682 10.8827 18.243 9.75745C17.1177 8.63224 15.5916 8.00009 14.0003 8.00009Z" fill="white"/>
</g>
<defs>
<clipPath id="clip0_10_128">
<rect width="32" height="32" fill="white"/>
</clipPath>
</defs>
</svg>
