<svg width="32" height="32" viewBox="0 0 32 32" fill="none" xmlns="http://www.w3.org/2000/svg">
<g opacity="0.7" clip-path="url(#clip0_10_146)">
<path d="M16.0003 2.66675C23.3643 2.66675 29.3337 8.63608 29.3337 16.0001C29.3337 23.3641 23.3643 29.3334 16.0003 29.3334C8.63633 29.3334 2.66699 23.3641 2.66699 16.0001C2.66699 8.63608 8.63633 2.66675 16.0003 2.66675ZM16.0003 21.3334C15.6467 21.3334 15.3076 21.4739 15.0575 21.7239C14.8075 21.974 14.667 22.3131 14.667 22.6667C14.667 23.0204 14.8075 23.3595 15.0575 23.6096C15.3076 23.8596 15.6467 24.0001 16.0003 24.0001C16.3539 24.0001 16.6931 23.8596 16.9431 23.6096C17.1932 23.3595 17.3337 23.0204 17.3337 22.6667C17.3337 22.3131 17.1932 21.974 16.9431 21.7239C16.6931 21.4739 16.3539 21.3334 16.0003 21.3334ZM16.0003 8.66675C14.7184 8.66675 13.4891 9.17597 12.5826 10.0824C11.6762 10.9888 11.167 12.2182 11.167 13.5001C11.167 13.8537 11.3075 14.1928 11.5575 14.4429C11.8076 14.6929 12.1467 14.8334 12.5003 14.8334C12.8539 14.8334 13.1931 14.6929 13.4431 14.4429C13.6932 14.1928 13.8337 13.8537 13.8337 13.5001C13.8341 13.1068 13.9416 12.721 14.1446 12.3842C14.3476 12.0473 14.6384 11.7721 14.9859 11.588C15.3335 11.4038 15.7245 11.3178 16.1172 11.339C16.51 11.3602 16.8895 11.4879 17.2151 11.7084C17.5408 11.929 17.8003 12.2339 17.9658 12.5907C18.1313 12.9475 18.1966 13.3426 18.1546 13.7336C18.1127 14.1246 17.9651 14.4969 17.7277 14.8104C17.4903 15.124 17.172 15.367 16.807 15.5134C15.9057 15.8734 14.667 16.7961 14.667 18.3334V18.6667C14.667 19.0204 14.8075 19.3595 15.0575 19.6096C15.3076 19.8596 15.6467 20.0001 16.0003 20.0001C16.3539 20.0001 16.6931 19.8596 16.9431 19.6096C17.1932 19.3595 17.3337 19.0204 17.3337 18.6667C17.3337 18.3414 17.4003 18.1787 17.6817 18.0401L17.7977 17.9867C18.8387 17.5679 19.7017 16.8 20.2386 15.8146C20.7756 14.8293 20.953 13.6878 20.7405 12.5859C20.528 11.4841 19.9388 10.4904 19.074 9.77537C18.2091 9.06032 17.1225 8.66838 16.0003 8.66675Z" fill="white"/>
</g>
<defs>
<clipPath id="clip0_10_146">
<rect width="32" height="32" fill="white"/>
</clipPath>
</defs>
</svg>
