<svg width="24" height="25" viewBox="0 0 24 25" fill="none" xmlns="http://www.w3.org/2000/svg">
<mask id="mask0_1_1517" style="mask-type:alpha" maskUnits="userSpaceOnUse" x="0" y="0" width="24" height="25">
<rect y="0.5" width="24" height="24" fill="#D9D9D9"/>
</mask>
<g mask="url(#mask0_1_1517)">
<path d="M4.70538 20.9904C4.32845 21.1276 3.99576 21.0519 3.70731 20.7635C3.41884 20.475 3.3432 20.1423 3.48038 19.7654L6.26303 12.0405C6.51047 11.3777 6.97405 10.9725 7.65378 10.8251C8.3335 10.6777 8.92247 10.8501 9.42071 11.3424L13.1284 15.0501C13.6207 15.5483 13.7931 16.1373 13.6457 16.817C13.4982 17.4967 13.0931 17.9603 12.4303 18.2077L4.70538 20.9904ZM5.44571 19.0251L11.9091 16.7385C12.0181 16.7001 12.0854 16.6263 12.1111 16.5174C12.1367 16.4084 12.1079 16.3122 12.0245 16.2289L8.24188 12.4712C8.15855 12.3879 8.06239 12.3591 7.95341 12.3847C7.84442 12.4103 7.7707 12.4777 7.73223 12.5866L5.44571 19.0251ZM13.688 12.7097C13.5636 12.5782 13.5015 12.4301 13.5015 12.2655C13.5015 12.1008 13.5636 11.9528 13.688 11.8213L18.6534 6.85586C19.1546 6.35458 19.7569 6.10811 20.4601 6.11644C21.1633 6.12477 21.7655 6.37958 22.2668 6.88086L22.3322 6.94626C22.4399 7.05395 22.4995 7.18951 22.511 7.35296C22.5226 7.51643 22.4662 7.66034 22.3418 7.78469C22.2188 7.90905 22.0747 7.96963 21.9096 7.96641C21.7445 7.96321 21.6004 7.90264 21.4774 7.78469L21.4095 7.71931C21.1298 7.44751 20.8165 7.31578 20.4697 7.32411C20.1229 7.33245 19.8158 7.47037 19.5482 7.73789L14.5514 12.7347C14.4271 12.8591 14.2832 12.9171 14.1197 12.9087C13.9563 12.9004 13.8123 12.8341 13.688 12.7097ZM10.0342 9.03089C9.90981 8.89939 9.84763 8.75131 9.84763 8.58666C9.84763 8.42201 9.90981 8.27394 10.0342 8.14244L10.1899 7.98666C10.4707 7.70588 10.6111 7.37895 10.6111 7.00586C10.6111 6.63278 10.4707 6.30585 10.1899 6.02509L9.97841 5.81354C9.87071 5.69934 9.81686 5.5598 9.81686 5.39491C9.81686 5.23005 9.87923 5.08177 10.004 4.95009C10.1318 4.82574 10.2756 4.76356 10.4354 4.76356C10.5952 4.76356 10.739 4.82574 10.8668 4.95009L11.0284 5.13664C11.5617 5.6533 11.8367 6.27221 11.8534 6.99336C11.87 7.71451 11.6117 8.34175 11.0784 8.87509L10.8976 9.05589C10.7733 9.18024 10.6293 9.23825 10.4659 9.22991C10.3024 9.22158 10.1585 9.15524 10.0342 9.03089ZM11.8361 10.8578C11.7117 10.7263 11.6495 10.5782 11.6495 10.4136C11.6495 10.2489 11.7117 10.1008 11.8361 9.96934L14.8566 6.94884C15.125 6.68045 15.2592 6.37286 15.2592 6.02606C15.2592 5.67926 15.1233 5.36996 14.8515 5.09816L13.8111 4.05779C13.7034 3.94359 13.6495 3.80405 13.6495 3.63916C13.6495 3.4743 13.7119 3.32602 13.8367 3.19434C13.9645 3.06999 14.1083 3.00781 14.2681 3.00781C14.4279 3.00781 14.5717 3.06999 14.6995 3.19434L15.7149 4.23471C16.2226 4.73895 16.4764 5.3444 16.4764 6.05106C16.4764 6.75773 16.2226 7.36318 15.7149 7.86741L12.6995 10.8828C12.5752 11.0071 12.4313 11.0651 12.2678 11.0568C12.1043 11.0485 11.9604 10.9821 11.8361 10.8578ZM15.5149 14.5116C15.3905 14.3802 15.3284 14.2322 15.3284 14.0677C15.3284 13.9031 15.3905 13.7552 15.5149 13.6237L16.3418 12.7963C16.8815 12.2565 17.5162 11.9825 18.2457 11.9741C18.9751 11.9658 19.6097 12.2315 20.1495 12.7713L21.0264 13.6482C21.1507 13.7725 21.2088 13.9164 21.2004 14.0799C21.1921 14.2433 21.1257 14.3872 21.0014 14.5116C20.87 14.636 20.722 14.6981 20.5575 14.6981C20.3929 14.6981 20.2449 14.636 20.1135 14.5116L19.2861 13.6847C19.0072 13.3975 18.6667 13.2539 18.2644 13.2539C17.8621 13.2539 17.5174 13.3975 17.2302 13.6847L16.3783 14.5366C16.254 14.661 16.1101 14.719 15.9466 14.7106C15.7832 14.7023 15.6393 14.636 15.5149 14.5116Z" fill="#C3C3C3"/>
</g>
</svg>
