<svg width="24" height="24" viewBox="0 0 24 24" fill="none" xmlns="http://www.w3.org/2000/svg">
<mask id="mask0_1211_6596" style="mask-type:alpha" maskUnits="userSpaceOnUse" x="0" y="0" width="24" height="24">
<rect width="24" height="24" fill="#D9D9D9"/>
</mask>
<g mask="url(#mask0_1211_6596)">
<path d="M12.0004 21.7496C11.2368 21.7496 10.5874 21.4824 10.0522 20.9479C9.51692 20.4134 9.2493 19.7643 9.2493 19.0008C9.2493 18.2372 9.51655 17.5878 10.051 17.0525C10.5855 16.5173 11.2346 16.2497 11.9981 16.2497C12.7617 16.2497 13.4111 16.5169 13.9464 17.0514C14.4816 17.5859 14.7492 18.235 14.7492 18.9985C14.7492 19.7621 14.482 20.4115 13.9475 20.9467C13.413 21.482 12.764 21.7496 12.0004 21.7496ZM11.2493 11.1266V3.35544C11.2493 3.14294 11.3212 2.96482 11.465 2.82107C11.6088 2.67734 11.787 2.60547 11.9996 2.60547C12.2122 2.60547 12.3903 2.67734 12.5339 2.82107C12.6775 2.96482 12.7492 3.14294 12.7492 3.35544V11.1362L15.0474 8.82852C15.1842 8.68365 15.3553 8.61122 15.5606 8.61122C15.7659 8.61122 15.9461 8.68296 16.1012 8.82645C16.2563 8.98296 16.3339 9.16185 16.3339 9.36312C16.3339 9.5644 16.2563 9.74261 16.1012 9.89774L12.6319 13.367C12.4512 13.5477 12.2403 13.6381 11.9993 13.6381C11.7583 13.6381 11.5474 13.5477 11.3666 13.367L7.87237 9.87275C7.73604 9.73588 7.66477 9.5648 7.65857 9.35952C7.65239 9.15424 7.72366 8.97724 7.87237 8.82852C8.01082 8.68365 8.18646 8.61283 8.39927 8.61604C8.61209 8.61924 8.78772 8.69007 8.92617 8.82852L11.2493 11.1266Z" fill="#38F08D"/>
</g>
</svg>
