<svg width="10" height="20" viewBox="0 0 10 20" fill="none" xmlns="http://www.w3.org/2000/svg">
<path d="M5.00188 19.7494C4.23831 19.7494 3.58891 19.4822 3.05366 18.9477C2.51841 18.4132 2.25078 17.7641 2.25078 17.0006C2.25078 16.237 2.51803 15.5876 3.05253 15.0523C3.58703 14.5171 4.23606 14.2495 4.99963 14.2495C5.7632 14.2495 6.41261 14.5167 6.94786 15.0512C7.48311 15.5857 7.75073 16.2348 7.75073 16.9983C7.75073 17.7619 7.48348 18.4113 6.94898 18.9466C6.41448 19.4818 5.76545 19.7494 5.00188 19.7494ZM4.25078 3.47827L1.91806 5.77637C1.77959 5.91484 1.60972 5.98503 1.40846 5.98695C1.20717 5.98886 1.03161 5.91547 0.881781 5.76677C0.744448 5.63044 0.675781 5.45694 0.675781 5.24627C0.675781 5.03559 0.745006 4.86101 0.883456 4.72255L4.36808 1.23795C4.54885 1.05718 4.75974 0.966797 5.00076 0.966797C5.24177 0.966797 5.45266 1.05718 5.63343 1.23795L9.11806 4.72255C9.26677 4.87126 9.34017 5.04691 9.33823 5.24947C9.33632 5.45202 9.25779 5.62766 9.10266 5.77637C8.95396 5.91484 8.77832 5.98503 8.57576 5.98695C8.37319 5.98886 8.19756 5.91547 8.04886 5.76677L5.75073 3.46865V11.2495C5.75073 11.462 5.67883 11.6401 5.53503 11.7838C5.39121 11.9276 5.21301 11.9994 5.00043 11.9994C4.78783 11.9994 4.60974 11.9276 4.46616 11.7838C4.32257 11.6401 4.25078 11.462 4.25078 11.2495V3.47827Z" fill="#E66840"/>
</svg>
