<svg width="18" height="18" viewBox="0 0 18 18" fill="none" xmlns="http://www.w3.org/2000/svg">
<path d="M8.98103 17.5C6.97078 17.5 5.19899 16.8865 3.66566 15.6596C2.13233 14.4326 1.14964 12.8628 0.717608 10.95C0.663758 10.7512 0.696125 10.5686 0.814708 10.4019C0.933292 10.2352 1.10122 10.1384 1.31851 10.1115C1.52301 10.0846 1.70635 10.125 1.86853 10.2327C2.0307 10.3404 2.14383 10.4987 2.20793 10.7077C2.58872 12.2525 3.40892 13.5208 4.66853 14.5125C5.92813 15.5041 7.36563 16 8.98103 16C10.931 16 12.5852 15.3208 13.9435 13.9625C15.3019 12.6041 15.981 10.95 15.981 8.99998C15.981 7.04998 15.3019 5.39581 13.9435 4.03748C12.5852 2.67914 10.931 1.99998 8.98103 1.99998C7.88873 1.99998 6.86502 2.2426 5.90988 2.72785C4.95477 3.2131 4.13233 3.88073 3.44258 4.73073H5.30798C5.52047 4.73073 5.69858 4.80263 5.84233 4.94645C5.98608 5.09025 6.05796 5.26845 6.05796 5.48105C6.05796 5.69363 5.98608 5.87172 5.84233 6.0153C5.69858 6.1589 5.52047 6.2307 5.30798 6.2307H1.88493C1.62885 6.2307 1.41419 6.14408 1.24096 5.97083C1.06773 5.79759 0.981108 5.58293 0.981108 5.32685V1.90383C0.981108 1.69133 1.05301 1.5132 1.19681 1.36945C1.34063 1.2257 1.51883 1.15383 1.73141 1.15383C1.94401 1.15383 2.1221 1.2257 2.26568 1.36945C2.40927 1.5132 2.48106 1.69133 2.48106 1.90383V3.52308C3.29259 2.56539 4.26438 1.82213 5.39643 1.29328C6.52848 0.764426 7.72335 0.5 8.98103 0.5C10.161 0.5 11.2662 0.723084 12.2968 1.16925C13.3273 1.6154 14.2259 2.2218 14.9925 2.98845C15.7592 3.75512 16.3656 4.65365 16.8118 5.68405C17.2579 6.71445 17.481 7.81958 17.481 8.99943C17.481 10.1793 17.2579 11.2846 16.8118 12.3154C16.3656 13.3461 15.7592 14.2448 14.9925 15.0115C14.2259 15.7782 13.3273 16.3846 12.2968 16.8307C11.2662 17.2769 10.161 17.5 8.98103 17.5ZM9.75986 8.69613L12.5099 11.4462C12.6483 11.5846 12.7192 11.7587 12.7224 11.9683C12.7256 12.1779 12.6548 12.3551 12.5099 12.5C12.365 12.6448 12.1894 12.7173 11.983 12.7173C11.7766 12.7173 11.6009 12.6448 11.4561 12.5L8.53103 9.57498C8.43745 9.48138 8.36887 9.37939 8.32528 9.26903C8.28168 9.15866 8.25988 9.04462 8.25988 8.9269V4.74995C8.25988 4.53747 8.33179 4.35935 8.47561 4.2156C8.61943 4.07185 8.79763 3.99998 9.01021 3.99998C9.22281 3.99998 9.4009 4.07185 9.54448 4.2156C9.68807 4.35935 9.75986 4.53747 9.75986 4.74995V8.69613Z" fill="#C3C3C3"/>
</svg>
