 <svg
      width="24"
      height="24"
      viewBox="0 0 24 24"
      fill="none"
      xmlns="http://www.w3.org/2000/svg"
 
    >
      <path
        fillRule="evenodd"
        clipRule="evenodd"
        d="M2 3C2 2.44772 2.44772 2 3 2H21C21.5523 2 22 2.44772 22 3V21C22 21.5523 21.5523 22 21 22H3C2.44772 22 2 21.5523 2 21V3ZM4 4V20H20V4H4Z"
        fill="#C3C3C3"
      />
      <path
        fillRule="evenodd"
        clipRule="evenodd"
        d="M7 8C7 7.44772 7.44772 7 8 7C8.55228 7 9 7.44772 9 8C9 8.55228 8.55228 9 8 9C7.44772 9 7 8.55228 7 8ZM7 11C7 10.4477 7.44772 10 8 10H8.01C8.56228 10 9.01 10.4477 9.01 11V17C9.01 17.5523 8.56228 18 8.01 18H8C7.44772 18 7 17.5523 7 17V11Z"
        fill="#C3C3C3"
      />
      <path
        fillRule="evenodd"
        clipRule="evenodd"
        d="M11 11C11 10.4477 11.4477 10 12 10H13C14.6569 10 16 11.3431 16 13V17C16 17.5523 15.5523 18 15 18H14C13.4477 18 13 17.5523 13 17V13.5C13 13.2239 13.2239 13 13.5 13C13.7761 13 14 13.2239 14 13.5V16H15V13C15 11.8954 14.1046 11 13 11H12V17H13V13.5C13 12.6716 13.6716 12 14.5 12C15.3284 12 16 12.6716 16 13.5V17C16 17.5523 15.5523 18 15 18H12C11.4477 18 11 17.5523 11 17V11Z"
        fill="#C3C3C3"
      />
    </svg>