<svg width="13" height="16" viewBox="0 0 13 16" fill="none" xmlns="http://www.w3.org/2000/svg">
<path d="M6.14291 14.1571C7.73157 12.7671 8.96875 11.4124 9.85445 10.093C10.7401 8.77351 11.183 7.61005 11.183 6.60256C11.183 5.1389 10.7073 3.92122 9.75589 2.94952C8.8045 1.97783 7.60017 1.49198 6.14291 1.49198C4.68564 1.49198 3.48132 1.97783 2.52993 2.94952C1.57854 3.92122 1.10284 5.1389 1.10284 6.60256C1.10284 7.61005 1.54568 8.77351 2.43136 10.093C3.31706 11.4124 4.55424 12.7671 6.14291 14.1571ZM6.14291 15.2003C5.99441 15.2003 5.85632 15.1757 5.72866 15.1266C5.60099 15.0774 5.47145 15.001 5.34003 14.8974C4.93941 14.5555 4.43755 14.0889 3.83445 13.4976C3.23135 12.9063 2.64401 12.2423 2.07243 11.5056C1.50084 10.769 1.0158 9.97971 0.617302 9.13783C0.218788 8.29594 0.0195312 7.45085 0.0195312 6.60256C0.0195312 4.90173 0.58951 3.44554 1.72947 2.234C2.86941 1.02246 4.34056 0.416687 6.14291 0.416687C7.93136 0.416687 9.39904 1.02246 10.5459 2.234C11.6928 3.44554 12.2663 4.90173 12.2663 6.60256C12.2663 7.45085 12.0636 8.29808 11.6581 9.14425C11.2527 9.9904 10.7689 10.7831 10.207 11.5225C9.64501 12.2618 9.06248 12.9223 8.45938 13.504C7.85629 14.0857 7.35442 14.5475 6.95378 14.8894C6.8243 14.993 6.69451 15.0708 6.56443 15.1226C6.43433 15.1744 6.29382 15.2003 6.14291 15.2003ZM6.14432 7.88781C6.51731 7.88781 6.83361 7.75754 7.09322 7.49698C7.35283 7.23642 7.48264 6.91965 7.48264 6.54667C7.48264 6.17368 7.35236 5.85738 7.0918 5.59777C6.83125 5.33816 6.51448 5.20835 6.14149 5.20835C5.7685 5.20835 5.45221 5.33863 5.19259 5.59919C4.93298 5.85974 4.80318 6.17651 4.80318 6.5495C4.80318 6.92249 4.93345 7.23878 5.19401 7.4984C5.45457 7.75801 5.77134 7.88781 6.14432 7.88781Z" fill="#C3C3C3"/>
</svg>
