<svg width="26" height="36" viewBox="0 0 26 36" fill="none" xmlns="http://www.w3.org/2000/svg">
<path d="M2.80578 29.1517L2.56651 28.9111C1.68668 28.0484 1.67444 26.6426 2.52013 25.7546L4.22031 24.0038L4.69006 24.4599L2.98988 26.2108C2.38421 26.8174 2.39905 27.8275 3.01387 28.4162L3.25314 28.6569C3.85979 29.2625 4.86986 29.2477 5.45858 28.6329L9.01663 24.9772C9.87928 24.0974 11.2851 24.0852 12.1731 24.9309C13.0529 25.7935 13.0652 27.1993 12.2195 28.0873L7.32567 33.0844L6.88166 32.6615L11.7755 27.6645C12.3811 27.0578 12.3663 26.0478 11.7515 25.459C11.1448 24.8534 10.1348 24.8682 9.54605 25.483L5.98799 29.1387C5.09959 29.9852 3.69379 29.9974 2.80578 29.1517Z" fill="#A65F9D"/>
<path d="M21.0686 12.3146L20.1544 13.1278L7.98474 23.7295L4.87547 20.6854L15.175 8.2843L15.9692 7.32969L21.0686 12.3146Z" fill="#FF99F1"/>
<path d="M21.2199 12.1772L7.98656 23.729L6.42345 22.2028L18.6577 9.68914L21.2199 12.1772Z" fill="#C674BB"/>
<path d="M21.2197 12.1775L20.2886 12.9826C20.1618 12.9424 20.0343 12.86 19.9401 12.752L15.5415 8.4808C15.4391 8.38969 15.3701 8.27284 15.3092 8.13903L16.1034 7.18443L21.2197 12.1775Z" fill="black"/>
<path d="M21.2952 12.6731C21.9737 12.4358 22.6245 12.0389 23.1466 11.4756C24.7293 9.75169 24.7067 7.06635 23.099 5.37249C21.3375 3.52093 18.433 3.52151 16.6662 5.32389C16.1604 5.8533 15.7991 6.4732 15.5897 7.12455C15.4772 7.48822 15.5758 7.89088 15.8659 8.15603L20.2563 12.4442C20.5295 12.7011 20.9352 12.813 21.2952 12.6731Z" fill="#FF99F1"/>
<path d="M7.45846 23.8718L4.74233 21.2261C4.61421 21.1017 4.61991 20.9164 4.74431 20.7882L4.86055 20.6771L8.01251 23.7627L7.89628 23.8738C7.78005 23.985 7.58657 23.9962 7.45846 23.8718Z" fill="#FF99F1"/>
<path d="M7.58485 23.9966L7.37752 24.2101C7.36056 24.2019 7.3436 24.1938 7.32664 24.1856L4.42273 21.3658C4.40577 21.3576 4.39698 21.3325 4.39698 21.3325L4.60432 21.119L7.58485 23.9966Z" fill="#C674BB"/>
<path d="M7.3786 24.21L7.17943 24.4066C6.38338 25.2349 5.06175 25.2459 4.24157 24.4329C3.41323 23.6369 3.40223 22.3152 4.21524 21.4951L4.41441 21.2985C4.43137 21.3067 4.4232 21.3236 4.44016 21.3318L7.34407 24.1516C7.34469 24.1937 7.36164 24.2019 7.3786 24.21Z" fill="#FF99F1"/>
<mask id="mask0_1_14247" style="mask-type:luminance" maskUnits="userSpaceOnUse" x="15" y="3" width="10" height="10">
<path d="M21.2952 12.6731C21.9737 12.4358 22.6245 12.0389 23.1466 11.4756C24.7293 9.75169 24.7067 7.06635 23.099 5.37249C21.3375 3.52093 18.433 3.52151 16.6662 5.32389C16.1604 5.8533 15.7991 6.4732 15.5897 7.12455C15.4772 7.48822 15.5758 7.89088 15.8659 8.15603L20.2563 12.4442C20.5295 12.7011 20.9352 12.813 21.2952 12.6731Z" fill="white"/>
</mask>
<g mask="url(#mask0_1_14247)">
<path d="M18.6034 -1.39351L18.5508 -1.41406L14.0291 10.1576L14.0817 10.1782L18.6034 -1.39351Z" fill="black"/>
<path d="M18.8417 -1.15425L18.7891 -1.1748L14.2673 10.3969L14.3199 10.4175L18.8417 -1.15425Z" fill="black"/>
<path d="M19.076 -0.937455L19.0234 -0.958008L14.5017 10.6137L14.5543 10.6342L19.076 -0.937455Z" fill="black"/>
<path d="M19.3143 -0.698197L19.2617 -0.71875L14.74 10.853L14.7926 10.8735L19.3143 -0.698197Z" fill="black"/>
<path d="M19.5409 -0.4814L19.4883 -0.501953L14.9666 11.0698L15.0192 11.0903L19.5409 -0.4814Z" fill="black"/>
<path d="M19.7674 -0.248001L19.7148 -0.268555L15.1931 11.3031L15.2457 11.3237L19.7674 -0.248001Z" fill="black"/>
<path d="M20.0135 -0.0263218L19.9609 -0.046875L15.4392 11.5248L15.4918 11.5454L20.0135 -0.0263218Z" fill="black"/>
<path d="M20.2362 0.207077L20.1836 0.186523L15.6619 11.7582L15.7145 11.7788L20.2362 0.207077Z" fill="black"/>
<path d="M20.4823 0.429733L20.4297 0.40918L15.908 11.9809L15.9606 12.0014L20.4823 0.429733Z" fill="black"/>
<path d="M20.7049 0.663132L20.6523 0.642578L16.1306 12.2143L16.1832 12.2348L20.7049 0.663132Z" fill="black"/>
<path d="M20.9354 0.878952L20.8828 0.858398L16.3611 12.4301L16.4137 12.4507L20.9354 0.878952Z" fill="black"/>
<path d="M21.1737 1.11919L21.1211 1.09863L16.5994 12.6703L16.652 12.6909L21.1737 1.11919Z" fill="black"/>
<path d="M21.4042 1.33501L21.3516 1.31445L16.8298 12.8862L16.8824 12.9067L21.4042 1.33501Z" fill="black"/>
<path d="M21.6424 1.57524L21.5898 1.55469L17.0681 13.1264L17.1207 13.1469L21.6424 1.57524Z" fill="black"/>
<path d="M21.8729 1.79106L21.8203 1.77051L17.2986 13.3422L17.3512 13.3628L21.8729 1.79106Z" fill="black"/>
<path d="M22.1151 2.03032L22.0625 2.00977L17.5408 13.5815L17.5934 13.602L22.1151 2.03032Z" fill="black"/>
<path d="M22.3456 2.24712L22.293 2.22656L17.7713 13.7983L17.8239 13.8188L22.3456 2.24712Z" fill="black"/>
<path d="M22.5682 2.48051L22.5156 2.45996L17.9939 14.0317L18.0465 14.0522L22.5682 2.48051Z" fill="black"/>
<path d="M22.8065 2.72075L22.7539 2.7002L18.2322 14.2719L18.2848 14.2925L22.8065 2.72075Z" fill="black"/>
<path d="M23.037 2.93559L22.9844 2.91504L18.4627 14.4867L18.5152 14.5073L23.037 2.93559Z" fill="black"/>
<path d="M23.2753 3.17583L23.2227 3.15527L18.7009 14.727L18.7535 14.7475L23.2753 3.17583Z" fill="black"/>
<path d="M23.5057 3.39165L23.4531 3.37109L18.9314 14.9428L18.984 14.9634L23.5057 3.39165Z" fill="black"/>
<path d="M23.7284 3.62505L23.6758 3.60449L19.1541 15.1762L19.2067 15.1967L23.7284 3.62505Z" fill="black"/>
<path d="M23.9745 3.8477L23.9219 3.82715L19.4002 15.3989L19.4528 15.4194L23.9745 3.8477Z" fill="black"/>
<path d="M24.1971 4.0811L24.1445 4.06055L19.6229 15.6323L19.6755 15.6528L24.1971 4.0811Z" fill="black"/>
<path d="M24.4471 4.30376L24.3945 4.2832L19.8729 15.8549L19.9255 15.8755L24.4471 4.30376Z" fill="black"/>
<path d="M24.6698 4.53618L24.6172 4.51562L20.0955 16.0873L20.1481 16.1079L24.6698 4.53618Z" fill="black"/>
<path d="M24.9159 4.75981L24.8633 4.73926L20.3416 16.311L20.3942 16.3315L24.9159 4.75981Z" fill="black"/>
<path d="M25.1385 4.99223L25.0859 4.97168L20.5643 16.5434L20.6169 16.564L25.1385 4.99223Z" fill="black"/>
<path d="M25.369 5.20903L25.3164 5.18848L20.7947 16.7602L20.8473 16.7808L25.369 5.20903Z" fill="black"/>
<path d="M25.6112 5.44829L25.5586 5.42773L21.0369 16.9994L21.0895 17.02L25.6112 5.44829Z" fill="black"/>
<path d="M25.8378 5.66508L25.7852 5.64453L21.2634 17.2162L21.316 17.2368L25.8378 5.66508Z" fill="black"/>
<path d="M26.0799 5.90532L26.0273 5.88477L21.5056 17.4565L21.5582 17.477L26.0799 5.90532Z" fill="black"/>
<path d="M26.3065 6.12016L26.2539 6.09961L21.7322 17.6713L21.7848 17.6919L26.3065 6.12016Z" fill="black"/>
<path d="M29.7253 6.53145L18.1523 2.01514L18.1318 2.06774L29.7047 6.58405L29.7253 6.53145Z" fill="black"/>
<path d="M29.4901 6.75612L17.918 2.23535L17.8974 2.28795L29.4696 6.80872L29.4901 6.75612Z" fill="black"/>
<path d="M29.2675 7.00319L17.6953 2.48242L17.6748 2.53502L29.2469 7.05579L29.2675 7.00319Z" fill="black"/>
<path d="M29.037 7.22585L17.4648 2.70508L17.4443 2.75768L29.0165 7.27845L29.037 7.22585Z" fill="black"/>
<path d="M28.8151 7.4709L17.2422 2.95459L17.2217 3.00719L28.7946 7.5235L28.8151 7.4709Z" fill="black"/>
<path d="M28.58 7.69557L17.0078 3.1748L16.9873 3.22741L28.5594 7.74817L28.58 7.69557Z" fill="black"/>
<path d="M28.3659 7.92305L16.793 3.40674L16.7724 3.45934L28.3454 7.97565L28.3659 7.92305Z" fill="black"/>
<path d="M28.1237 8.16328L16.5508 3.64697L16.5303 3.69958L28.1032 8.21589L28.1237 8.16328Z" fill="black"/>
<path d="M27.9083 8.39529L16.3359 3.875L16.3154 3.9276L27.8878 8.44789L27.9083 8.39529Z" fill="black"/>
<path d="M27.6708 8.63204L16.0977 4.11621L16.0771 4.16882L27.6503 8.68465L27.6708 8.63204Z" fill="black"/>
<path d="M27.4518 8.8625L15.8789 4.34619L15.8584 4.3988L27.4313 8.9151L27.4518 8.8625Z" fill="black"/>
<path d="M27.2167 9.08718L15.6445 4.56641L15.624 4.61901L27.1961 9.13978L27.2167 9.08718Z" fill="black"/>
<path d="M26.9784 9.32741L15.4062 4.80664L15.3857 4.85924L26.9579 9.38001L26.9784 9.32741Z" fill="black"/>
<path d="M26.7641 9.55585L15.1914 5.03906L15.1709 5.09167L26.7436 9.60845L26.7641 9.55585Z" fill="black"/>
<path d="M26.5251 9.79957L14.9531 5.27832L14.9326 5.33092L26.5045 9.85217L26.5251 9.79957Z" fill="black"/>
<path d="M26.3065 10.0266L14.7344 5.50586L14.7138 5.55846L26.286 10.0792L26.3065 10.0266Z" fill="black"/>
<path d="M26.069 10.2648L14.4961 5.74854L14.4756 5.80114L26.0485 10.3174L26.069 10.2648Z" fill="black"/>
<path d="M25.8495 10.4964L14.2773 5.97559L14.2568 6.02819L25.829 10.549L25.8495 10.4964Z" fill="black"/>
<path d="M25.6198 10.717L14.0469 6.20068L14.0263 6.25329L25.5993 10.7696L25.6198 10.717Z" fill="black"/>
<path d="M25.3972 10.9641L13.8242 6.44775L13.8037 6.50036L25.3766 11.0167L25.3972 10.9641Z" fill="black"/>
<path d="M25.162 11.1887L13.5898 6.66797L13.5693 6.72057L25.1415 11.2413L25.162 11.1887Z" fill="black"/>
<path d="M24.9395 11.4375L13.3672 6.91699L13.3466 6.96959L24.9189 11.4901L24.9395 11.4375Z" fill="black"/>
<path d="M24.7097 11.6564L13.1367 7.14014L13.1162 7.19274L24.6891 11.7091L24.7097 11.6564Z" fill="black"/>
<path d="M24.4909 11.8859L12.918 7.36963L12.8974 7.42223L24.4704 11.9385L24.4909 11.8859Z" fill="black"/>
<path d="M24.2479 12.1292L12.6758 7.6084L12.6552 7.661L24.2274 12.1818L24.2479 12.1292Z" fill="black"/>
<path d="M24.0378 12.3557L12.4648 7.83936L12.4443 7.89196L24.0172 12.4083L24.0378 12.3557Z" fill="black"/>
<path d="M23.795 12.5994L12.2227 8.0791L12.2021 8.1317L23.7745 12.652L23.795 12.5994Z" fill="black"/>
<path d="M23.581 12.8254L12.0078 8.30957L11.9873 8.36218L23.5604 12.878L23.581 12.8254Z" fill="black"/>
<path d="M23.3387 13.0658L11.7656 8.5498L11.7451 8.60241L23.3182 13.1184L23.3387 13.0658Z" fill="black"/>
<path d="M23.1237 13.2961L11.5508 8.77979L11.5303 8.83239L23.1032 13.3487L23.1237 13.2961Z" fill="black"/>
<path d="M22.8886 13.5208L11.3164 9L11.2959 9.0526L22.868 13.5734L22.8886 13.5208Z" fill="black"/>
<path d="M22.6665 13.7668L11.0938 9.25L11.0732 9.3026L22.6459 13.8194L22.6665 13.7668Z" fill="black"/>
<path d="M22.4364 13.9887L10.8633 9.47266L10.8428 9.52526L22.4158 14.0413L22.4364 13.9887Z" fill="black"/>
<path d="M22.2089 14.2376L10.6367 9.7168L10.6162 9.7694L22.1883 14.2902L22.2089 14.2376Z" fill="black"/>
</g>
<path opacity="0.5" d="M23.1459 11.476C22.6156 12.0562 21.9817 12.4613 21.2945 12.6734C20.9257 12.7883 20.5287 12.7015 20.2468 12.4194L17.9238 10.172C18.1888 10.4459 18.6027 10.5409 18.9715 10.426C19.6499 10.1887 20.3008 9.79186 20.8229 9.22853C22.0575 7.88018 22.3237 5.93989 21.6017 4.3593C22.1525 4.60378 22.6625 4.93305 23.1071 5.39798C24.7229 7.07488 24.7456 9.76023 23.1459 11.476Z" fill="#784771"/>
</svg>
