<svg width="21" height="20" viewBox="0 0 21 20" fill="none" xmlns="http://www.w3.org/2000/svg">
<mask id="mask0_1_4027" style="mask-type:alpha" maskUnits="userSpaceOnUse" x="0" y="0" width="21" height="20">
<rect x="0.142578" width="20" height="20" fill="#D9D9D9"/>
</mask>
<g mask="url(#mask0_1_4027)">
<path d="M12.5448 13.125H15.0125C15.188 13.125 15.3427 13.0611 15.4763 12.9333C15.61 12.8055 15.6768 12.6472 15.6768 12.4583V7.53613C15.6768 7.36272 15.61 7.20918 15.4763 7.0755C15.3427 6.94183 15.188 6.875 15.0125 6.875H12.5448C12.3692 6.875 12.2146 6.94183 12.0809 7.0755C11.9472 7.20918 11.8804 7.36272 11.8804 7.53613V12.4583C11.8804 12.6472 11.9472 12.8055 12.0809 12.9333C12.2146 13.0611 12.3692 13.125 12.5448 13.125ZM13.2137 11.7917V8.20829H14.3435V11.7917H13.2137ZM7.7009 13.125H10.1484C10.322 13.125 10.4757 13.0611 10.6093 12.9333C10.743 12.8055 10.8099 12.6472 10.8099 12.4583V7.53613C10.8099 7.36272 10.743 7.20918 10.6093 7.0755C10.4757 6.94183 10.322 6.875 10.1484 6.875H7.7009C7.51202 6.875 7.35369 6.94183 7.22592 7.0755C7.09814 7.20918 7.03425 7.36272 7.03425 7.53613V12.4583C7.03425 12.6472 7.09814 12.8055 7.22592 12.9333C7.35369 13.0611 7.51202 13.125 7.7009 13.125ZM8.36756 11.7917V8.20829H9.47656V11.7917H8.36756ZM5.29733 13.125C5.4745 13.125 5.62985 13.0581 5.7634 12.9244C5.89694 12.7908 5.96371 12.6371 5.96371 12.4635V7.53648C5.96371 7.36284 5.89685 7.20918 5.76313 7.0755C5.62939 6.94183 5.47394 6.875 5.29679 6.875C5.11963 6.875 4.96427 6.94183 4.83073 7.0755C4.69719 7.20918 4.63042 7.36284 4.63042 7.53648V12.4635C4.63042 12.6371 4.69728 12.7908 4.831 12.9244C4.96474 13.0581 5.12018 13.125 5.29733 13.125ZM3.81631 16.25C3.37913 16.25 3.00488 16.0943 2.69356 15.783C2.38223 15.4716 2.22656 15.0974 2.22656 14.6602V5.33975C2.22656 4.90257 2.38223 4.52832 2.69356 4.217C3.00488 3.90567 3.37913 3.75 3.81631 3.75H16.4701C16.9073 3.75 17.2815 3.90567 17.5929 4.217C17.9042 4.52832 18.0599 4.90257 18.0599 5.33975V14.6602C18.0599 15.0974 17.9042 15.4716 17.5929 15.783C17.2815 16.0943 16.9073 16.25 16.4701 16.25H3.81631ZM3.81631 14.9166H16.4701C16.5449 14.9166 16.6063 14.8926 16.6544 14.8445C16.7025 14.7964 16.7265 14.735 16.7265 14.6602V5.33975C16.7265 5.26496 16.7025 5.20352 16.6544 5.15544C16.6063 5.10735 16.5449 5.08331 16.4701 5.08331H3.81631C3.74152 5.08331 3.68008 5.10735 3.632 5.15544C3.58392 5.20352 3.55988 5.26496 3.55988 5.33975V14.6602C3.55988 14.735 3.58392 14.7964 3.632 14.8445C3.68008 14.8926 3.74152 14.9166 3.81631 14.9166Z" fill="#A799FF"/>
</g>
</svg>
