<svg width="33" height="32" viewBox="0 0 33 32" fill="none" xmlns="http://www.w3.org/2000/svg">
<path d="M16.4179 29.998C25.7519 29.998 30.4169 23.73 30.4169 15.998C30.4169 8.268 25.7519 2 16.4169 2C7.08395 2 2.41895 8.268 2.41895 15.999C2.41895 23.73 7.08294 29.998 16.4179 29.998Z" fill="url(#paint0_radial_10_228)"/>
<path d="M16.4179 29.998C25.7519 29.998 30.4169 23.73 30.4169 15.998C30.4169 8.268 25.7519 2 16.4169 2C7.08395 2 2.41895 8.268 2.41895 15.999C2.41895 23.73 7.08294 29.998 16.4179 29.998Z" fill="url(#paint1_radial_10_228)"/>
<path d="M16.4179 29.998C25.7519 29.998 30.4169 23.73 30.4169 15.998C30.4169 8.268 25.7519 2 16.4169 2C7.08395 2 2.41895 8.268 2.41895 15.999C2.41895 23.73 7.08294 29.998 16.4179 29.998Z" fill="url(#paint2_radial_10_228)"/>
<path d="M16.4179 29.998C25.7519 29.998 30.4169 23.73 30.4169 15.998C30.4169 8.268 25.7519 2 16.4169 2C7.08395 2 2.41895 8.268 2.41895 15.999C2.41895 23.73 7.08294 29.998 16.4179 29.998Z" fill="url(#paint3_radial_10_228)" fill-opacity="0.6"/>
<path d="M16.4179 29.998C25.7519 29.998 30.4169 23.73 30.4169 15.998C30.4169 8.268 25.7519 2 16.4169 2C7.08395 2 2.41895 8.268 2.41895 15.999C2.41895 23.73 7.08294 29.998 16.4179 29.998Z" fill="url(#paint4_radial_10_228)"/>
<path d="M16.4179 29.998C25.7519 29.998 30.4169 23.73 30.4169 15.998C30.4169 8.268 25.7519 2 16.4169 2C7.08395 2 2.41895 8.268 2.41895 15.999C2.41895 23.73 7.08294 29.998 16.4179 29.998Z" fill="url(#paint5_radial_10_228)"/>
<path d="M16.4179 29.998C25.7519 29.998 30.4169 23.73 30.4169 15.998C30.4169 8.268 25.7519 2 16.4169 2C7.08395 2 2.41895 8.268 2.41895 15.999C2.41895 23.73 7.08294 29.998 16.4179 29.998Z" fill="url(#paint6_radial_10_228)"/>
<path d="M16.4179 29.998C25.7519 29.998 30.4169 23.73 30.4169 15.998C30.4169 8.268 25.7519 2 16.4169 2C7.08395 2 2.41895 8.268 2.41895 15.999C2.41895 23.73 7.08294 29.998 16.4179 29.998Z" fill="url(#paint7_radial_10_228)"/>
<path fill-rule="evenodd" clip-rule="evenodd" d="M11.1689 6C11.3679 6 11.5586 6.07902 11.6993 6.21967C11.8399 6.36032 11.9189 6.55109 11.9189 6.75V7.55C12.4836 7.66527 12.9911 7.97209 13.3556 8.41855C13.7201 8.86501 13.9191 9.42367 13.9189 10V10.25C13.9189 10.4489 13.8399 10.6397 13.6993 10.7803C13.5586 10.921 13.3679 11 13.1689 11C12.97 11 12.7793 10.921 12.6386 10.7803C12.498 10.6397 12.4189 10.4489 12.4189 10.25V10C12.4189 9.73478 12.3136 9.48043 12.1261 9.29289C11.9385 9.10536 11.6842 9 11.4189 9H10.9189C10.6537 9 10.3994 9.10536 10.2118 9.29289C10.0243 9.48043 9.91895 9.73478 9.91895 10V10.205C9.91901 10.4487 10.0081 10.684 10.1694 10.8666C10.3307 11.0493 10.5531 11.1668 10.7949 11.197L11.7289 11.314C12.3335 11.3895 12.8896 11.6832 13.2929 12.1399C13.6961 12.5966 13.9188 13.1848 13.9189 13.794V14C13.9191 14.5763 13.7201 15.135 13.3556 15.5815C12.9911 16.0279 12.4836 16.3347 11.9189 16.45V17.25C11.9189 17.4489 11.8399 17.6397 11.6993 17.7803C11.5586 17.921 11.3679 18 11.1689 18C10.97 18 10.7793 17.921 10.6386 17.7803C10.498 17.6397 10.4189 17.4489 10.4189 17.25V16.45C9.85426 16.3347 9.34675 16.0279 8.98229 15.5815C8.61784 15.135 8.41883 14.5763 8.41895 14V13.75C8.41895 13.5511 8.49796 13.3603 8.63862 13.2197C8.77927 13.079 8.97003 13 9.16895 13C9.36786 13 9.55862 13.079 9.69928 13.2197C9.83993 13.3603 9.91895 13.5511 9.91895 13.75V14C9.91895 14.2652 10.0243 14.5196 10.2118 14.7071C10.3994 14.8946 10.6537 15 10.9189 15H11.4189C11.6842 15 11.9385 14.8946 12.1261 14.7071C12.3136 14.5196 12.4189 14.2652 12.4189 14V13.795C12.4189 13.5513 12.3298 13.316 12.1685 13.1334C12.0072 12.9507 11.7848 12.8332 11.5429 12.803L10.6089 12.686C10.0044 12.6105 9.44828 12.3168 9.04501 11.8601C8.64175 11.4034 8.41912 10.8152 8.41895 10.206V10C8.41883 9.42367 8.61784 8.86501 8.98229 8.41855C9.34675 7.97209 9.85426 7.66527 10.4189 7.55V6.75C10.4189 6.55109 10.498 6.36032 10.6386 6.21967C10.7793 6.07902 10.97 6 11.1689 6ZM21.6689 6C21.8679 6 22.0586 6.07902 22.1993 6.21967C22.3399 6.36032 22.4189 6.55109 22.4189 6.75V7.55C22.9836 7.66527 23.4911 7.97209 23.8556 8.41855C24.2201 8.86501 24.4191 9.42367 24.4189 10V10.25C24.4189 10.4489 24.3399 10.6397 24.1993 10.7803C24.0586 10.921 23.8679 11 23.6689 11C23.47 11 23.2793 10.921 23.1386 10.7803C22.998 10.6397 22.9189 10.4489 22.9189 10.25V10C22.9189 9.73478 22.8136 9.48043 22.6261 9.29289C22.4385 9.10536 22.1842 9 21.9189 9H21.4189C21.1537 9 20.8994 9.10536 20.7118 9.29289C20.5243 9.48043 20.4189 9.73478 20.4189 10V10.205C20.419 10.4487 20.5081 10.684 20.6694 10.8666C20.8307 11.0493 21.0531 11.1668 21.2949 11.197L22.2289 11.314C22.8335 11.3895 23.3896 11.6832 23.7929 12.1399C24.1961 12.5966 24.4188 13.1848 24.4189 13.794V14C24.4191 14.5763 24.2201 15.135 23.8556 15.5815C23.4911 16.0279 22.9836 16.3347 22.4189 16.45V17.25C22.4189 17.4489 22.3399 17.6397 22.1993 17.7803C22.0586 17.921 21.8679 18 21.6689 18C21.47 18 21.2793 17.921 21.1386 17.7803C20.998 17.6397 20.9189 17.4489 20.9189 17.25V16.45C20.3543 16.3347 19.8467 16.0279 19.4823 15.5815C19.1178 15.135 18.9188 14.5763 18.9189 14V13.75C18.9189 13.5511 18.998 13.3603 19.1386 13.2197C19.2793 13.079 19.47 13 19.6689 13C19.8679 13 20.0586 13.079 20.1993 13.2197C20.3399 13.3603 20.4189 13.5511 20.4189 13.75V14C20.4189 14.2652 20.5243 14.5196 20.7118 14.7071C20.8994 14.8946 21.1537 15 21.4189 15H21.9189C22.1842 15 22.4385 14.8946 22.6261 14.7071C22.8136 14.5196 22.9189 14.2652 22.9189 14V13.795C22.9189 13.5513 22.8298 13.316 22.6685 13.1334C22.5072 12.9507 22.2848 12.8332 22.0429 12.803L21.1089 12.686C20.5044 12.6105 19.9483 12.3168 19.545 11.8601C19.1417 11.4034 18.9191 10.8152 18.9189 10.206V10C18.9188 9.42367 19.1178 8.86501 19.4823 8.41855C19.8467 7.97209 20.3543 7.66527 20.9189 7.55V6.75C20.9189 6.55109 20.998 6.36032 21.1386 6.21967C21.2793 6.07902 21.47 6 21.6689 6Z" fill="#402A32"/>
<path d="M16.418 26C9.41797 26 9.41797 19 9.41797 19H23.418C23.418 19 23.418 26 16.418 26Z" fill="url(#paint8_radial_10_228)"/>
<g filter="url(#filter0_i_10_228)">
<path d="M16.4347 31.0001C21.4347 31.0001 21.3047 24.8001 21.4347 23.7501C21.5347 22.9001 21.0847 22.4701 20.5947 22.1801C20.1047 21.8901 18.6347 21.6201 16.4347 21.6201C14.2347 21.6201 12.7747 21.8901 12.2747 22.1801C11.7747 22.4701 11.3247 22.9001 11.4347 23.7501C11.5647 24.8001 11.4347 31.0001 16.4347 31.0001Z" fill="url(#paint9_radial_10_228)"/>
</g>
<g opacity="0.5" filter="url(#filter1_f_10_228)">
<path d="M18.4189 26.5C19.4189 26 20.4189 25 20.4189 23.5" stroke="#71FCB2"/>
</g>
<path d="M23.278 20.43C23.368 19.97 23.418 19.49 23.418 19H9.41797C9.41797 19.49 9.46797 19.96 9.55797 20.43H23.278Z" fill="url(#paint10_linear_10_228)"/>
<path fill-rule="evenodd" clip-rule="evenodd" d="M16.2681 30.998C15.9462 30.9527 15.6359 30.8461 15.3541 30.684C13.6541 29.702 13.4281 26.914 14.8481 24.454C15.6451 23.074 16.7911 22.09 17.9431 21.667C19.3081 21.757 20.2271 21.962 20.5941 22.18C21.0841 22.47 21.5341 22.9 21.4341 23.75C21.4189 23.8994 21.4072 24.0491 21.3991 24.199C21.3161 25.423 21.1281 28.232 19.5061 29.831C19.0241 30.245 18.5061 30.561 17.9861 30.764C17.4321 30.9442 16.8502 31.0234 16.2681 30.998Z" fill="url(#paint11_radial_10_228)"/>
<path fill-rule="evenodd" clip-rule="evenodd" d="M16.4188 22.5C16.5514 22.5 16.6786 22.5527 16.7724 22.6464C16.8662 22.7402 16.9188 22.8674 16.9188 23V23.5C16.9188 23.5278 16.9165 23.5556 16.9118 23.583C17.206 23.6854 17.4611 23.8768 17.6415 24.1308C17.822 24.3847 17.9189 24.6885 17.9188 25C17.9188 25.1326 17.8662 25.2598 17.7724 25.3536C17.6786 25.4473 17.5514 25.5 17.4188 25.5C17.2862 25.5 17.159 25.4473 17.0653 25.3536C16.9715 25.2598 16.9188 25.1326 16.9188 25C16.9188 24.8674 16.8662 24.7402 16.7724 24.6464C16.6786 24.5527 16.5514 24.5 16.4188 24.5H16.3458C16.2497 24.5002 16.1564 24.5328 16.0811 24.5926C16.0058 24.6523 15.9529 24.7358 15.9309 24.8294C15.909 24.923 15.9192 25.0212 15.96 25.1083C16.0008 25.1953 16.0698 25.266 16.1558 25.309L17.1298 25.797C17.3848 25.9242 17.5958 26.1249 17.7358 26.3731C17.8757 26.6213 17.9381 26.9057 17.915 27.1897C17.8919 27.4737 17.7842 27.7443 17.606 27.9666C17.4277 28.1889 17.187 28.3527 16.9148 28.437C16.9178 28.457 16.9188 28.478 16.9188 28.5V29C16.9188 29.1326 16.8662 29.2598 16.7724 29.3536C16.6786 29.4473 16.5514 29.5 16.4188 29.5C16.2862 29.5 16.159 29.4473 16.0653 29.3536C15.9715 29.2598 15.9188 29.1326 15.9188 29V28.5C15.9188 28.472 15.9208 28.444 15.9258 28.417C15.6316 28.3146 15.3766 28.1232 15.1961 27.8692C15.0157 27.6153 14.9188 27.3115 14.9188 27C14.9188 26.8674 14.9715 26.7402 15.0653 26.6464C15.159 26.5527 15.2862 26.5 15.4188 26.5C15.5514 26.5 15.6786 26.5527 15.7724 26.6464C15.8662 26.7402 15.9188 26.8674 15.9188 27C15.9188 27.1326 15.9715 27.2598 16.0653 27.3536C16.159 27.4473 16.2862 27.5 16.4188 27.5H16.4918C16.588 27.4998 16.6812 27.4672 16.7565 27.4074C16.8318 27.3477 16.8847 27.2642 16.9067 27.1706C16.9287 27.077 16.9185 26.9788 16.8776 26.8917C16.8368 26.8047 16.7678 26.734 16.6818 26.691L15.7078 26.203C15.4529 26.0758 15.2418 25.8751 15.1019 25.6269C14.962 25.3787 14.8995 25.0943 14.9227 24.8103C14.9458 24.5263 15.0534 24.2557 15.2317 24.0334C15.4099 23.8111 15.6506 23.6473 15.9228 23.563C15.9202 23.5421 15.9189 23.5211 15.9188 23.5V23C15.9188 22.8674 15.9715 22.7402 16.0653 22.6464C16.159 22.5527 16.2862 22.5 16.4188 22.5Z" fill="#402A32"/>
<defs>
<filter id="filter0_i_10_228" x="11.418" y="21.6201" width="11.0312" height="10.38" filterUnits="userSpaceOnUse" color-interpolation-filters="sRGB">
<feFlood flood-opacity="0" result="BackgroundImageFix"/>
<feBlend mode="normal" in="SourceGraphic" in2="BackgroundImageFix" result="shape"/>
<feColorMatrix in="SourceAlpha" type="matrix" values="0 0 0 0 0 0 0 0 0 0 0 0 0 0 0 0 0 0 127 0" result="hardAlpha"/>
<feOffset dx="1" dy="1"/>
<feGaussianBlur stdDeviation="1"/>
<feComposite in2="hardAlpha" operator="arithmetic" k2="-1" k3="1"/>
<feColorMatrix type="matrix" values="0 0 0 0 0 0 0 0 0 0 0 0 0 0 0 0 0 0 0.24 0"/>
<feBlend mode="normal" in2="shape" result="effect1_innerShadow_10_228"/>
</filter>
<filter id="filter1_f_10_228" x="17.1953" y="22.5" width="4.72363" height="5.44727" filterUnits="userSpaceOnUse" color-interpolation-filters="sRGB">
<feFlood flood-opacity="0" result="BackgroundImageFix"/>
<feBlend mode="normal" in="SourceGraphic" in2="BackgroundImageFix" result="shape"/>
<feGaussianBlur stdDeviation="0.5" result="effect1_foregroundBlur_10_228"/>
</filter>
<radialGradient id="paint0_radial_10_228" cx="0" cy="0" r="1" gradientUnits="userSpaceOnUse" gradientTransform="translate(25.9191 8.99958) rotate(132.839) scale(37.5033)">
<stop stop-color="#FFF478"/>
<stop offset="0.475" stop-color="#FFB02E"/>
<stop offset="1" stop-color="#F70A8D"/>
</radialGradient>
<radialGradient id="paint1_radial_10_228" cx="0" cy="0" r="1" gradientUnits="userSpaceOnUse" gradientTransform="translate(25.9178 9.00064) rotate(131.878) scale(38.9487)">
<stop stop-color="#FFF478"/>
<stop offset="0.475" stop-color="#FFB02E"/>
<stop offset="1" stop-color="#F70A8D"/>
</radialGradient>
<radialGradient id="paint2_radial_10_228" cx="0" cy="0" r="1" gradientUnits="userSpaceOnUse" gradientTransform="translate(16.4183 12.4997) rotate(101.31) scale(17.8466 22.8581)">
<stop offset="0.788" stop-color="#F59639" stop-opacity="0"/>
<stop offset="0.973" stop-color="#FF7DCE"/>
</radialGradient>
<radialGradient id="paint3_radial_10_228" cx="0" cy="0" r="1" gradientUnits="userSpaceOnUse" gradientTransform="translate(18.4189 14) rotate(135) scale(41.0122)">
<stop offset="0.315" stop-opacity="0"/>
<stop offset="1"/>
</radialGradient>
<radialGradient id="paint4_radial_10_228" cx="0" cy="0" r="1" gradientUnits="userSpaceOnUse" gradientTransform="translate(16.4189 17.0008) rotate(77.692) scale(28.1469)">
<stop offset="0.508" stop-color="#7D6133" stop-opacity="0"/>
<stop offset="1" stop-color="#715B32"/>
</radialGradient>
<radialGradient id="paint5_radial_10_228" cx="0" cy="0" r="1" gradientUnits="userSpaceOnUse" gradientTransform="translate(16.9189 16.5) rotate(55.713) scale(13.3135 9.65032)">
<stop stop-color="#FFB849"/>
<stop offset="1" stop-color="#FFB847" stop-opacity="0"/>
</radialGradient>
<radialGradient id="paint6_radial_10_228" cx="0" cy="0" r="1" gradientUnits="userSpaceOnUse" gradientTransform="translate(20.9189 18) rotate(9.86582) scale(11.6726)">
<stop stop-color="#FFA64B"/>
<stop offset="0.9" stop-color="#FFAE46" stop-opacity="0"/>
</radialGradient>
<radialGradient id="paint7_radial_10_228" cx="0" cy="0" r="1" gradientUnits="userSpaceOnUse" gradientTransform="translate(17.919 15.0003) rotate(43.971) scale(59.0529)">
<stop offset="0.185" stop-opacity="0"/>
<stop offset="1" stop-opacity="0.4"/>
</radialGradient>
<radialGradient id="paint8_radial_10_228" cx="0" cy="0" r="1" gradientUnits="userSpaceOnUse" gradientTransform="translate(16.418 27.556) rotate(-90) scale(8.55556 17.1111)">
<stop stop-color="#F70A8D"/>
<stop offset="1" stop-color="#89029C"/>
</radialGradient>
<radialGradient id="paint9_radial_10_228" cx="0" cy="0" r="1" gradientUnits="userSpaceOnUse" gradientTransform="translate(16.9187 30.5001) rotate(-92.8624) scale(10.0125 17.406)">
<stop stop-color="#56B7B8"/>
<stop offset="0.392" stop-color="#50F099"/>
<stop offset="0.675" stop-color="#45CD7F"/>
<stop offset="0.832" stop-color="#3BA66E"/>
<stop offset="0.886" stop-color="#477063"/>
</radialGradient>
<linearGradient id="paint10_linear_10_228" x1="16.418" y1="19" x2="16.418" y2="20.43" gradientUnits="userSpaceOnUse">
<stop stop-color="#ECCDFF"/>
<stop offset="1" stop-color="white"/>
</linearGradient>
<radialGradient id="paint11_radial_10_228" cx="0" cy="0" r="1" gradientUnits="userSpaceOnUse" gradientTransform="translate(19.4191 26.5) rotate(113.962) scale(4.92443 2.18283)">
<stop stop-color="#72FDB3"/>
<stop offset="0.603" stop-color="#72FDB3" stop-opacity="0"/>
</radialGradient>
</defs>
</svg>
