<svg width="24" height="24" viewBox="0 0 24 24" fill="none" xmlns="http://www.w3.org/2000/svg">
<path d="M10.5088 1.68945V19.2254H9.32031V1.79371L10.5088 1.68945Z" fill="#D0BE66"/>
<path d="M23.9997 0.354492V17.3066H22.832V0.458749L23.9997 0.354492Z" fill="#D0BE66"/>
<path d="M23.9996 0.354492V3.29452L22.8319 3.41963L10.5088 4.629L9.32031 4.75411V1.79323L10.5088 1.68897L22.8319 0.458749L23.9996 0.354492Z" fill="#FFEE99"/>
<path d="M5.25452 23.6453C8.15651 23.6453 10.509 21.6569 10.509 19.204C10.509 16.7511 8.15651 14.7627 5.25452 14.7627C2.35253 14.7627 0 16.7511 0 19.204C0 21.6569 2.35253 23.6453 5.25452 23.6453Z" fill="#FFEE99"/>
<path d="M18.7467 21.9354C21.6487 21.9354 24.0012 19.9469 24.0012 17.4941C24.0012 15.0412 21.6487 13.0527 18.7467 13.0527C15.8447 13.0527 13.4922 15.0412 13.4922 17.4941C13.4922 19.9469 15.8447 21.9354 18.7467 21.9354Z" fill="#FFEE99"/>
</svg>
