<svg width="32" height="32" viewBox="0 0 32 32" fill="none" xmlns="http://www.w3.org/2000/svg">
<g clip-path="url(#clip0_10_355)">
<path d="M15.1746 29.9568C15.4762 30.1256 15.835 30.1353 16.1472 29.9859C19.9678 28.1484 26.1584 23.297 28.7591 17.1985C32.0832 9.40605 24.0309 3.26593 18.1235 7.5229C17.4999 7.97187 16.7756 8.54787 16.2704 9.06957C16.1594 9.18034 16.0109 9.24532 15.8542 9.25161C15.6976 9.25789 15.5443 9.20503 15.4248 9.10351C14.7586 8.5023 13.723 7.75563 13.0199 7.27078C8.02601 3.83999 -0.496662 8.25793 3.05146 17.0715C4.61267 21.9054 11.4665 27.8817 15.1736 29.9588" fill="url(#paint0_radial_10_355)"/>
<path d="M15.1746 29.9568C15.4762 30.1256 15.835 30.1353 16.1472 29.9859C19.9678 28.1484 26.1584 23.297 28.7591 17.1985C32.0832 9.40605 24.0309 3.26593 18.1235 7.5229C17.4999 7.97187 16.7756 8.54787 16.2704 9.06957C16.1594 9.18034 16.0109 9.24532 15.8542 9.25161C15.6976 9.25789 15.5443 9.20503 15.4248 9.10351C14.7586 8.5023 13.723 7.75563 13.0199 7.27078C8.02601 3.83999 -0.496662 8.25793 3.05146 17.0715C4.61267 21.9054 11.4665 27.8817 15.1736 29.9588" fill="url(#paint1_radial_10_355)"/>
<path d="M15.1746 29.9568C15.4762 30.1256 15.835 30.1353 16.1472 29.9859C19.9678 28.1484 26.1584 23.297 28.7591 17.1985C32.0832 9.40605 24.0309 3.26593 18.1235 7.5229C17.4999 7.97187 16.7756 8.54787 16.2704 9.06957C16.1594 9.18034 16.0109 9.24532 15.8542 9.25161C15.6976 9.25789 15.5443 9.20503 15.4248 9.10351C14.7586 8.5023 13.723 7.75563 13.0199 7.27078C8.02601 3.83999 -0.496662 8.25793 3.05146 17.0715C4.61267 21.9054 11.4665 27.8817 15.1736 29.9588" fill="url(#paint2_radial_10_355)"/>
<path d="M15.3311 9.03089L15.7917 9.43526C16.2144 9.80665 16.8641 9.74071 17.2637 9.34411C18.4981 8.12132 20.646 6.69102 23.492 6.23235C21.7427 5.92592 19.8421 6.28374 18.1238 7.52205C17.5003 7.97199 16.7759 8.54799 16.2707 9.06968C16.1596 9.18031 16.011 9.24511 15.8543 9.25122C15.6977 9.25733 15.5445 9.2043 15.4251 9.10265C15.394 9.07463 15.3626 9.04683 15.3311 9.01926V9.03089Z" fill="url(#paint3_radial_10_355)"/>
<g filter="url(#filter0_f_10_355)">
<path d="M21.002 14.4999L23.8946 6.97015C27.1799 7.51803 30.7823 11.8138 28.2563 16.6768C27.4931 18.1469 25.6342 18.4843 24.1157 17.824L21.4364 16.6603L21.002 14.4999Z" fill="url(#paint4_radial_10_355)"/>
</g>
<g filter="url(#filter1_f_10_355)">
<path d="M15.7558 12.4559L14.3343 18.1034L5.82324 7.6869C12.2475 5.02023 15.7898 10.2954 15.7568 12.4559" fill="url(#paint5_radial_10_355)" fill-opacity="0.6"/>
</g>
<g filter="url(#filter2_f_10_355)">
<path d="M15.9365 10.6065V17.182C17.7246 19.102 20.7346 19.4443 22.7244 16.8184C25.5734 13.0608 25.5423 8.84944 21.4822 7.84871C18.7419 7.1738 16.6143 9.58641 15.9365 10.6065Z" fill="#FF8CF4" fill-opacity="0.6"/>
</g>
<g filter="url(#filter3_f_10_355)">
<path d="M4.59421 12.4247C5.21772 9.82402 8.32172 9.75808 8.89772 10.4854L13.7559 23.9098C5.3913 20.576 3.89796 15.3338 4.59421 12.4247Z" fill="#E65C9C" fill-opacity="0.6"/>
</g>
<path d="M15.3111 27.6004C15.6388 27.7915 16.0393 27.7847 16.368 27.5965C19.2771 25.9335 23.9899 22.4009 26.0204 17.6416C28.6599 11.453 22.2628 6.57449 17.5714 9.95582C17.106 10.2913 16.5872 10.8014 16.2012 11.2455C16.1498 11.3024 16.0876 11.3485 16.0183 11.3812C15.9489 11.414 15.8738 11.4327 15.7972 11.4363C15.7206 11.4399 15.644 11.4283 15.5719 11.4022C15.4998 11.3762 15.4336 11.3361 15.377 11.2843C14.7919 10.7342 14.1705 10.224 13.5171 9.75703C9.55107 7.03121 2.78161 10.5396 5.60052 17.5398C6.72731 20.8988 12.3021 25.8443 15.3111 27.6004Z" fill="url(#paint6_radial_10_355)"/>
<path d="M15.3111 27.6004C15.6388 27.7915 16.0393 27.7847 16.368 27.5965C19.2771 25.9335 23.9899 22.4009 26.0204 17.6416C28.6599 11.453 22.2628 6.57449 17.5714 9.95582C17.106 10.2913 16.5872 10.8014 16.2012 11.2455C16.1498 11.3024 16.0876 11.3485 16.0183 11.3812C15.9489 11.414 15.8738 11.4327 15.7972 11.4363C15.7206 11.4399 15.644 11.4283 15.5719 11.4022C15.4998 11.3762 15.4336 11.3361 15.377 11.2843C14.7919 10.7342 14.1705 10.224 13.5171 9.75703C9.55107 7.03121 2.78161 10.5396 5.60052 17.5398C6.72731 20.8988 12.3021 25.8443 15.3111 27.6004Z" fill="url(#paint7_radial_10_355)"/>
<path d="M15.3111 27.6004C15.6388 27.7915 16.0393 27.7847 16.368 27.5965C19.2771 25.9335 23.9899 22.4009 26.0204 17.6416C28.6599 11.453 22.2628 6.57449 17.5714 9.95582C17.106 10.2913 16.5872 10.8014 16.2012 11.2455C16.1498 11.3024 16.0876 11.3485 16.0183 11.3812C15.9489 11.414 15.8738 11.4327 15.7972 11.4363C15.7206 11.4399 15.644 11.4283 15.5719 11.4022C15.4998 11.3762 15.4336 11.3361 15.377 11.2843C14.7919 10.7342 14.1705 10.224 13.5171 9.75703C9.55107 7.03121 2.78161 10.5396 5.60052 17.5398C6.72731 20.8988 12.3021 25.8443 15.3111 27.6004Z" fill="url(#paint8_radial_10_355)"/>
<path d="M15.3111 27.6004C15.6388 27.7915 16.0393 27.7847 16.368 27.5965C19.2771 25.9335 23.9899 22.4009 26.0204 17.6416C28.6599 11.453 22.2628 6.57449 17.5714 9.95582C17.106 10.2913 16.5872 10.8014 16.2012 11.2455C16.1498 11.3024 16.0876 11.3485 16.0183 11.3812C15.9489 11.414 15.8738 11.4327 15.7972 11.4363C15.7206 11.4399 15.644 11.4283 15.5719 11.4022C15.4998 11.3762 15.4336 11.3361 15.377 11.2843C14.7919 10.7342 14.1705 10.224 13.5171 9.75703C9.55107 7.03121 2.78161 10.5396 5.60052 17.5398C6.72731 20.8988 12.3021 25.8443 15.3111 27.6004Z" fill="url(#paint9_radial_10_355)"/>
<path d="M15.3111 27.6004C15.6388 27.7915 16.0393 27.7847 16.368 27.5965C19.2771 25.9335 23.9899 22.4009 26.0204 17.6416C28.6599 11.453 22.2628 6.57449 17.5714 9.95582C17.106 10.2913 16.5872 10.8014 16.2012 11.2455C16.1498 11.3024 16.0876 11.3485 16.0183 11.3812C15.9489 11.414 15.8738 11.4327 15.7972 11.4363C15.7206 11.4399 15.644 11.4283 15.5719 11.4022C15.4998 11.3762 15.4336 11.3361 15.377 11.2843C14.7919 10.7342 14.1705 10.224 13.5171 9.75703C9.55107 7.03121 2.78161 10.5396 5.60052 17.5398C6.72731 20.8988 12.3021 25.8443 15.3111 27.6004Z" fill="url(#paint10_radial_10_355)"/>
<path d="M15.2998 11.2117C15.9737 11.9098 17.1451 11.8032 17.8627 11.1496C18.8615 10.2381 20.316 9.31493 22.1294 8.99105C20.6613 8.65166 19.0341 8.90281 17.5718 9.9559C17.1063 10.2914 16.5876 10.8015 16.2016 11.2456C16.1502 11.3025 16.088 11.3486 16.0186 11.3813C15.9493 11.4141 15.8742 11.4328 15.7976 11.4364C15.721 11.44 15.6444 11.4284 15.5723 11.4023C15.5002 11.3762 15.4339 11.3362 15.3774 11.2844L15.2998 11.2117Z" fill="url(#paint11_radial_10_355)"/>
<g filter="url(#filter4_f_10_355)">
<path d="M20.0098 15.3377L23.1273 10.9391C24.3075 11.3474 25.7833 13.0638 25.2248 15.5879C24.8321 17.3634 22.7036 17.8618 21.0347 17.1375L20.3075 16.8213L20.0098 15.3377Z" fill="url(#paint12_radial_10_355)"/>
</g>
<g filter="url(#filter5_f_10_355)">
<path d="M15.7301 13.9607L15.7592 19.6044L9.74121 11.6839C12.4515 9.02303 15.7572 12.2453 15.7301 13.9607Z" fill="url(#paint13_radial_10_355)" fill-opacity="0.6"/>
</g>
<g filter="url(#filter6_f_10_355)">
<path d="M8.30019 15.7285C8.9237 13.1268 12.0277 13.0618 12.6037 13.7891L15.9366 23.8798C11.1181 21.6369 7.60298 18.6376 8.30019 15.7285Z" fill="#C82873" fill-opacity="0.6"/>
</g>
<g filter="url(#filter7_f_10_355)">
<path d="M21.5151 14.4562C19.0889 11.2697 16.1837 13.1703 15.7842 13.8714V22.7762C19.1219 20.6128 23.2402 16.7214 21.5151 14.4562Z" fill="#FA3CC0"/>
</g>
<path d="M15.3498 24.6943C15.569 24.8243 15.8405 24.8204 16.0625 24.6914C17.9059 23.6296 20.9915 21.4303 22.2705 18.4214C24.113 14.5707 19.9103 11.4037 16.9653 13.5612C16.6049 13.8204 16.2639 14.1056 15.9452 14.4146C15.8337 14.529 15.6378 14.5358 15.5282 14.4194C15.1985 14.0674 14.6778 13.568 14.3268 13.3237C11.855 11.6102 7.31296 13.5806 9.19514 18.2604C9.88654 20.3763 13.4521 23.5666 15.3498 24.6943Z" fill="url(#paint14_radial_10_355)"/>
<path d="M15.3498 24.6943C15.569 24.8243 15.8405 24.8204 16.0625 24.6914C17.9059 23.6296 20.9915 21.4303 22.2705 18.4214C24.113 14.5707 19.9103 11.4037 16.9653 13.5612C16.6049 13.8204 16.2639 14.1056 15.9452 14.4146C15.8337 14.529 15.6378 14.5358 15.5282 14.4194C15.1985 14.0674 14.6778 13.568 14.3268 13.3237C11.855 11.6102 7.31296 13.5806 9.19514 18.2604C9.88654 20.3763 13.4521 23.5666 15.3498 24.6943Z" fill="url(#paint15_radial_10_355)"/>
<path d="M15.3498 24.6943C15.569 24.8243 15.8405 24.8204 16.0625 24.6914C17.9059 23.6296 20.9915 21.4303 22.2705 18.4214C24.113 14.5707 19.9103 11.4037 16.9653 13.5612C16.6049 13.8204 16.2639 14.1056 15.9452 14.4146C15.8337 14.529 15.6378 14.5358 15.5282 14.4194C15.1985 14.0674 14.6778 13.568 14.3268 13.3237C11.855 11.6102 7.31296 13.5806 9.19514 18.2604C9.88654 20.3763 13.4521 23.5666 15.3498 24.6943Z" fill="url(#paint16_radial_10_355)"/>
<path d="M15.3498 24.6943C15.569 24.8243 15.8405 24.8204 16.0625 24.6914C17.9059 23.6296 20.9915 21.4303 22.2705 18.4214C24.113 14.5707 19.9103 11.4037 16.9653 13.5612C16.6049 13.8204 16.2639 14.1056 15.9452 14.4146C15.8337 14.529 15.6378 14.5358 15.5282 14.4194C15.1985 14.0674 14.6778 13.568 14.3268 13.3237C11.855 11.6102 7.31296 13.5806 9.19514 18.2604C9.88654 20.3763 13.4521 23.5666 15.3498 24.6943Z" fill="url(#paint17_radial_10_355)"/>
<path d="M15.3498 24.6943C15.569 24.8243 15.8405 24.8204 16.0625 24.6914C17.9059 23.6296 20.9915 21.4303 22.2705 18.4214C24.113 14.5707 19.9103 11.4037 16.9653 13.5612C16.6049 13.8204 16.2639 14.1056 15.9452 14.4146C15.8337 14.529 15.6378 14.5358 15.5282 14.4194C15.1985 14.0674 14.6778 13.568 14.3268 13.3237C11.855 11.6102 7.31296 13.5806 9.19514 18.2604C9.88654 20.3763 13.4521 23.5666 15.3498 24.6943Z" fill="url(#paint18_radial_10_355)"/>
<path d="M19.4465 12.8824C18.5466 13.1665 17.7641 13.7697 17.1891 14.3612C16.7682 14.7947 16.0545 14.8722 15.6162 14.4805C15.6715 14.5035 15.7324 14.5095 15.7911 14.4977C15.8498 14.486 15.9037 14.457 15.9459 14.4145C16.2645 14.1054 16.6055 13.8202 16.966 13.5612C17.6764 13.0275 18.5634 12.7848 19.4465 12.8824Z" fill="url(#paint19_radial_10_355)"/>
<g filter="url(#filter8_f_10_355)">
<path d="M19.873 14.1066C19.5306 13.9647 19.3255 13.6771 19.4149 13.4643C19.5042 13.2514 19.8542 13.1939 20.1965 13.3358C20.5389 13.4777 20.744 13.7653 20.6546 13.9781C20.5653 14.191 20.2154 14.2485 19.873 14.1066Z" fill="url(#paint20_linear_10_355)"/>
</g>
<g filter="url(#filter9_f_10_355)">
<path d="M18.3535 16.9251L21.4236 14.658C21.9278 15.3057 22.1121 15.8943 21.9298 16.9251L18.5358 17.8647L18.3535 16.9251Z" fill="url(#paint21_linear_10_355)"/>
</g>
<g filter="url(#filter10_f_10_355)">
<path d="M15.2313 16.2036L15.4602 19.9573L12.041 15.1205C13.7448 13.4254 15.2527 15.1166 15.2313 16.2036Z" fill="url(#paint22_linear_10_355)"/>
</g>
<g filter="url(#filter11_f_10_355)">
<path d="M21.2709 17.8327C20.8704 18.6705 19.411 20.8562 16.7734 22.9013" stroke="url(#paint23_linear_10_355)" stroke-width="0.25" stroke-linecap="round"/>
</g>
</g>
<defs>
<filter id="filter0_f_10_355" x="19.002" y="4.97015" width="12.1035" height="15.1769" filterUnits="userSpaceOnUse" color-interpolation-filters="sRGB">
<feFlood flood-opacity="0" result="BackgroundImageFix"/>
<feBlend mode="normal" in="SourceGraphic" in2="BackgroundImageFix" result="shape"/>
<feGaussianBlur stdDeviation="1" result="effect1_foregroundBlur_10_355"/>
</filter>
<filter id="filter1_f_10_355" x="4.82324" y="5.95087" width="11.9336" height="13.1525" filterUnits="userSpaceOnUse" color-interpolation-filters="sRGB">
<feFlood flood-opacity="0" result="BackgroundImageFix"/>
<feBlend mode="normal" in="SourceGraphic" in2="BackgroundImageFix" result="shape"/>
<feGaussianBlur stdDeviation="0.5" result="effect1_foregroundBlur_10_355"/>
</filter>
<filter id="filter2_f_10_355" x="14.9365" y="6.73138" width="10.7803" height="12.9736" filterUnits="userSpaceOnUse" color-interpolation-filters="sRGB">
<feFlood flood-opacity="0" result="BackgroundImageFix"/>
<feBlend mode="normal" in="SourceGraphic" in2="BackgroundImageFix" result="shape"/>
<feGaussianBlur stdDeviation="0.5" result="effect1_foregroundBlur_10_355"/>
</filter>
<filter id="filter3_f_10_355" x="3.44336" y="9.08698" width="11.3125" height="15.8229" filterUnits="userSpaceOnUse" color-interpolation-filters="sRGB">
<feFlood flood-opacity="0" result="BackgroundImageFix"/>
<feBlend mode="normal" in="SourceGraphic" in2="BackgroundImageFix" result="shape"/>
<feGaussianBlur stdDeviation="0.5" result="effect1_foregroundBlur_10_355"/>
</filter>
<filter id="filter4_f_10_355" x="18.0098" y="8.93915" width="9.33691" height="10.5187" filterUnits="userSpaceOnUse" color-interpolation-filters="sRGB">
<feFlood flood-opacity="0" result="BackgroundImageFix"/>
<feBlend mode="normal" in="SourceGraphic" in2="BackgroundImageFix" result="shape"/>
<feGaussianBlur stdDeviation="1" result="effect1_foregroundBlur_10_355"/>
</filter>
<filter id="filter5_f_10_355" x="8.74121" y="9.66968" width="8.01758" height="10.9347" filterUnits="userSpaceOnUse" color-interpolation-filters="sRGB">
<feFlood flood-opacity="0" result="BackgroundImageFix"/>
<feBlend mode="normal" in="SourceGraphic" in2="BackgroundImageFix" result="shape"/>
<feGaussianBlur stdDeviation="0.5" result="effect1_foregroundBlur_10_355"/>
</filter>
<filter id="filter6_f_10_355" x="7.21191" y="12.3905" width="9.72461" height="12.4893" filterUnits="userSpaceOnUse" color-interpolation-filters="sRGB">
<feFlood flood-opacity="0" result="BackgroundImageFix"/>
<feBlend mode="normal" in="SourceGraphic" in2="BackgroundImageFix" result="shape"/>
<feGaussianBlur stdDeviation="0.5" result="effect1_foregroundBlur_10_355"/>
</filter>
<filter id="filter7_f_10_355" x="13.7842" y="10.6674" width="10.1377" height="14.1088" filterUnits="userSpaceOnUse" color-interpolation-filters="sRGB">
<feFlood flood-opacity="0" result="BackgroundImageFix"/>
<feBlend mode="normal" in="SourceGraphic" in2="BackgroundImageFix" result="shape"/>
<feGaussianBlur stdDeviation="1" result="effect1_foregroundBlur_10_355"/>
</filter>
<filter id="filter8_f_10_355" x="18.8936" y="12.758" width="2.28223" height="1.92639" filterUnits="userSpaceOnUse" color-interpolation-filters="sRGB">
<feFlood flood-opacity="0" result="BackgroundImageFix"/>
<feBlend mode="normal" in="SourceGraphic" in2="BackgroundImageFix" result="shape"/>
<feGaussianBlur stdDeviation="0.25" result="effect1_foregroundBlur_10_355"/>
</filter>
<filter id="filter9_f_10_355" x="17.3535" y="13.658" width="5.64453" height="5.20679" filterUnits="userSpaceOnUse" color-interpolation-filters="sRGB">
<feFlood flood-opacity="0" result="BackgroundImageFix"/>
<feBlend mode="normal" in="SourceGraphic" in2="BackgroundImageFix" result="shape"/>
<feGaussianBlur stdDeviation="0.5" result="effect1_foregroundBlur_10_355"/>
</filter>
<filter id="filter10_f_10_355" x="11.041" y="13.4013" width="5.41895" height="7.55603" filterUnits="userSpaceOnUse" color-interpolation-filters="sRGB">
<feFlood flood-opacity="0" result="BackgroundImageFix"/>
<feBlend mode="normal" in="SourceGraphic" in2="BackgroundImageFix" result="shape"/>
<feGaussianBlur stdDeviation="0.5" result="effect1_foregroundBlur_10_355"/>
</filter>
<filter id="filter11_f_10_355" x="16.1484" y="17.2077" width="5.74707" height="6.3186" filterUnits="userSpaceOnUse" color-interpolation-filters="sRGB">
<feFlood flood-opacity="0" result="BackgroundImageFix"/>
<feBlend mode="normal" in="SourceGraphic" in2="BackgroundImageFix" result="shape"/>
<feGaussianBlur stdDeviation="0.25" result="effect1_foregroundBlur_10_355"/>
</filter>
<radialGradient id="paint0_radial_10_355" cx="0" cy="0" r="1" gradientUnits="userSpaceOnUse" gradientTransform="translate(21.6939 32.2734) rotate(-116.141) scale(29.3001 72.8434)">
<stop offset="0.271" stop-color="#FFBBE4"/>
<stop offset="1" stop-color="#FF99FF"/>
</radialGradient>
<radialGradient id="paint1_radial_10_355" cx="0" cy="0" r="1" gradientUnits="userSpaceOnUse" gradientTransform="translate(21.3913 24.3335) rotate(-140.628) scale(26.6557 21.6749)">
<stop offset="0.759" stop-color="#CB90C8" stop-opacity="0"/>
<stop offset="0.897" stop-color="#CB90C8"/>
</radialGradient>
<radialGradient id="paint2_radial_10_355" cx="0" cy="0" r="1" gradientUnits="userSpaceOnUse" gradientTransform="translate(16.8465 10.4553) rotate(91.567) scale(19.9469 22.9844)">
<stop offset="0.759" stop-color="#FFA5D9" stop-opacity="0"/>
<stop offset="0.897" stop-color="#FFA5D9"/>
</radialGradient>
<radialGradient id="paint3_radial_10_355" cx="0" cy="0" r="1" gradientUnits="userSpaceOnUse" gradientTransform="translate(19.0586 9.39453) rotate(-36.0851) scale(6.63699 2.297)">
<stop offset="0.641" stop-color="#CB90C8" stop-opacity="0"/>
<stop offset="1" stop-color="#CB90C8"/>
</radialGradient>
<radialGradient id="paint4_radial_10_355" cx="0" cy="0" r="1" gradientUnits="userSpaceOnUse" gradientTransform="translate(29.1504 7.40308) rotate(126.416) scale(11.6452 5.86064)">
<stop stop-color="#FFD9F0"/>
<stop offset="1" stop-color="#FFD9F0" stop-opacity="0"/>
</radialGradient>
<radialGradient id="paint5_radial_10_355" cx="0" cy="0" r="1" gradientUnits="userSpaceOnUse" gradientTransform="translate(14.8519 6.49346) rotate(127.093) scale(9.85503 6.36614)">
<stop stop-color="#FFD9F0"/>
<stop offset="1" stop-color="#FFD9F0" stop-opacity="0"/>
</radialGradient>
<radialGradient id="paint6_radial_10_355" cx="0" cy="0" r="1" gradientUnits="userSpaceOnUse" gradientTransform="translate(16.4514 30.8518) rotate(-97.9806) scale(25.7666 64.0589)">
<stop offset="0.297" stop-color="#FF7EB4"/>
<stop offset="0.792" stop-color="#FF70D7"/>
<stop offset="1" stop-color="#FF71E8"/>
</radialGradient>
<radialGradient id="paint7_radial_10_355" cx="0" cy="0" r="1" gradientUnits="userSpaceOnUse" gradientTransform="translate(14.9385 12.2838) rotate(87.134) scale(21.4706 18.4265)">
<stop offset="0.635" stop-color="#FFBFCE" stop-opacity="0"/>
<stop offset="0.834" stop-color="#FFBFCE"/>
</radialGradient>
<radialGradient id="paint8_radial_10_355" cx="0" cy="0" r="1" gradientUnits="userSpaceOnUse" gradientTransform="translate(12.7026 15.5054) rotate(43.1963) scale(14.9744 35.8692)">
<stop offset="0.767" stop-color="#FFA9BD" stop-opacity="0"/>
<stop offset="0.933" stop-color="#FFA9BD"/>
</radialGradient>
<radialGradient id="paint9_radial_10_355" cx="0" cy="0" r="1" gradientUnits="userSpaceOnUse" gradientTransform="translate(16.2963 19.1127) rotate(-19.541) scale(16.8216 24.6463)">
<stop offset="0.649" stop-color="#FFA9BD" stop-opacity="0"/>
<stop offset="0.91" stop-color="#FFA9BD"/>
</radialGradient>
<radialGradient id="paint10_radial_10_355" cx="0" cy="0" r="1" gradientUnits="userSpaceOnUse" gradientTransform="translate(17.7566 20.0019) rotate(-144.432) scale(16.46 15.2129)">
<stop offset="0.786" stop-color="#D5246B" stop-opacity="0"/>
<stop offset="1" stop-color="#D5246B"/>
</radialGradient>
<radialGradient id="paint11_radial_10_355" cx="0" cy="0" r="1" gradientUnits="userSpaceOnUse" gradientTransform="translate(19.0273 12.577) rotate(-43.7636) scale(5.95823 3.05506)">
<stop offset="0.786" stop-color="#D66DC4" stop-opacity="0"/>
<stop offset="1" stop-color="#DA68C7"/>
</radialGradient>
<radialGradient id="paint12_radial_10_355" cx="0" cy="0" r="1" gradientUnits="userSpaceOnUse" gradientTransform="translate(25.6059 10.464) rotate(126.416) scale(7.99681 4.02454)">
<stop stop-color="#FFBEE5"/>
<stop offset="1" stop-color="#FFBEE5" stop-opacity="0"/>
</radialGradient>
<radialGradient id="paint13_radial_10_355" cx="0" cy="0" r="1" gradientUnits="userSpaceOnUse" gradientTransform="translate(16.1693 10.3825) rotate(127.093) scale(7.82823 5.05689)">
<stop stop-color="#FFBEE5"/>
<stop offset="1" stop-color="#FFBEE5" stop-opacity="0"/>
</radialGradient>
<radialGradient id="paint14_radial_10_355" cx="0" cy="0" r="1" gradientUnits="userSpaceOnUse" gradientTransform="translate(15.8676 28.7128) rotate(-88.811) scale(17.5189 30.4277)">
<stop stop-color="#F12E52"/>
<stop offset="0.596" stop-color="#FF3B79"/>
<stop offset="1" stop-color="#FF4EC6"/>
</radialGradient>
<radialGradient id="paint15_radial_10_355" cx="0" cy="0" r="1" gradientUnits="userSpaceOnUse" gradientTransform="translate(14.4742 16.4703) rotate(82.2482) scale(11.6825 11.5461)">
<stop offset="0.635" stop-color="#FFA9BD" stop-opacity="0"/>
<stop offset="0.834" stop-color="#FFA9BD"/>
</radialGradient>
<radialGradient id="paint16_radial_10_355" cx="0" cy="0" r="1" gradientUnits="userSpaceOnUse" gradientTransform="translate(13.7838 17.0551) rotate(43.5536) scale(9.37605 22.7018)">
<stop offset="0.767" stop-color="#FFA9BD" stop-opacity="0"/>
<stop offset="0.933" stop-color="#FFA9BD"/>
</radialGradient>
<radialGradient id="paint17_radial_10_355" cx="0" cy="0" r="1" gradientUnits="userSpaceOnUse" gradientTransform="translate(16.0189 19.329) rotate(-20.0006) scale(10.5699 15.5438)">
<stop offset="0.649" stop-color="#FFA9BD" stop-opacity="0"/>
<stop offset="0.91" stop-color="#FFA9BD"/>
</radialGradient>
<radialGradient id="paint18_radial_10_355" cx="0" cy="0" r="1" gradientUnits="userSpaceOnUse" gradientTransform="translate(18.4742 20.1067) rotate(-147.863) scale(11.1654 9.5173)">
<stop offset="0.786" stop-color="#D5246B" stop-opacity="0"/>
<stop offset="1" stop-color="#D5246B"/>
</radialGradient>
<radialGradient id="paint19_radial_10_355" cx="0" cy="0" r="1" gradientUnits="userSpaceOnUse" gradientTransform="translate(17.6797 14.4698) rotate(51.1324) scale(1.30383 3.72014)">
<stop offset="0.62" stop-color="#D5246B" stop-opacity="0"/>
<stop offset="1" stop-color="#D5246B"/>
</radialGradient>
<linearGradient id="paint20_linear_10_355" x1="19.2363" y1="13.2181" x2="19.9738" y2="13.6275" gradientUnits="userSpaceOnUse">
<stop stop-color="#FF7DCB"/>
<stop offset="1" stop-color="#FF7DCB" stop-opacity="0"/>
</linearGradient>
<linearGradient id="paint21_linear_10_355" x1="22.2459" y1="15.1331" x2="17.6059" y2="15.0652" gradientUnits="userSpaceOnUse">
<stop stop-color="#FFA2DA"/>
<stop offset="1" stop-color="#FFA1DA" stop-opacity="0"/>
</linearGradient>
<linearGradient id="paint22_linear_10_355" x1="15.6861" y1="17.8434" x2="13.0582" y2="14.0431" gradientUnits="userSpaceOnUse">
<stop stop-color="#FF7DCB" stop-opacity="0.6"/>
<stop offset="1" stop-color="#FF7DCB" stop-opacity="0"/>
</linearGradient>
<linearGradient id="paint23_linear_10_355" x1="17.717" y1="20.9648" x2="21.6869" y2="19.9728" gradientUnits="userSpaceOnUse">
<stop stop-color="#DD2345" stop-opacity="0"/>
<stop offset="0.545" stop-color="#E72044"/>
<stop offset="1" stop-color="#D12847"/>
</linearGradient>
<clipPath id="clip0_10_355">
<rect width="31.0303" height="32" fill="white" transform="translate(0.418945)"/>
</clipPath>
</defs>
</svg>
