<svg width="48" height="48" viewBox="0 0 48 48" fill="none" xmlns="http://www.w3.org/2000/svg">
<path d="M23.8501 44.55C13.3876 44.55 2.1001 37.9875 2.1001 23.5875C2.1001 9.1875 13.3876 2.625 23.8501 2.625C29.6626 2.625 35.0251 4.5375 39.0001 8.025C43.3126 11.85 45.6001 17.25 45.6001 23.5875C45.6001 29.925 43.3126 35.2875 39.0001 39.1125C35.0251 42.6 29.6251 44.55 23.8501 44.55Z" fill="url(#paint0_radial_1222_6632)"/>
<path d="M41.809 11.1262C43.8077 14.3512 44.8502 18.1912 44.8502 22.4625C44.8502 28.8 42.5627 34.1625 38.2502 37.9875C34.2752 41.475 28.8752 43.425 23.1002 43.425C16.3277 43.425 9.22521 40.6687 5.03271 34.8225C9.06771 41.445 16.6577 44.55 23.8502 44.55C29.6252 44.55 35.0252 42.6 39.0002 39.1125C43.3127 35.2875 45.6002 29.925 45.6002 23.5875C45.6002 18.81 44.299 14.565 41.809 11.1262Z" fill="#EB8F00"/>
<path d="M23.9999 32.6812C28.0574 32.6812 30.6861 35.6512 31.3686 37.0199C31.6311 37.5487 31.6461 37.9874 31.4211 38.1937C31.1849 38.3474 30.8774 38.3474 30.6411 38.1937C30.5249 38.1374 30.4086 38.0737 30.3036 37.9987C28.4662 36.6819 26.2623 35.9737 24.0017 35.9737C21.7411 35.9737 19.5373 36.6819 17.6999 37.9987C17.5949 38.0737 17.4824 38.1374 17.3624 38.1937C17.1261 38.3512 16.8186 38.3512 16.5824 38.1937C16.3574 37.9874 16.3724 37.5487 16.6349 37.0199C17.3136 35.6549 19.9424 32.6812 23.9999 32.6812ZM10.2711 14.9137C9.44612 15.0599 9.40487 16.2599 10.3049 16.3012C12.2924 16.3312 14.2124 15.5962 15.6749 14.2499C16.2308 13.7717 16.7012 13.2023 17.0661 12.5662C17.2836 12.2549 17.2086 11.8274 16.9011 11.6062C16.5936 11.3849 16.1624 11.4637 15.9411 11.7712L15.9036 11.8087C14.4299 13.4549 12.4461 14.5462 10.2711 14.9137ZM32.2949 11.8199L32.2574 11.7824C32.1522 11.633 31.9922 11.5313 31.8122 11.4997C31.6323 11.4681 31.4471 11.5091 31.2974 11.6137C31.2232 11.6657 31.1601 11.7318 31.1117 11.8083C31.0632 11.8848 31.0303 11.9701 31.015 12.0593C30.9997 12.1486 31.0021 12.24 31.0223 12.3282C31.0424 12.4165 31.0798 12.4999 31.1324 12.5737C31.4999 13.2074 31.9724 13.7737 32.5311 14.2499C33.9936 15.5962 35.9136 16.3274 37.9011 16.2937C38.8011 16.2524 38.7599 15.0524 37.9311 14.9062C35.7561 14.5424 33.7724 13.4549 32.2949 11.8199Z" fill="#422B0D"/>
<path d="M7.31982 40.1249C4.14732 40.1249 1.69482 37.0462 1.69482 34.4099C1.69482 32.5574 2.52357 30.4087 3.69732 27.4312C3.84357 26.9924 4.03857 26.5499 4.23357 26.0624C4.79232 24.6674 5.28357 23.1562 6.03357 21.8474C6.14796 21.6425 6.31497 21.4719 6.51735 21.3531C6.71973 21.2343 6.95015 21.1716 7.18482 21.1716C7.4195 21.1716 7.64992 21.2343 7.8523 21.3531C8.05468 21.4719 8.22168 21.6425 8.33607 21.8474C9.03357 23.1337 9.51357 24.5249 10.2373 26.1487C12.2886 30.7387 12.8623 32.5949 12.8623 34.4474C12.9336 37.0612 10.4436 40.1249 7.31982 40.1249Z" fill="url(#paint1_radial_1222_6632)"/>
<path d="M10.7515 36.6188C10.0352 37.7438 8.40771 37.5188 8.40771 35.6776C8.40771 34.5001 8.64771 28.4551 9.66021 29.3026C11.3027 30.6788 11.7715 35.0513 10.7515 36.6188Z" fill="#81D4FA"/>
<path d="M16.7515 20.6025C15.1802 20.6025 13.7515 21.93 13.7515 24.135C13.7515 26.34 15.1802 27.6638 16.7515 27.6638C18.3227 27.6638 19.7515 26.3363 19.7515 24.135C19.7515 21.9338 18.3227 20.6025 16.7515 20.6025Z" fill="#422B0D"/>
<path d="M16.6049 22.0762C16.3481 21.954 16.0535 21.9383 15.7851 22.0324C15.5168 22.1266 15.2966 22.3229 15.1724 22.5787C14.9736 22.9949 15.0636 23.4937 15.3974 23.8162C15.9299 24.0712 16.5711 23.8462 16.8299 23.3137C17.0286 22.8974 16.9386 22.3987 16.6049 22.0762Z" fill="#896024"/>
<path d="M31.125 20.6025C29.5538 20.6025 28.125 21.93 28.125 24.135C28.125 26.34 29.5538 27.6638 31.125 27.6638C32.6962 27.6638 34.125 26.3363 34.125 24.135C34.125 21.9338 32.7038 20.6025 31.125 20.6025Z" fill="#422B0D"/>
<path d="M30.9862 22.0762C30.7295 21.954 30.4348 21.9383 30.1665 22.0324C29.8982 22.1266 29.6779 22.3229 29.5537 22.5787C29.355 22.9949 29.445 23.4937 29.7787 23.8162C30.3112 24.0712 30.9525 23.8462 31.2112 23.3137C31.41 22.8974 31.32 22.3987 30.9862 22.0762Z" fill="#896024"/>
<defs>
<radialGradient id="paint0_radial_1222_6632" cx="0" cy="0" r="1" gradientUnits="userSpaceOnUse" gradientTransform="translate(23.8501 23.5875) scale(21.36 21.36)">
<stop offset="0.5" stop-color="#FDE030"/>
<stop offset="0.92" stop-color="#F7C02B"/>
<stop offset="1" stop-color="#F4A223"/>
</radialGradient>
<radialGradient id="paint1_radial_1222_6632" cx="0" cy="0" r="1" gradientUnits="userSpaceOnUse" gradientTransform="translate(7.72107 23.6025) scale(12.525 19.2885)">
<stop offset="0.46" stop-color="#29B6F6"/>
<stop offset="1" stop-color="#1E88E5"/>
</radialGradient>
</defs>
</svg>
