<svg width="15" height="17" viewBox="0 0 15 17" fill="none" xmlns="http://www.w3.org/2000/svg">
<path d="M12.0016 16.2918C11.3653 16.2918 10.8241 16.069 10.378 15.6234C9.93201 15.1778 9.70898 14.6367 9.70898 14.0001C9.70898 13.8822 9.71726 13.7745 9.73382 13.6769C9.75037 13.5794 9.77521 13.4697 9.80834 13.3479L4.56153 10.1347C4.36922 10.3676 4.13706 10.5354 3.86505 10.638C3.59305 10.7405 3.30491 10.7918 3.00063 10.7918C2.36406 10.7918 1.82298 10.5691 1.37738 10.1237C0.931783 9.67825 0.708984 9.13739 0.708984 8.50108C0.708984 7.86477 0.931783 7.3236 1.37738 6.87756C1.82298 6.43152 2.36406 6.2085 3.00063 6.2085C3.30084 6.2085 3.58796 6.26325 3.86201 6.37275C4.13605 6.48226 4.36922 6.64652 4.56153 6.86554L9.80834 3.65239C9.77521 3.5306 9.75037 3.42092 9.73382 3.32335C9.71726 3.22579 9.70898 3.11806 9.70898 3.00014C9.70898 2.36357 9.93169 1.82249 10.3771 1.37689C10.8225 0.931295 11.3634 0.708496 11.9997 0.708496C12.636 0.708496 13.1772 0.931205 13.6232 1.37662C14.0693 1.82204 14.2923 2.3629 14.2923 2.99921C14.2923 3.63551 14.0695 4.17668 13.6239 4.62273C13.1783 5.06877 12.6372 5.29179 12.0006 5.29179C11.6964 5.29179 11.4082 5.24051 11.1362 5.13795C10.8642 5.03539 10.632 4.86765 10.4397 4.63475L5.19292 7.84789C5.22605 7.96968 5.25089 8.07918 5.26744 8.17637C5.284 8.27355 5.29228 8.38092 5.29228 8.49848C5.29228 8.61605 5.284 8.72398 5.26744 8.82227C5.25089 8.92056 5.22605 9.0306 5.19292 9.15239L10.4397 12.3655C10.632 12.1187 10.8642 11.9475 11.1362 11.8519C11.4082 11.7563 11.6964 11.7085 12.0006 11.7085C12.6372 11.7085 13.1783 11.9312 13.6239 12.3766C14.0695 12.822 14.2923 13.3629 14.2923 13.9992C14.2923 14.6355 14.0696 15.1767 13.6242 15.6227C13.1787 16.0688 12.6379 16.2918 12.0016 16.2918ZM12.0006 4.2085C12.3374 4.2085 12.623 4.0913 12.8574 3.85689C13.0918 3.62248 13.209 3.33689 13.209 3.00014C13.209 2.66339 13.0918 2.37781 12.8574 2.14339C12.623 1.90899 12.3374 1.79179 12.0006 1.79179C11.6639 1.79179 11.3783 1.90899 11.1439 2.14339C10.9095 2.37781 10.7923 2.66339 10.7923 3.00014C10.7923 3.33689 10.9095 3.62248 11.1439 3.85689C11.3783 4.0913 11.6639 4.2085 12.0006 4.2085ZM3.00063 9.7085C3.33738 9.7085 3.62296 9.5913 3.85738 9.35689C4.09178 9.12248 4.20898 8.83689 4.20898 8.50014C4.20898 8.16339 4.09178 7.87781 3.85738 7.64339C3.62296 7.40899 3.33738 7.29179 3.00063 7.29179C2.66388 7.29179 2.3783 7.40899 2.14388 7.64339C1.90948 7.87781 1.79228 8.16339 1.79228 8.50014C1.79228 8.83689 1.90948 9.12248 2.14388 9.35689C2.3783 9.5913 2.66388 9.7085 3.00063 9.7085ZM12.0006 15.2085C12.3374 15.2085 12.623 15.0913 12.8574 14.8569C13.0918 14.6225 13.209 14.3369 13.209 14.0001C13.209 13.6634 13.0918 13.3778 12.8574 13.1434C12.623 12.909 12.3374 12.7918 12.0006 12.7918C11.6639 12.7918 11.3783 12.909 11.1439 13.1434C10.9095 13.3778 10.7923 13.6634 10.7923 14.0001C10.7923 14.3369 10.9095 14.6225 11.1439 14.8569C11.3783 15.0913 11.6639 15.2085 12.0006 15.2085Z" fill="currentColor"/>
</svg>
