<svg width="242" height="47" viewBox="0 0 242 47" fill="none" xmlns="http://www.w3.org/2000/svg">
<path d="M8.44141 24.3877C9.84839 24.8567 11.7244 25.3257 14.0693 25.7947V32.3606C14.0693 33.7676 12.8969 35.1746 11.2554 35.1746C9.61389 35.1746 8.44141 34.0021 8.44141 32.3606V24.3877Z" fill="#A799FF"/>
<path d="M16.8838 26.2637C18.5253 26.4982 20.4013 26.7327 22.5117 26.9672V36.5816C22.5117 38.223 21.3392 39.3955 19.6978 39.3955C18.0563 39.3955 16.8838 38.223 16.8838 36.5816V26.2637Z" fill="#A799FF"/>
<path d="M28.1392 27.2019C29.0772 27.2019 30.0151 27.2019 30.9531 27.2019V42.2097C30.9531 43.8512 29.7806 45.0237 28.1392 45.0237C26.4977 45.0237 25.3252 43.8512 25.3252 42.2097V27.2019C26.2632 27.2019 27.2012 27.2019 28.1392 27.2019Z" fill="#A799FF"/>
<path d="M33.7686 26.9672C35.879 26.7327 37.755 26.4982 39.3965 26.2637V36.5816C39.3965 38.223 38.224 39.3955 36.5825 39.3955C34.941 39.3955 33.7686 38.223 33.7686 36.5816V26.9672Z" fill="#A799FF"/>
<path d="M42.21 25.7944C44.5549 25.3254 46.4309 24.8564 47.8379 24.3875V32.1259C47.8379 33.7673 46.6654 34.9398 45.0239 34.9398C43.3824 34.9398 42.21 33.7673 42.21 32.1259V25.7944Z" fill="#A799FF"/>
<path d="M54.1689 18.056C52.7619 16.8835 51.1204 15.9456 49.0099 15.2421V21.1045C49.2444 21.1045 49.4789 21.339 49.9479 21.5735C49.9479 21.5735 50.1824 21.5735 50.1824 21.808C50.6514 22.0425 50.6514 22.5115 50.6514 22.746C50.6514 22.9805 50.4169 23.215 50.1824 23.4495C49.4789 23.9185 48.7754 24.153 47.8375 24.622C46.4305 24.8565 44.5545 25.3255 42.2095 25.7944C41.2715 26.0289 40.3335 26.2634 39.3955 26.2634C37.7541 26.4979 35.8781 26.7324 33.7676 26.9669C32.8296 26.9669 31.8916 26.9669 30.9536 27.2014C30.0157 27.2014 29.0777 27.2014 28.1397 27.2014C27.2017 27.2014 26.2637 27.2014 25.3257 27.2014C24.3877 27.2014 23.4497 27.2014 22.5117 26.9669C20.4013 26.7324 18.5253 26.4979 16.8838 26.2634C15.9458 26.2634 15.0078 26.0289 14.0698 25.7944C11.7249 25.3255 9.84889 24.8565 8.4419 24.3875C7.50391 23.9185 6.56592 23.684 6.09693 23.215C5.39344 22.9805 5.39344 22.0425 6.09693 21.5735C6.09693 21.5735 6.33143 21.5735 6.33143 21.339C6.56592 21.339 7.03492 21.1045 7.50391 20.87V15.0076C5.15894 15.9456 3.28296 16.8835 2.11048 18.056C0.703492 19.2285 0 20.6355 0 22.5115C0 26.2634 3.51746 28.6084 8.4419 30.2499C10.0834 30.9534 11.9594 31.1879 14.0698 31.6569C15.0078 31.8914 15.9458 31.8914 16.8838 32.1259C18.7598 32.3604 20.6358 32.5949 22.5117 32.5949C23.4497 32.5949 24.3877 32.8294 25.3257 32.8294C26.2637 32.8294 27.2017 32.8294 28.1397 32.8294C29.0777 32.8294 30.0157 32.8294 30.9536 32.8294C31.8916 32.8294 32.8296 32.8294 33.7676 32.5949C35.6436 32.5949 37.5196 32.3604 39.3955 32.1259C40.3335 32.1259 41.2715 31.8914 42.2095 31.6569C44.0855 31.4224 46.196 30.9534 47.8375 30.2499C52.7619 28.6084 56.2794 26.2634 56.2794 22.5115C56.2794 20.6355 55.3414 19.2285 54.1689 18.056Z" fill="#A799FF"/>
<path d="M14.0693 12.6626V23.684C11.9589 23.4495 10.0829 22.9805 8.44141 22.277V12.6626C8.44141 11.0211 9.61389 9.84863 11.2554 9.84863C12.8969 9.84863 14.0693 11.2556 14.0693 12.6626Z" fill="#A799FF"/>
<path d="M22.5117 8.44141V24.8562C20.6357 24.6217 18.7598 24.6217 16.8838 24.1527V8.44141C16.8838 6.79993 18.0563 5.62744 19.6978 5.62744C21.3392 5.62744 22.5117 6.79993 22.5117 8.44141Z" fill="#A799FF"/>
<path d="M28.1392 0C29.7806 0 30.9531 1.17249 30.9531 2.81397V25.0912C30.0151 25.0912 29.0772 25.0912 28.1392 25.0912C27.2012 25.0912 26.2632 25.0912 25.3252 25.0912V2.81397C25.3252 1.17249 26.4977 0 28.1392 0Z" fill="#A799FF"/>
<path d="M39.3965 8.44187V24.3877C37.5205 24.6222 35.6445 24.8567 33.7686 25.0912V8.67637C33.7686 7.03489 34.941 5.8624 36.5825 5.8624C38.224 5.6279 39.3965 6.80039 39.3965 8.44187Z" fill="#A799FF"/>
<path d="M47.8379 12.8975V22.2774C46.1964 22.9808 44.3204 23.4498 42.21 23.9188V12.8975C42.21 11.256 43.3824 10.0835 45.0239 10.0835C46.6654 10.0835 47.8379 11.256 47.8379 12.8975Z" fill="#A799FF"/>
<path d="M143.278 28.374L141.637 25.3256C141.168 24.6221 140.933 24.1531 140.464 23.6841C139.995 23.2151 139.526 22.9806 138.588 22.7461V22.5116C139.761 22.2771 140.699 22.0426 141.637 21.5736C142.34 21.1046 143.044 20.6356 143.513 19.6976C143.982 18.9941 144.216 18.0562 144.216 17.1182C144.216 15.9457 143.982 14.7732 143.278 14.0697C142.575 13.3662 141.871 12.6627 140.933 12.1937C139.761 11.7247 138.588 11.4902 136.947 11.4902H126.629V30.0155C127.098 30.25 127.801 30.25 128.739 30.25C129.677 30.25 130.381 30.0155 130.85 29.781V23.4496H133.664C134.367 23.4496 135.071 23.4496 135.54 23.6841C136.009 23.6841 136.243 23.9186 136.712 24.3876C136.947 24.6221 137.181 25.0911 137.416 25.5601L139.292 29.0775L139.761 30.0155C140.23 30.25 141.168 30.4845 142.106 30.4845C143.278 30.4845 144.216 30.25 144.685 30.0155L143.278 28.374ZM136.478 20.4011H130.381V15.2422H136.478C137.416 15.2422 138.119 15.4767 138.588 15.7112C139.057 16.1802 139.292 16.6492 139.292 17.5872C139.292 18.5252 139.057 19.2286 138.588 19.6976C138.119 20.1666 137.416 20.4011 136.478 20.4011Z" fill="#A799FF"/>
<path d="M159.46 18.9938C158.756 18.0558 157.818 17.1178 156.88 16.6488C155.708 16.1798 154.301 15.9453 152.894 15.9453C151.252 15.9453 150.08 16.1798 148.907 16.8833C147.735 17.5868 146.797 18.2903 146.093 19.4628C145.39 20.6353 145.155 21.8077 145.155 23.4492C145.155 25.0907 145.39 26.4977 146.093 27.6702C146.797 28.8427 147.735 29.5462 148.907 30.0152C150.08 30.4841 151.487 30.7186 153.128 30.7186C154.535 30.7186 155.942 30.4841 157.115 30.0152C158.287 29.5462 159.225 28.8427 159.694 28.1392C160.398 27.4357 160.632 26.4977 160.632 25.3252V25.0907H156.411V25.3252C156.411 26.0287 156.177 26.4977 155.708 26.7322C155.239 26.9667 154.301 27.2012 153.128 27.2012C151.721 27.2012 150.783 26.9667 150.08 26.4977C149.611 26.0287 149.376 25.3252 149.142 24.1527H160.632C160.632 23.9182 160.632 23.6837 160.632 23.4492C160.632 23.2147 160.632 22.9802 160.632 22.7457C160.398 21.3387 160.163 20.1663 159.46 18.9938ZM148.907 22.0422C148.907 21.3387 149.376 20.6353 149.611 20.1663C150.08 19.6973 151.252 19.4628 152.659 19.4628C154.066 19.4628 155.004 19.6973 155.473 20.1663C155.942 20.6353 156.177 21.3387 156.411 22.0422H148.907Z" fill="#A799FF"/>
<path d="M174.233 20.1663V20.4008L173.999 20.8698V23.2147H174.468L174.702 20.1663H174.233ZM173.999 23.4492V26.4977H174.468V23.4492H173.999ZM167.667 20.1663C168.371 19.9318 169.074 19.9318 170.012 19.9318C171.419 19.9318 172.357 20.1663 173.061 20.6353C173.53 21.1043 173.999 22.0422 173.999 23.2147H174.468L174.702 20.1663H173.999C173.764 18.7593 173.295 17.8213 172.123 17.1178C171.185 16.4143 170.012 15.9453 168.371 15.9453C166.964 15.9453 165.791 16.1798 164.619 16.8833C163.681 17.5868 162.743 18.2903 162.274 19.4628C161.805 20.6353 161.57 21.8077 161.57 23.4492C161.57 24.8562 161.805 26.2632 162.274 27.4357C162.743 28.6082 163.446 29.3117 164.619 30.0152C165.557 30.7186 166.729 30.9531 168.136 30.9531C169.778 30.9531 170.95 30.7186 171.888 29.7807C172.826 29.0772 173.295 28.1392 173.53 26.7322H174.233V23.4492H173.764C173.764 24.1527 173.53 24.8562 173.295 25.3252C173.061 25.7942 172.592 26.2632 171.888 26.4977C171.185 26.7322 170.481 26.7322 169.543 26.7322C168.605 26.7322 167.902 26.4977 167.198 26.4977C166.495 26.2632 166.26 25.7942 165.791 25.3252C165.557 24.8562 165.322 24.1527 165.322 23.2147C165.322 22.2767 165.557 21.5732 165.791 21.1043C166.495 20.8698 166.964 20.4008 167.667 20.1663Z" fill="#A799FF"/>
<path d="M178.219 16.1802V34.471C177.985 34.7055 177.047 34.94 176.109 34.94C175.171 34.94 174.233 34.7055 173.998 34.471V26.4981H174.467V23.4496H173.998V23.2151H174.467L174.702 20.1666H174.233V16.1802H178.219Z" fill="#A799FF"/>
<path d="M196.041 16.1802V29.781C195.807 30.0155 194.869 30.25 194.165 30.25C193.227 30.25 192.524 30.0155 192.055 29.781V26.0291H191.82C191.82 26.7326 191.351 27.436 191.117 28.1395C190.648 28.843 189.944 29.312 189.241 29.781C188.537 30.25 187.365 30.4845 186.193 30.4845C184.786 30.4845 183.848 30.25 182.91 29.781C181.972 29.312 181.268 28.6085 181.034 27.6705C180.799 26.7326 180.33 25.7946 180.33 24.8566V16.1802H184.551V23.6841C184.551 24.8566 184.786 25.5601 185.255 26.0291C185.724 26.4981 186.661 26.7326 188.068 26.7326C189.475 26.7326 190.413 26.4981 190.882 25.7946C191.351 25.3256 191.82 24.3876 191.82 23.2151V16.1802H196.041Z" fill="#A799FF"/>
<path d="M212.22 18.9938C211.517 18.0558 210.579 17.1178 209.641 16.6488C208.469 16.1798 207.062 15.9453 205.655 15.9453C204.013 15.9453 202.606 16.1798 201.434 16.8833C200.261 17.5868 199.323 18.2903 198.62 19.4628C197.916 20.6353 197.682 21.8077 197.682 23.4492C197.682 25.0907 197.916 26.4977 198.62 27.6702C199.323 28.8427 200.261 29.5462 201.434 30.0152C202.606 30.4841 204.013 30.7186 205.655 30.7186C207.062 30.7186 208.469 30.4841 209.641 30.0152C210.813 29.5462 211.517 28.8427 212.22 28.1392C212.924 27.4357 213.158 26.4977 213.158 25.3252V25.0907H208.703V25.3252C208.703 26.0287 208.469 26.4977 208 26.7322C207.531 26.9667 206.593 27.2012 205.42 27.2012C204.013 27.2012 203.075 26.9667 202.372 26.4977C201.903 26.0287 201.668 25.3252 201.668 24.1527H213.158C213.158 23.9182 213.158 23.6837 213.158 23.4492C213.158 23.2147 213.158 22.9802 213.158 22.7457C213.158 21.3387 212.689 20.1663 212.22 18.9938ZM201.668 22.0422C201.668 21.3387 201.903 20.6353 202.372 20.1663C202.841 19.6973 204.013 19.4628 205.42 19.4628C206.827 19.4628 207.765 19.6973 208.234 20.1663C208.703 20.4008 208.938 21.1043 208.938 22.0422H201.668Z" fill="#A799FF"/>
<path d="M228.871 26.2636C228.871 27.2015 228.636 27.905 227.933 28.6085C227.464 29.312 226.526 29.781 225.588 30.25C224.65 30.719 223.243 30.719 221.836 30.719C219.491 30.719 217.615 30.25 216.443 29.312C215.27 28.374 214.567 27.2015 214.567 25.5601H218.787V25.7946C218.787 26.4981 219.022 26.9671 219.491 26.9671C219.96 27.2016 220.663 27.2016 222.07 27.2016C223.243 27.2016 223.946 27.2016 224.415 26.9671C224.65 26.7326 224.884 26.4981 224.884 26.0291C224.884 25.5601 224.65 25.3256 224.415 25.3256C224.181 25.0911 223.712 25.0911 222.774 24.8566L218.787 24.3876C217.38 24.1531 216.208 23.9186 215.505 23.2151C214.801 22.5116 214.332 21.5736 214.332 20.4011C214.332 19.6976 214.567 18.7596 215.036 18.0562C215.505 17.3527 216.208 16.8837 217.38 16.4147C218.318 15.9457 219.725 15.7112 221.367 15.7112C223.008 15.7112 224.181 15.9457 225.353 16.4147C226.526 16.8837 227.229 17.3527 227.698 18.0562C228.167 18.5251 228.402 19.2286 228.402 19.9321V20.1666C228.402 20.6356 227.464 20.8701 226.291 20.8701C225.119 20.8701 224.181 20.6356 224.181 20.1666V19.9321C224.181 19.9321 224.181 19.9321 224.181 19.6976C223.946 19.4631 223.712 19.2286 223.243 18.9941C222.774 18.9941 222.07 18.7596 221.367 18.7596C220.429 18.7596 219.725 18.7596 219.256 18.9941C219.022 19.2286 218.787 19.4631 218.787 19.9321C218.787 20.1666 219.022 20.6356 219.256 20.6356C219.491 20.8701 220.194 20.8701 221.132 21.1046L224.181 21.5736C226.057 21.8081 227.464 22.2771 228.167 22.7461C228.402 24.1531 228.871 25.0911 228.871 26.2636Z" fill="#A799FF"/>
<path d="M229.339 16.1798V19.6973H240.36V16.1798H229.339ZM237.781 26.4977C237.077 26.4977 236.608 26.4977 236.139 26.2632C235.905 26.0287 235.67 25.5597 235.67 24.8562V13.6003H231.449V25.3252C231.449 27.2012 231.918 28.3737 232.856 29.3117C233.794 30.0152 234.967 30.4841 236.843 30.4841H240.36V26.7322H237.781V26.4977Z" fill="#A799FF"/>
<path d="M82.5434 24.8566C82.5434 25.7946 82.3089 26.7326 81.6054 27.6706C81.1364 28.6085 80.1984 29.312 79.0259 29.781C77.8534 30.25 76.2119 30.4845 74.1014 30.4845C72.2255 30.4845 70.584 30.25 69.177 29.781C67.77 29.312 66.832 28.6085 66.1285 27.6706C65.425 26.7326 64.9561 25.5601 64.9561 23.9186V23.6841H69.177V24.1531C69.177 24.6221 69.4115 25.0911 69.646 25.5601C69.8805 25.7946 70.3495 26.2636 71.053 26.2636C71.7565 26.4981 72.6945 26.4981 74.1014 26.4981C75.2739 26.4981 76.2119 26.4981 76.6809 26.2636C77.3844 26.2636 77.6189 26.0291 77.8534 25.7946C78.0879 25.5601 78.0879 25.0911 78.0879 24.8566C78.0879 24.3876 77.8534 23.9186 77.6189 23.6841C77.3844 23.4496 76.6809 23.2151 75.7429 23.2151L70.3495 22.5116C69.177 22.2771 68.239 22.0426 67.5355 21.5736C66.832 21.1046 66.1285 20.6356 65.6595 19.9321C65.1906 19.2286 64.9561 18.2907 64.9561 17.3527C64.9561 16.6492 65.1905 15.9457 65.425 15.2422C65.6595 14.5387 66.1285 13.8352 66.832 13.3662C67.5355 12.8972 68.4735 12.4282 69.4115 11.9592C70.584 11.7247 71.7565 11.4902 73.398 11.4902C75.2739 11.4902 76.9154 11.7247 78.0879 12.4282C79.2604 12.8972 80.1984 13.8352 80.9019 14.7732C81.3709 15.4767 81.6054 16.1802 81.8399 17.1182C81.8399 17.3527 81.8399 17.5872 81.8399 17.8217C81.3709 18.0562 80.6674 18.2907 79.4949 18.2907C78.7914 18.2907 78.0879 18.0562 77.6189 17.8217C77.6189 17.3527 77.6189 17.1182 77.3844 16.8837C77.3844 16.6492 77.1499 16.6492 77.1499 16.4147C76.9154 15.9457 76.4464 15.7112 75.7429 15.4767C75.0394 15.2422 74.1014 15.2422 72.929 15.2422C71.991 15.2422 71.053 15.2422 70.584 15.4767C70.115 15.7112 69.646 15.7112 69.4115 16.1802C69.177 16.4147 68.9425 16.8837 68.9425 17.1182C68.9425 17.5872 68.9425 17.8217 69.177 18.0562C69.4115 18.2907 69.646 18.5252 69.8805 18.5252C70.115 18.7597 70.584 18.7597 71.053 18.7597L76.4464 19.6976C77.8534 19.9321 79.0259 20.4011 79.7294 20.8701C81.1364 21.1046 81.6054 21.8081 82.0744 22.5116C82.3089 23.2151 82.5434 23.9186 82.5434 24.8566Z" fill="#A799FF"/>
<path d="M99.897 19.4628C99.428 18.2903 98.7245 17.5868 97.552 16.8833C96.614 16.1798 95.207 15.9453 93.8001 15.9453C92.1586 15.9453 90.7516 16.4143 89.8136 17.1178C89.1101 17.8213 88.6411 18.7593 88.4066 20.1663H87.7031L87.9376 23.2147H88.4066C88.4066 22.0422 88.8756 21.1043 89.5791 20.6353C90.2826 20.1663 91.2206 19.9318 92.6276 19.9318C93.5656 19.9318 94.269 19.9318 94.738 20.1663C95.207 20.4008 95.676 20.6353 96.145 21.1043C96.3795 21.5732 96.614 22.2767 96.614 23.2147C96.614 24.1527 96.3795 24.8562 96.145 25.3252C95.9105 25.7942 95.4415 26.2632 94.738 26.4977C94.0346 26.7322 93.3311 26.7322 92.3931 26.7322C91.4551 26.7322 90.7516 26.7322 90.0481 26.4977C89.3446 26.2632 88.8756 26.0287 88.6411 25.3252C88.4066 24.8562 88.1721 24.1527 88.1721 23.4492H87.7031V26.4977H88.4066C88.6411 27.6702 89.1101 28.8427 90.0481 29.5462C90.9861 30.2496 92.1586 30.7186 93.8001 30.7186C95.207 30.7186 96.3795 30.4841 97.3175 29.7807C98.2555 29.0772 98.959 28.3737 99.6625 27.2012C100.131 26.0287 100.366 24.8562 100.366 23.2147C100.835 21.8077 100.366 20.6353 99.897 19.4628ZM88.1721 20.4008V20.1663H87.7031L87.9376 23.2147H88.4066V20.8698L88.1721 20.4008ZM87.9376 23.4492V26.4977H88.4066V23.4492H87.9376Z" fill="#A799FF"/>
<path d="M87.9375 23.4496V26.4981H88.4065V34.7055C87.9375 34.94 87.234 35.1745 86.296 35.1745C85.358 35.1745 84.6545 34.94 84.1855 34.7055V16.1802H88.172V20.1666H87.703L87.9375 23.2151H88.4065V23.4496H87.9375Z" fill="#A799FF"/>
<path d="M106.463 16.1802V29.781C105.994 30.0155 105.291 30.25 104.353 30.25C103.415 30.25 102.711 30.0155 102.242 29.781V16.1802H106.463Z" fill="#A799FF"/>
<path d="M124.285 21.5732V30.0152C123.816 30.2496 123.113 30.4841 122.175 30.4841C121.237 30.4841 120.533 30.2496 120.064 30.0152V22.9802C120.064 21.8077 119.83 21.1043 119.361 20.4008C118.892 19.9318 117.954 19.6973 116.547 19.6973C115.14 19.6973 114.202 19.9318 113.733 20.6353C113.264 21.1043 113.03 22.0422 113.03 23.2147V29.7807C112.561 30.0152 111.857 30.2496 110.919 30.2496C109.981 30.2496 109.278 30.0152 108.809 29.7807V16.1798H112.561V20.6353H112.795C112.795 19.9318 113.264 18.9938 113.733 18.2903C114.202 17.5868 114.671 17.1178 115.609 16.6488C116.313 16.1798 117.485 15.9453 118.657 15.9453C119.83 15.9453 121.002 16.1798 121.94 16.6488C122.878 17.1178 123.347 17.8213 123.816 18.7593C124.051 19.6973 124.285 20.6353 124.285 21.5732Z" fill="#A799FF"/>
</svg>
