<svg width="25" height="24" viewBox="0 0 25 24" fill="none" xmlns="http://www.w3.org/2000/svg">
<path fill-rule="evenodd" clip-rule="evenodd" d="M11.7917 3.308C11.3977 3.822 10.9537 4.616 10.3077 5.774L9.98074 6.361L9.92174 6.467C9.62174 7.007 9.36674 7.465 8.95774 7.775C8.54474 8.089 8.04074 8.202 7.45474 8.334L7.34074 8.36L6.70474 8.504C5.44974 8.788 4.59474 8.983 4.01074 9.214C3.43974 9.438 3.31974 9.623 3.27374 9.77C3.22474 9.926 3.22374 10.165 3.56374 10.707C3.91074 11.257 4.49574 11.943 5.34974 12.943L5.78374 13.45L5.85874 13.537C6.26174 14.007 6.59774 14.399 6.75174 14.895C6.90474 15.388 6.85374 15.905 6.79174 16.533L6.78174 16.65L6.71574 17.327C6.58574 18.659 6.49974 19.577 6.52874 20.237C6.55874 20.897 6.69774 21.079 6.80874 21.163C6.90674 21.238 7.08874 21.32 7.68174 21.15C8.28474 20.978 9.08674 20.611 10.2617 20.07L10.8577 19.796L10.9667 19.746C11.5117 19.493 11.9837 19.275 12.4997 19.275C13.0157 19.275 13.4877 19.493 14.0327 19.745C14.069 19.7625 14.1057 19.7791 14.1427 19.795L14.7377 20.07C15.9127 20.611 16.7147 20.978 17.3177 21.15C17.9107 21.32 18.0927 21.238 18.1907 21.163C18.3017 21.079 18.4407 20.896 18.4707 20.237C18.5007 19.577 18.4127 18.659 18.2837 17.327L18.2177 16.65L18.2077 16.533C18.1457 15.905 18.0947 15.388 18.2477 14.895C18.4017 14.399 18.7377 14.007 19.1407 13.537L19.2157 13.45L19.6497 12.943C20.5037 11.943 21.0887 11.257 21.4347 10.707C21.7757 10.165 21.7747 9.927 21.7257 9.77C21.6797 9.623 21.5597 9.438 20.9887 9.214C20.4037 8.983 19.5497 8.788 18.2947 8.504L17.6587 8.36C17.6197 8.35 17.5817 8.342 17.5447 8.334C16.9587 8.202 16.4547 8.089 16.0417 7.775C15.6317 7.465 15.3787 7.008 15.0777 6.467L15.0197 6.361L14.6917 5.774C14.0457 4.616 13.6017 3.822 13.2077 3.308C12.8147 2.794 12.6137 2.75 12.4997 2.75C12.3857 2.75 12.1847 2.794 11.7917 3.308ZM10.6017 2.396C11.0767 1.774 11.6657 1.25 12.4997 1.25C13.3337 1.25 13.9217 1.774 14.3987 2.396C14.8667 3.008 15.3637 3.899 15.9707 4.988L16.3297 5.631C16.7217 6.335 16.8227 6.485 16.9487 6.581C17.0687 6.672 17.2257 6.724 17.9887 6.897L18.6887 7.055C19.8647 7.321 20.8337 7.54 21.5387 7.818C22.2707 8.107 22.9117 8.532 23.1587 9.325C23.4027 10.11 23.1287 10.832 22.7047 11.505C22.2927 12.16 21.6347 12.93 20.8307 13.87L20.3557 14.425C19.8387 15.029 19.7307 15.177 19.6797 15.34C19.6287 15.507 19.6327 15.7 19.7117 16.505L19.7827 17.243C19.9047 18.499 20.0037 19.523 19.9687 20.303C19.9337 21.098 19.7537 21.86 19.0987 22.358C18.4307 22.864 17.6537 22.808 16.9037 22.592C16.1767 22.384 15.2707 21.967 14.1707 21.46L13.5147 21.158C12.7967 20.828 12.6437 20.775 12.4997 20.775C12.3557 20.775 12.2027 20.828 11.4847 21.158L10.8297 21.46C9.72874 21.967 8.82274 22.384 8.09574 22.592C7.34574 22.807 6.56874 22.864 5.90174 22.358C5.24574 21.86 5.06574 21.098 5.03074 20.304C4.99574 19.524 5.09474 18.499 5.21674 17.244L5.28874 16.505C5.36674 15.699 5.37074 15.507 5.31874 15.34C5.26874 15.177 5.16074 15.03 4.64374 14.425L4.16874 13.87C3.36574 12.93 2.70774 12.16 2.29574 11.506C1.87074 10.832 1.59674 10.11 1.84074 9.325C2.08774 8.532 2.72874 8.107 3.46074 7.818C4.16574 7.54 5.13474 7.321 6.31074 7.055L6.37374 7.041L7.00974 6.897C7.77374 6.724 7.92974 6.672 8.05074 6.58C8.17674 6.485 8.27774 6.335 8.67074 5.631L9.02874 4.988C9.63574 3.898 10.1327 3.008 10.6007 2.396" fill="#C3C3C3"/>
</svg>
