<svg width="22" height="24" viewBox="0 0 22 24" fill="none" xmlns="http://www.w3.org/2000/svg">
<path d="M19.0765 5.13232C18.9145 5.04854 18.7568 4.9567 18.604 4.85714C18.16 4.56354 17.7528 4.21763 17.3913 3.82684C16.4858 2.7912 16.1477 1.74064 16.024 1.00577H16.0283C15.9248 0.39463 15.9675 0 15.9749 0H11.8527V15.9377C11.8527 16.151 11.8527 16.3633 11.8441 16.5723C11.8441 16.5979 11.8409 16.6214 11.8399 16.6502C11.8399 16.6608 11.8399 16.6736 11.8367 16.6854V16.695C11.7934 17.2667 11.6102 17.819 11.3034 18.3033C10.9965 18.7876 10.5753 19.189 10.0768 19.4723C9.5568 19.7682 8.96861 19.9233 8.37032 19.9224C6.4505 19.9224 4.89331 18.3567 4.89331 16.423C4.89331 14.4882 6.4505 12.9225 8.37032 12.9225C8.73402 12.9225 9.09558 12.9801 9.44115 13.0932L9.44648 8.89517C8.397 8.75977 7.33083 8.8434 6.3153 9.14079C5.29976 9.43818 4.3569 9.94287 3.54624 10.623C2.83575 11.2401 2.2384 11.9764 1.78107 12.7988C1.60722 13.0985 0.950213 14.3048 0.871287 16.2609C0.821158 17.3701 1.15499 18.522 1.31391 18.9966V19.0073C1.4131 19.2867 1.80133 20.2424 2.43274 21.0476C2.94191 21.694 3.54352 22.2618 4.21817 22.7328V22.7221L4.22777 22.7328C6.22225 24.0873 8.43538 23.9988 8.43538 23.9988C8.81828 23.9828 10.1014 23.9988 11.5583 23.3087C13.1741 22.543 14.0935 21.4028 14.0935 21.4028C14.6813 20.7214 15.1488 19.9448 15.4758 19.1065C15.8491 18.1252 15.9728 16.9499 15.9728 16.4806V8.02378C16.0229 8.05365 16.6895 8.49414 16.6895 8.49414C16.6895 8.49414 17.6494 9.10955 19.1458 9.50951C20.2188 9.79428 21.6661 9.85508 21.6661 9.85508V5.76266C21.1595 5.81812 20.1303 5.65814 19.0754 5.13339L19.0765 5.13232Z" fill="#C3C3C3"/>
</svg>
