<svg width="25" height="24" viewBox="0 0 25 24" fill="none" xmlns="http://www.w3.org/2000/svg">
<path d="M12.8662 0C6.23943 0 0.866211 5.37321 0.866211 12C0.866211 18.6268 6.23943 24 12.8662 24C19.493 24 24.8662 18.6268 24.8662 12C24.8662 5.37321 19.493 0 12.8662 0ZM18.6332 9.04554C18.6412 9.17143 18.6412 9.30268 18.6412 9.43125C18.6412 13.3634 15.6466 17.8929 10.1742 17.8929C8.48675 17.8929 6.92246 17.4027 5.6046 16.5589C5.84567 16.5857 6.07603 16.5964 6.32246 16.5964C7.71532 16.5964 8.99568 16.125 10.0162 15.3268C8.70907 15.3 7.61085 14.4429 7.23585 13.2643C7.69389 13.3313 8.10639 13.3313 8.57782 13.2107C7.90476 13.074 7.2998 12.7084 6.86572 12.1762C6.43163 11.644 6.19519 10.9779 6.19657 10.2911V10.2536C6.59032 10.4759 7.05371 10.6125 7.53853 10.6313C7.13097 10.3596 6.79672 9.99164 6.56544 9.5599C6.33415 9.12817 6.21297 8.64603 6.21264 8.15625C6.21264 7.60179 6.35728 7.09554 6.6171 6.65625C7.36416 7.5759 8.29638 8.32806 9.35317 8.86384C10.41 9.39961 11.5677 9.70702 12.751 9.76607C12.3305 7.74375 13.8412 6.10714 15.6573 6.10714C16.5144 6.10714 17.2859 6.46607 17.8296 7.04464C18.5019 6.91875 19.1448 6.66696 19.718 6.32946C19.4957 7.01786 19.0296 7.59911 18.4109 7.96607C19.0109 7.90179 19.5894 7.73571 20.1251 7.50268C19.7207 8.09732 19.2144 8.625 18.6332 9.04554Z" fill="#C3C3C3"/>
</svg>
