<svg width="25" height="24" viewBox="0 0 25 24" fill="none" xmlns="http://www.w3.org/2000/svg">
<path d="M12.8632 7.9983C10.6597 7.9983 8.86151 9.79651 8.86151 12C8.86151 14.2035 10.6597 16.0017 12.8632 16.0017C15.0667 16.0017 16.8649 14.2035 16.8649 12C16.8649 9.79651 15.0667 7.9983 12.8632 7.9983ZM24.8653 12C24.8653 10.3429 24.8803 8.70077 24.7873 7.04665C24.6942 5.12536 24.2559 3.4202 22.851 2.01525C21.443 0.607302 19.7409 0.172008 17.8196 0.0789456C16.1624 -0.0141173 14.5203 0.000892936 12.8662 0.000892936C11.2091 0.000892936 9.56698 -0.0141173 7.91286 0.0789456C5.99157 0.172008 4.28641 0.610305 2.88146 2.01525C1.47351 3.42321 1.03822 5.12536 0.945157 7.04665C0.852094 8.70377 0.867104 10.3459 0.867104 12C0.867104 13.6541 0.852094 15.2992 0.945157 16.9533C1.03822 18.8746 1.47652 20.5798 2.88146 21.9847C4.28942 23.3927 5.99157 23.828 7.91286 23.9211C9.56998 24.0141 11.2121 23.9991 12.8662 23.9991C14.5233 23.9991 16.1654 24.0141 17.8196 23.9211C19.7409 23.828 21.446 23.3897 22.851 21.9847C24.2589 20.5768 24.6942 18.8746 24.7873 16.9533C24.8833 15.2992 24.8653 13.6571 24.8653 12ZM12.8632 18.1572C9.45591 18.1572 6.70605 15.4073 6.70605 12C6.70605 8.5927 9.45591 5.84284 12.8632 5.84284C16.2705 5.84284 19.0204 8.5927 19.0204 12C19.0204 15.4073 16.2705 18.1572 12.8632 18.1572ZM19.2725 7.02864C18.477 7.02864 17.8346 6.38621 17.8346 5.59067C17.8346 4.79513 18.477 4.1527 19.2725 4.1527C20.0681 4.1527 20.7105 4.79513 20.7105 5.59067C20.7107 5.77957 20.6737 5.96667 20.6015 6.14124C20.5294 6.31581 20.4234 6.47442 20.2899 6.608C20.1563 6.74157 19.9977 6.84748 19.8231 6.91967C19.6485 6.99185 19.4614 7.02888 19.2725 7.02864Z" fill="#C3C3C3"/>
</svg>
