<svg width="33" height="32" viewBox="0 0 33 32" fill="none" xmlns="http://www.w3.org/2000/svg">
<g filter="url(#filter0_ii_10_252)">
<path d="M9.66638 3.367C10.1024 3.0519 10.6148 2.85923 11.1504 2.809C11.1894 2.80641 11.2275 2.79595 11.2624 2.77825C11.2973 2.76055 11.3282 2.73597 11.3534 2.706C11.7504 2.23 12.2064 2.086 12.5804 2.086C13.1444 2.086 13.5124 2.286 13.6504 2.375C13.9404 2.563 14.1354 2.688 14.5654 2.805C14.9954 2.922 15.9004 4.156 16.1664 4.555C16.4324 4.953 16.3064 5.335 16.3064 5.57C16.3064 5.805 16.4634 5.883 16.5104 6.32C16.5444 6.636 16.4204 7.026 16.3334 7.23C16.3258 7.24806 16.3233 7.26784 16.3261 7.28722C16.329 7.30659 16.337 7.32484 16.3494 7.34C16.9734 8.12 16.7824 9.395 16.6044 9.945H12.9634V12.289C12.3174 12.872 10.5884 13.977 8.83838 13.727C6.65038 13.414 4.82238 11.195 5.43238 8.914C5.87838 7.244 7.43038 6.546 8.33738 6.36C8.40131 6.3474 8.45863 6.31235 8.49898 6.26119C8.53933 6.21002 8.56004 6.14611 8.55738 6.081C8.49538 4.828 8.76938 4.014 9.66738 3.367" fill="url(#paint0_radial_10_252)"/>
<path d="M9.66638 3.367C10.1024 3.0519 10.6148 2.85923 11.1504 2.809C11.1894 2.80641 11.2275 2.79595 11.2624 2.77825C11.2973 2.76055 11.3282 2.73597 11.3534 2.706C11.7504 2.23 12.2064 2.086 12.5804 2.086C13.1444 2.086 13.5124 2.286 13.6504 2.375C13.9404 2.563 14.1354 2.688 14.5654 2.805C14.9954 2.922 15.9004 4.156 16.1664 4.555C16.4324 4.953 16.3064 5.335 16.3064 5.57C16.3064 5.805 16.4634 5.883 16.5104 6.32C16.5444 6.636 16.4204 7.026 16.3334 7.23C16.3258 7.24806 16.3233 7.26784 16.3261 7.28722C16.329 7.30659 16.337 7.32484 16.3494 7.34C16.9734 8.12 16.7824 9.395 16.6044 9.945H12.9634V12.289C12.3174 12.872 10.5884 13.977 8.83838 13.727C6.65038 13.414 4.82238 11.195 5.43238 8.914C5.87838 7.244 7.43038 6.546 8.33738 6.36C8.40131 6.3474 8.45863 6.31235 8.49898 6.26119C8.53933 6.21002 8.56004 6.14611 8.55738 6.081C8.49538 4.828 8.76938 4.014 9.66738 3.367" fill="url(#paint1_radial_10_252)"/>
<path d="M9.66638 3.367C10.1024 3.0519 10.6148 2.85923 11.1504 2.809C11.1894 2.80641 11.2275 2.79595 11.2624 2.77825C11.2973 2.76055 11.3282 2.73597 11.3534 2.706C11.7504 2.23 12.2064 2.086 12.5804 2.086C13.1444 2.086 13.5124 2.286 13.6504 2.375C13.9404 2.563 14.1354 2.688 14.5654 2.805C14.9954 2.922 15.9004 4.156 16.1664 4.555C16.4324 4.953 16.3064 5.335 16.3064 5.57C16.3064 5.805 16.4634 5.883 16.5104 6.32C16.5444 6.636 16.4204 7.026 16.3334 7.23C16.3258 7.24806 16.3233 7.26784 16.3261 7.28722C16.329 7.30659 16.337 7.32484 16.3494 7.34C16.9734 8.12 16.7824 9.395 16.6044 9.945H12.9634V12.289C12.3174 12.872 10.5884 13.977 8.83838 13.727C6.65038 13.414 4.82238 11.195 5.43238 8.914C5.87838 7.244 7.43038 6.546 8.33738 6.36C8.40131 6.3474 8.45863 6.31235 8.49898 6.26119C8.53933 6.21002 8.56004 6.14611 8.55738 6.081C8.49538 4.828 8.76938 4.014 9.66738 3.367" fill="url(#paint2_radial_10_252)"/>
<path d="M9.66638 3.367C10.1024 3.0519 10.6148 2.85923 11.1504 2.809C11.1894 2.80641 11.2275 2.79595 11.2624 2.77825C11.2973 2.76055 11.3282 2.73597 11.3534 2.706C11.7504 2.23 12.2064 2.086 12.5804 2.086C13.1444 2.086 13.5124 2.286 13.6504 2.375C13.9404 2.563 14.1354 2.688 14.5654 2.805C14.9954 2.922 15.9004 4.156 16.1664 4.555C16.4324 4.953 16.3064 5.335 16.3064 5.57C16.3064 5.805 16.4634 5.883 16.5104 6.32C16.5444 6.636 16.4204 7.026 16.3334 7.23C16.3258 7.24806 16.3233 7.26784 16.3261 7.28722C16.329 7.30659 16.337 7.32484 16.3494 7.34C16.9734 8.12 16.7824 9.395 16.6044 9.945H12.9634V12.289C12.3174 12.872 10.5884 13.977 8.83838 13.727C6.65038 13.414 4.82238 11.195 5.43238 8.914C5.87838 7.244 7.43038 6.546 8.33738 6.36C8.40131 6.3474 8.45863 6.31235 8.49898 6.26119C8.53933 6.21002 8.56004 6.14611 8.55738 6.081C8.49538 4.828 8.76938 4.014 9.66738 3.367" fill="url(#paint3_radial_10_252)"/>
<path d="M9.66638 3.367C10.1024 3.0519 10.6148 2.85923 11.1504 2.809C11.1894 2.80641 11.2275 2.79595 11.2624 2.77825C11.2973 2.76055 11.3282 2.73597 11.3534 2.706C11.7504 2.23 12.2064 2.086 12.5804 2.086C13.1444 2.086 13.5124 2.286 13.6504 2.375C13.9404 2.563 14.1354 2.688 14.5654 2.805C14.9954 2.922 15.9004 4.156 16.1664 4.555C16.4324 4.953 16.3064 5.335 16.3064 5.57C16.3064 5.805 16.4634 5.883 16.5104 6.32C16.5444 6.636 16.4204 7.026 16.3334 7.23C16.3258 7.24806 16.3233 7.26784 16.3261 7.28722C16.329 7.30659 16.337 7.32484 16.3494 7.34C16.9734 8.12 16.7824 9.395 16.6044 9.945H12.9634V12.289C12.3174 12.872 10.5884 13.977 8.83838 13.727C6.65038 13.414 4.82238 11.195 5.43238 8.914C5.87838 7.244 7.43038 6.546 8.33738 6.36C8.40131 6.3474 8.45863 6.31235 8.49898 6.26119C8.53933 6.21002 8.56004 6.14611 8.55738 6.081C8.49538 4.828 8.76938 4.014 9.66738 3.367" fill="url(#paint4_radial_10_252)"/>
</g>
<path d="M9.66638 3.367C10.1024 3.0519 10.6148 2.85923 11.1504 2.809C11.1894 2.80641 11.2275 2.79595 11.2624 2.77825C11.2973 2.76055 11.3282 2.73597 11.3534 2.706C11.7504 2.23 12.2064 2.086 12.5804 2.086C13.1444 2.086 13.5124 2.286 13.6504 2.375C13.9404 2.563 14.1354 2.688 14.5654 2.805C14.9954 2.922 15.9004 4.156 16.1664 4.555C16.4324 4.953 16.3064 5.335 16.3064 5.57C16.3064 5.805 16.4634 5.883 16.5104 6.32C16.5444 6.636 16.4204 7.026 16.3334 7.23C16.3258 7.24806 16.3233 7.26784 16.3261 7.28722C16.329 7.30659 16.337 7.32484 16.3494 7.34C16.9734 8.12 16.7824 9.395 16.6044 9.945H12.9634V12.289C12.3174 12.872 10.5884 13.977 8.83838 13.727C6.65038 13.414 4.82238 11.195 5.43238 8.914C5.87838 7.244 7.43038 6.546 8.33738 6.36C8.40131 6.3474 8.45863 6.31235 8.49898 6.26119C8.53933 6.21002 8.56004 6.14611 8.55738 6.081C8.49538 4.828 8.76938 4.014 9.66738 3.367" fill="url(#paint5_radial_10_252)"/>
<path d="M16.2014 29.914H7.62137C6.79837 29.732 5.15137 29.064 5.15137 27.854C5.15137 26.34 6.49637 25.34 6.40137 25.278C6.32737 25.228 9.42637 22.853 10.9844 21.672L24.0294 16.092C24.8994 15.395 26.8254 14.011 27.5644 14.055C28.3024 14.098 28.5854 15.062 28.6344 15.538V21.071C28.6344 21.992 28.3304 23.022 27.6494 23.475C26.9694 23.928 26.4374 23.818 25.3894 23.818C24.2164 23.818 23.9354 24.154 23.4814 25.567C23.1184 26.697 22.4964 26.948 21.5814 26.948H20.3924C19.5874 26.948 19.0474 27.12 18.5944 28.618C18.1944 29.698 17.1864 29.914 16.2014 29.914Z" fill="url(#paint6_linear_10_252)"/>
<path d="M16.2014 29.914H7.62137C6.79837 29.732 5.15137 29.064 5.15137 27.854C5.15137 26.34 6.49637 25.34 6.40137 25.278C6.32737 25.228 9.42637 22.853 10.9844 21.672L24.0294 16.092C24.8994 15.395 26.8254 14.011 27.5644 14.055C28.3024 14.098 28.5854 15.062 28.6344 15.538V21.071C28.6344 21.992 28.3304 23.022 27.6494 23.475C26.9694 23.928 26.4374 23.818 25.3894 23.818C24.2164 23.818 23.9354 24.154 23.4814 25.567C23.1184 26.697 22.4964 26.948 21.5814 26.948H20.3924C19.5874 26.948 19.0474 27.12 18.5944 28.618C18.1944 29.698 17.1864 29.914 16.2014 29.914Z" fill="url(#paint7_linear_10_252)"/>
<path d="M16.2014 29.914H7.62137C6.79837 29.732 5.15137 29.064 5.15137 27.854C5.15137 26.34 6.49637 25.34 6.40137 25.278C6.32737 25.228 9.42637 22.853 10.9844 21.672L24.0294 16.092C24.8994 15.395 26.8254 14.011 27.5644 14.055C28.3024 14.098 28.5854 15.062 28.6344 15.538V21.071C28.6344 21.992 28.3304 23.022 27.6494 23.475C26.9694 23.928 26.4374 23.818 25.3894 23.818C24.2164 23.818 23.9354 24.154 23.4814 25.567C23.1184 26.697 22.4964 26.948 21.5814 26.948H20.3924C19.5874 26.948 19.0474 27.12 18.5944 28.618C18.1944 29.698 17.1864 29.914 16.2014 29.914Z" fill="url(#paint8_radial_10_252)"/>
<g filter="url(#filter1_i_10_252)">
<path d="M20.0718 28.71L17.3848 23.18L19.2358 21.61L22.7768 29.743C22.7834 29.7582 22.7862 29.7749 22.7848 29.7915C22.7833 29.808 22.7778 29.824 22.7687 29.8379C22.7595 29.8518 22.7471 29.8632 22.7324 29.8711C22.7178 29.879 22.7014 29.883 22.6848 29.883H21.9158C20.9038 29.883 20.3218 29.297 20.0718 28.711" fill="#FFC63E"/>
</g>
<g filter="url(#filter2_i_10_252)">
<path d="M19.501 27.535L20.072 28.711C20.322 29.297 20.904 29.883 21.916 29.883H22.686C22.7025 29.8829 22.7188 29.8787 22.7333 29.8707C22.7478 29.8628 22.7601 29.8514 22.7692 29.8375C22.7782 29.8236 22.7836 29.8077 22.785 29.7912C22.7863 29.7747 22.7836 29.7581 22.777 29.743L22.149 28.299L19.501 27.535Z" fill="#FF444F"/>
</g>
<path d="M8.61113 27.91L9.33013 26.46L11.8851 26.422L9.96613 29.631C9.80913 29.894 9.47213 30.002 9.21513 29.833C8.74013 29.52 8.47413 29.151 8.43113 28.793C8.40622 28.4872 8.46864 28.1817 8.61113 27.91Z" fill="url(#paint9_linear_10_252)"/>
<path d="M8.61506 27.901L8.61106 27.909C8.46876 28.1804 8.40634 28.4866 8.43106 28.792C8.47406 29.152 8.74006 29.519 9.21506 29.832C9.47206 30.002 9.80906 29.894 9.96606 29.631L11.0001 27.901H8.61506Z" fill="url(#paint10_radial_10_252)"/>
<g filter="url(#filter3_ii_10_252)">
<path d="M19.0545 8.50792H14.9395L15.4935 10.7109H19.0015C20.4875 10.7109 21.3765 9.64892 21.2985 8.05492L21.2225 5.71492C21.2217 5.69169 21.229 5.66892 21.243 5.65037C21.257 5.63182 21.2769 5.61861 21.2995 5.61292C21.5045 5.55992 21.8595 5.45892 22.0835 5.39892C22.2844 5.3397 22.4619 5.21949 22.5915 5.05492L23.0975 4.31092C23.1782 4.19065 23.2079 4.04321 23.1799 3.90106C23.152 3.75891 23.0687 3.63368 22.9485 3.55292C22.8282 3.47216 22.6807 3.44249 22.5386 3.47043C22.3964 3.49838 22.2712 3.58165 22.1905 3.70192L21.8965 4.14492C21.8784 4.17267 21.8527 4.19457 21.8225 4.20792C21.4275 4.37592 20.9185 4.38092 20.6855 4.37092L20.9655 4.10292C21.0637 4.00747 21.1215 3.87783 21.1267 3.74092C21.132 3.60401 21.0843 3.47035 20.9936 3.36767C20.9028 3.26499 20.7761 3.20119 20.6396 3.1895C20.5031 3.17782 20.3673 3.21915 20.2605 3.30492L19.8605 3.63292C19.7285 3.75292 19.4435 4.08092 19.3685 4.43792C19.3243 4.68776 19.3149 4.9425 19.3405 5.19492C19.3535 5.34692 19.3645 5.49892 19.3555 5.64992L19.2055 8.36592C19.2034 8.4043 19.1867 8.44043 19.1588 8.46685C19.1309 8.49328 19.0929 8.50798 19.0545 8.50792Z" fill="#FFBC30"/>
</g>
<path d="M19.0545 8.50792H14.9395L15.4935 10.7109H19.0015C20.4875 10.7109 21.3765 9.64892 21.2985 8.05492L21.2225 5.71492C21.2217 5.69169 21.229 5.66892 21.243 5.65037C21.257 5.63182 21.2769 5.61861 21.2995 5.61292C21.5045 5.55992 21.8595 5.45892 22.0835 5.39892C22.2844 5.3397 22.4619 5.21949 22.5915 5.05492L23.0975 4.31092C23.1782 4.19065 23.2079 4.04321 23.1799 3.90106C23.152 3.75891 23.0687 3.63368 22.9485 3.55292C22.8282 3.47216 22.6807 3.44249 22.5386 3.47043C22.3964 3.49838 22.2712 3.58165 22.1905 3.70192L21.8965 4.14492C21.8784 4.17267 21.8527 4.19457 21.8225 4.20792C21.4275 4.37592 20.9185 4.38092 20.6855 4.37092L20.9655 4.10292C21.0637 4.00747 21.1215 3.87783 21.1267 3.74092C21.132 3.60401 21.0843 3.47035 20.9936 3.36767C20.9028 3.26499 20.7761 3.20119 20.6396 3.1895C20.5031 3.17782 20.3673 3.21915 20.2605 3.30492L19.8605 3.63292C19.7285 3.75292 19.4435 4.08092 19.3685 4.43792C19.3243 4.68776 19.3149 4.9425 19.3405 5.19492C19.3535 5.34692 19.3645 5.49892 19.3555 5.64992L19.2055 8.36592C19.2034 8.4043 19.1867 8.44043 19.1588 8.46685C19.1309 8.49328 19.0929 8.50798 19.0545 8.50792Z" fill="url(#paint11_radial_10_252)"/>
<path d="M19.0545 8.50792H14.9395L15.4935 10.7109H19.0015C20.4875 10.7109 21.3765 9.64892 21.2985 8.05492L21.2225 5.71492C21.2217 5.69169 21.229 5.66892 21.243 5.65037C21.257 5.63182 21.2769 5.61861 21.2995 5.61292C21.5045 5.55992 21.8595 5.45892 22.0835 5.39892C22.2844 5.3397 22.4619 5.21949 22.5915 5.05492L23.0975 4.31092C23.1782 4.19065 23.2079 4.04321 23.1799 3.90106C23.152 3.75891 23.0687 3.63368 22.9485 3.55292C22.8282 3.47216 22.6807 3.44249 22.5386 3.47043C22.3964 3.49838 22.2712 3.58165 22.1905 3.70192L21.8965 4.14492C21.8784 4.17267 21.8527 4.19457 21.8225 4.20792C21.4275 4.37592 20.9185 4.38092 20.6855 4.37092L20.9655 4.10292C21.0637 4.00747 21.1215 3.87783 21.1267 3.74092C21.132 3.60401 21.0843 3.47035 20.9936 3.36767C20.9028 3.26499 20.7761 3.20119 20.6396 3.1895C20.5031 3.17782 20.3673 3.21915 20.2605 3.30492L19.8605 3.63292C19.7285 3.75292 19.4435 4.08092 19.3685 4.43792C19.3243 4.68776 19.3149 4.9425 19.3405 5.19492C19.3535 5.34692 19.3645 5.49892 19.3555 5.64992L19.2055 8.36592C19.2034 8.4043 19.1867 8.44043 19.1588 8.46685C19.1309 8.49328 19.0929 8.50798 19.0545 8.50792Z" fill="url(#paint12_radial_10_252)"/>
<path d="M19.0545 8.50792H14.9395L15.4935 10.7109H19.0015C20.4875 10.7109 21.3765 9.64892 21.2985 8.05492L21.2225 5.71492C21.2217 5.69169 21.229 5.66892 21.243 5.65037C21.257 5.63182 21.2769 5.61861 21.2995 5.61292C21.5045 5.55992 21.8595 5.45892 22.0835 5.39892C22.2844 5.3397 22.4619 5.21949 22.5915 5.05492L23.0975 4.31092C23.1782 4.19065 23.2079 4.04321 23.1799 3.90106C23.152 3.75891 23.0687 3.63368 22.9485 3.55292C22.8282 3.47216 22.6807 3.44249 22.5386 3.47043C22.3964 3.49838 22.2712 3.58165 22.1905 3.70192L21.8965 4.14492C21.8784 4.17267 21.8527 4.19457 21.8225 4.20792C21.4275 4.37592 20.9185 4.38092 20.6855 4.37092L20.9655 4.10292C21.0637 4.00747 21.1215 3.87783 21.1267 3.74092C21.132 3.60401 21.0843 3.47035 20.9936 3.36767C20.9028 3.26499 20.7761 3.20119 20.6396 3.1895C20.5031 3.17782 20.3673 3.21915 20.2605 3.30492L19.8605 3.63292C19.7285 3.75292 19.4435 4.08092 19.3685 4.43792C19.3243 4.68776 19.3149 4.9425 19.3405 5.19492C19.3535 5.34692 19.3645 5.49892 19.3555 5.64992L19.2055 8.36592C19.2034 8.4043 19.1867 8.44043 19.1588 8.46685C19.1309 8.49328 19.0929 8.50798 19.0545 8.50792Z" fill="url(#paint13_radial_10_252)"/>
<path d="M19.0545 8.50792H14.9395L15.4935 10.7109H19.0015C20.4875 10.7109 21.3765 9.64892 21.2985 8.05492L21.2225 5.71492C21.2217 5.69169 21.229 5.66892 21.243 5.65037C21.257 5.63182 21.2769 5.61861 21.2995 5.61292C21.5045 5.55992 21.8595 5.45892 22.0835 5.39892C22.2844 5.3397 22.4619 5.21949 22.5915 5.05492L23.0975 4.31092C23.1782 4.19065 23.2079 4.04321 23.1799 3.90106C23.152 3.75891 23.0687 3.63368 22.9485 3.55292C22.8282 3.47216 22.6807 3.44249 22.5386 3.47043C22.3964 3.49838 22.2712 3.58165 22.1905 3.70192L21.8965 4.14492C21.8784 4.17267 21.8527 4.19457 21.8225 4.20792C21.4275 4.37592 20.9185 4.38092 20.6855 4.37092L20.9655 4.10292C21.0637 4.00747 21.1215 3.87783 21.1267 3.74092C21.132 3.60401 21.0843 3.47035 20.9936 3.36767C20.9028 3.26499 20.7761 3.20119 20.6396 3.1895C20.5031 3.17782 20.3673 3.21915 20.2605 3.30492L19.8605 3.63292C19.7285 3.75292 19.4435 4.08092 19.3685 4.43792C19.3243 4.68776 19.3149 4.9425 19.3405 5.19492C19.3535 5.34692 19.3645 5.49892 19.3555 5.64992L19.2055 8.36592C19.2034 8.4043 19.1867 8.44043 19.1588 8.46685C19.1309 8.49328 19.0929 8.50798 19.0545 8.50792Z" fill="url(#paint14_radial_10_252)"/>
<g filter="url(#filter4_i_10_252)">
<path d="M10.3694 14.5401V16.2101L16.1044 16.0551C15.7294 14.5001 15.7364 12.7971 15.8934 12.4151C16.0494 12.0311 16.3464 11.6411 16.3694 11.1251C16.3934 10.6091 16.1974 10.1251 15.8934 9.64107C15.7452 9.38834 15.6296 9.11785 15.5494 8.83607C15.5176 8.72354 15.4507 8.62411 15.3584 8.55232C15.2661 8.48053 15.1533 8.44015 15.0364 8.43707H14.2684C14.2004 8.43707 14.1594 8.52707 14.0994 8.55907L13.1434 9.05507L11.9394 8.43807C11.0334 8.47707 9.86139 8.69507 9.63539 9.00007C9.40839 9.30507 9.38539 10.0081 9.54139 10.8831C9.69739 11.7581 9.97139 12.6951 10.1894 13.2431C10.3644 13.6801 10.3824 14.2891 10.3694 14.5391" fill="url(#paint15_radial_10_252)"/>
<path d="M10.3694 14.5401V16.2101L16.1044 16.0551C15.7294 14.5001 15.7364 12.7971 15.8934 12.4151C16.0494 12.0311 16.3464 11.6411 16.3694 11.1251C16.3934 10.6091 16.1974 10.1251 15.8934 9.64107C15.7452 9.38834 15.6296 9.11785 15.5494 8.83607C15.5176 8.72354 15.4507 8.62411 15.3584 8.55232C15.2661 8.48053 15.1533 8.44015 15.0364 8.43707H14.2684C14.2004 8.43707 14.1594 8.52707 14.0994 8.55907L13.1434 9.05507L11.9394 8.43807C11.0334 8.47707 9.86139 8.69507 9.63539 9.00007C9.40839 9.30507 9.38539 10.0081 9.54139 10.8831C9.69739 11.7581 9.97139 12.6951 10.1894 13.2431C10.3644 13.6801 10.3824 14.2891 10.3694 14.5391" fill="url(#paint16_radial_10_252)"/>
<path d="M10.3694 14.5401V16.2101L16.1044 16.0551C15.7294 14.5001 15.7364 12.7971 15.8934 12.4151C16.0494 12.0311 16.3464 11.6411 16.3694 11.1251C16.3934 10.6091 16.1974 10.1251 15.8934 9.64107C15.7452 9.38834 15.6296 9.11785 15.5494 8.83607C15.5176 8.72354 15.4507 8.62411 15.3584 8.55232C15.2661 8.48053 15.1533 8.44015 15.0364 8.43707H14.2684C14.2004 8.43707 14.1594 8.52707 14.0994 8.55907L13.1434 9.05507L11.9394 8.43807C11.0334 8.47707 9.86139 8.69507 9.63539 9.00007C9.40839 9.30507 9.38539 10.0081 9.54139 10.8831C9.69739 11.7581 9.97139 12.6951 10.1894 13.2431C10.3644 13.6801 10.3824 14.2891 10.3694 14.5391" fill="url(#paint17_radial_10_252)"/>
<path d="M10.3694 14.5401V16.2101L16.1044 16.0551C15.7294 14.5001 15.7364 12.7971 15.8934 12.4151C16.0494 12.0311 16.3464 11.6411 16.3694 11.1251C16.3934 10.6091 16.1974 10.1251 15.8934 9.64107C15.7452 9.38834 15.6296 9.11785 15.5494 8.83607C15.5176 8.72354 15.4507 8.62411 15.3584 8.55232C15.2661 8.48053 15.1533 8.44015 15.0364 8.43707H14.2684C14.2004 8.43707 14.1594 8.52707 14.0994 8.55907L13.1434 9.05507L11.9394 8.43807C11.0334 8.47707 9.86139 8.69507 9.63539 9.00007C9.40839 9.30507 9.38539 10.0081 9.54139 10.8831C9.69739 11.7581 9.97139 12.6951 10.1894 13.2431C10.3644 13.6801 10.3824 14.2891 10.3694 14.5391" fill="url(#paint18_radial_10_252)"/>
</g>
<g filter="url(#filter5_iii_10_252)">
<path d="M27.1592 13.508C27.0112 13.508 26.8692 13.529 26.7352 13.57C26.4172 13.647 26.1142 13.791 25.7412 13.969H25.7402C25.4482 14.108 25.1142 14.267 24.6972 14.429C23.1972 15.016 21.4792 15.016 20.6352 15.016H12.0092C10.0762 15.016 8.47517 16.582 8.45017 18.515C8.44317 19.051 8.43917 19.745 8.43917 20.305C8.43917 22.102 6.77717 24.035 5.76717 24.992C5.06717 25.656 4.89917 26.055 4.80017 26.289L4.78617 26.323C4.77969 26.3378 4.77302 26.3524 4.76617 26.367L4.77717 26.375C4.62807 26.7711 4.57725 27.1974 4.62907 27.6174C4.68088 28.0375 4.83379 28.4386 5.07468 28.7866C5.31556 29.1346 5.63725 29.4189 6.01214 29.6153C6.38704 29.8116 6.80396 29.9141 7.22717 29.914H8.19217C7.69317 29.813 7.09517 29.668 6.62617 29.492C5.58617 29.102 5.48617 28.222 5.51317 27.879C5.53317 27.614 5.73917 26.547 7.14917 26.547C8.09917 26.547 9.18017 26.611 10.1712 26.67C10.8032 26.707 11.3982 26.743 11.8992 26.758C12.9472 26.79 14.0192 26.693 14.4692 25.543C14.9392 24.113 15.3172 23.633 16.3762 23.633C16.8692 23.663 17.2482 23.682 17.5002 23.695L17.8062 23.711C18.5062 23.758 19.2582 23.622 19.4462 22.351C19.6572 20.93 20.5132 20.799 21.1182 20.821C21.7822 20.844 22.7122 20.844 23.1342 20.531C23.5562 20.219 23.6022 19.648 23.6022 19.227C23.6022 18.805 23.7492 18.063 24.7742 17.961C25.9232 17.846 26.1492 17.601 26.3062 17.383C26.5322 17.066 26.5452 16.689 26.4932 16.117C26.4232 15.34 26.6082 14.857 27.0752 14.559C27.6922 14.164 28.1482 14.606 28.2432 15.399C28.2662 15.589 28.2952 15.845 28.3282 16.135C28.4182 16.938 28.5382 17.997 28.6342 18.602V14.984C28.6342 14.198 28.0192 13.554 27.2442 13.51V13.508C27.2152 13.5075 27.1862 13.5075 27.1572 13.508" fill="url(#paint19_radial_10_252)"/>
<path d="M27.1592 13.508C27.0112 13.508 26.8692 13.529 26.7352 13.57C26.4172 13.647 26.1142 13.791 25.7412 13.969H25.7402C25.4482 14.108 25.1142 14.267 24.6972 14.429C23.1972 15.016 21.4792 15.016 20.6352 15.016H12.0092C10.0762 15.016 8.47517 16.582 8.45017 18.515C8.44317 19.051 8.43917 19.745 8.43917 20.305C8.43917 22.102 6.77717 24.035 5.76717 24.992C5.06717 25.656 4.89917 26.055 4.80017 26.289L4.78617 26.323C4.77969 26.3378 4.77302 26.3524 4.76617 26.367L4.77717 26.375C4.62807 26.7711 4.57725 27.1974 4.62907 27.6174C4.68088 28.0375 4.83379 28.4386 5.07468 28.7866C5.31556 29.1346 5.63725 29.4189 6.01214 29.6153C6.38704 29.8116 6.80396 29.9141 7.22717 29.914H8.19217C7.69317 29.813 7.09517 29.668 6.62617 29.492C5.58617 29.102 5.48617 28.222 5.51317 27.879C5.53317 27.614 5.73917 26.547 7.14917 26.547C8.09917 26.547 9.18017 26.611 10.1712 26.67C10.8032 26.707 11.3982 26.743 11.8992 26.758C12.9472 26.79 14.0192 26.693 14.4692 25.543C14.9392 24.113 15.3172 23.633 16.3762 23.633C16.8692 23.663 17.2482 23.682 17.5002 23.695L17.8062 23.711C18.5062 23.758 19.2582 23.622 19.4462 22.351C19.6572 20.93 20.5132 20.799 21.1182 20.821C21.7822 20.844 22.7122 20.844 23.1342 20.531C23.5562 20.219 23.6022 19.648 23.6022 19.227C23.6022 18.805 23.7492 18.063 24.7742 17.961C25.9232 17.846 26.1492 17.601 26.3062 17.383C26.5322 17.066 26.5452 16.689 26.4932 16.117C26.4232 15.34 26.6082 14.857 27.0752 14.559C27.6922 14.164 28.1482 14.606 28.2432 15.399C28.2662 15.589 28.2952 15.845 28.3282 16.135C28.4182 16.938 28.5382 17.997 28.6342 18.602V14.984C28.6342 14.198 28.0192 13.554 27.2442 13.51V13.508C27.2152 13.5075 27.1862 13.5075 27.1572 13.508" fill="url(#paint20_linear_10_252)"/>
<path d="M27.1592 13.508C27.0112 13.508 26.8692 13.529 26.7352 13.57C26.4172 13.647 26.1142 13.791 25.7412 13.969H25.7402C25.4482 14.108 25.1142 14.267 24.6972 14.429C23.1972 15.016 21.4792 15.016 20.6352 15.016H12.0092C10.0762 15.016 8.47517 16.582 8.45017 18.515C8.44317 19.051 8.43917 19.745 8.43917 20.305C8.43917 22.102 6.77717 24.035 5.76717 24.992C5.06717 25.656 4.89917 26.055 4.80017 26.289L4.78617 26.323C4.77969 26.3378 4.77302 26.3524 4.76617 26.367L4.77717 26.375C4.62807 26.7711 4.57725 27.1974 4.62907 27.6174C4.68088 28.0375 4.83379 28.4386 5.07468 28.7866C5.31556 29.1346 5.63725 29.4189 6.01214 29.6153C6.38704 29.8116 6.80396 29.9141 7.22717 29.914H8.19217C7.69317 29.813 7.09517 29.668 6.62617 29.492C5.58617 29.102 5.48617 28.222 5.51317 27.879C5.53317 27.614 5.73917 26.547 7.14917 26.547C8.09917 26.547 9.18017 26.611 10.1712 26.67C10.8032 26.707 11.3982 26.743 11.8992 26.758C12.9472 26.79 14.0192 26.693 14.4692 25.543C14.9392 24.113 15.3172 23.633 16.3762 23.633C16.8692 23.663 17.2482 23.682 17.5002 23.695L17.8062 23.711C18.5062 23.758 19.2582 23.622 19.4462 22.351C19.6572 20.93 20.5132 20.799 21.1182 20.821C21.7822 20.844 22.7122 20.844 23.1342 20.531C23.5562 20.219 23.6022 19.648 23.6022 19.227C23.6022 18.805 23.7492 18.063 24.7742 17.961C25.9232 17.846 26.1492 17.601 26.3062 17.383C26.5322 17.066 26.5452 16.689 26.4932 16.117C26.4232 15.34 26.6082 14.857 27.0752 14.559C27.6922 14.164 28.1482 14.606 28.2432 15.399C28.2662 15.589 28.2952 15.845 28.3282 16.135C28.4182 16.938 28.5382 17.997 28.6342 18.602V14.984C28.6342 14.198 28.0192 13.554 27.2442 13.51V13.508C27.2152 13.5075 27.1862 13.5075 27.1572 13.508" fill="url(#paint21_radial_10_252)"/>
</g>
<path d="M27.1592 13.508C27.0112 13.508 26.8692 13.529 26.7352 13.57C26.4172 13.647 26.1142 13.791 25.7412 13.969H25.7402C25.4482 14.108 25.1142 14.267 24.6972 14.429C23.1972 15.016 21.4792 15.016 20.6352 15.016H12.0092C10.0762 15.016 8.47517 16.582 8.45017 18.515C8.44317 19.051 8.43917 19.745 8.43917 20.305C8.43917 22.102 6.77717 24.035 5.76717 24.992C5.06717 25.656 4.89917 26.055 4.80017 26.289L4.78617 26.323C4.77969 26.3378 4.77302 26.3524 4.76617 26.367L4.77717 26.375C4.62807 26.7711 4.57725 27.1974 4.62907 27.6174C4.68088 28.0375 4.83379 28.4386 5.07468 28.7866C5.31556 29.1346 5.63725 29.4189 6.01214 29.6153C6.38704 29.8116 6.80396 29.9141 7.22717 29.914H8.19217C7.69317 29.813 7.09517 29.668 6.62617 29.492C5.58617 29.102 5.48617 28.222 5.51317 27.879C5.53317 27.614 5.73917 26.547 7.14917 26.547C8.09917 26.547 9.18017 26.611 10.1712 26.67C10.8032 26.707 11.3982 26.743 11.8992 26.758C12.9472 26.79 14.0192 26.693 14.4692 25.543C14.9392 24.113 15.3172 23.633 16.3762 23.633C16.8692 23.663 17.2482 23.682 17.5002 23.695L17.8062 23.711C18.5062 23.758 19.2582 23.622 19.4462 22.351C19.6572 20.93 20.5132 20.799 21.1182 20.821C21.7822 20.844 22.7122 20.844 23.1342 20.531C23.5562 20.219 23.6022 19.648 23.6022 19.227C23.6022 18.805 23.7492 18.063 24.7742 17.961C25.9232 17.846 26.1492 17.601 26.3062 17.383C26.5322 17.066 26.5452 16.689 26.4932 16.117C26.4232 15.34 26.6082 14.857 27.0752 14.559C27.6922 14.164 28.1482 14.606 28.2432 15.399C28.2662 15.589 28.2952 15.845 28.3282 16.135C28.4182 16.938 28.5382 17.997 28.6342 18.602V14.984C28.6342 14.198 28.0192 13.554 27.2442 13.51V13.508C27.2152 13.5075 27.1862 13.5075 27.1572 13.508" fill="url(#paint22_radial_10_252)"/>
<path d="M27.1592 13.508C27.0112 13.508 26.8692 13.529 26.7352 13.57C26.4172 13.647 26.1142 13.791 25.7412 13.969H25.7402C25.4482 14.108 25.1142 14.267 24.6972 14.429C23.1972 15.016 21.4792 15.016 20.6352 15.016H12.0092C10.0762 15.016 8.47517 16.582 8.45017 18.515C8.44317 19.051 8.43917 19.745 8.43917 20.305C8.43917 22.102 6.77717 24.035 5.76717 24.992C5.06717 25.656 4.89917 26.055 4.80017 26.289L4.78617 26.323C4.77969 26.3378 4.77302 26.3524 4.76617 26.367L4.77717 26.375C4.62807 26.7711 4.57725 27.1974 4.62907 27.6174C4.68088 28.0375 4.83379 28.4386 5.07468 28.7866C5.31556 29.1346 5.63725 29.4189 6.01214 29.6153C6.38704 29.8116 6.80396 29.9141 7.22717 29.914H8.19217C7.69317 29.813 7.09517 29.668 6.62617 29.492C5.58617 29.102 5.48617 28.222 5.51317 27.879C5.53317 27.614 5.73917 26.547 7.14917 26.547C8.09917 26.547 9.18017 26.611 10.1712 26.67C10.8032 26.707 11.3982 26.743 11.8992 26.758C12.9472 26.79 14.0192 26.693 14.4692 25.543C14.9392 24.113 15.3172 23.633 16.3762 23.633C16.8692 23.663 17.2482 23.682 17.5002 23.695L17.8062 23.711C18.5062 23.758 19.2582 23.622 19.4462 22.351C19.6572 20.93 20.5132 20.799 21.1182 20.821C21.7822 20.844 22.7122 20.844 23.1342 20.531C23.5562 20.219 23.6022 19.648 23.6022 19.227C23.6022 18.805 23.7492 18.063 24.7742 17.961C25.9232 17.846 26.1492 17.601 26.3062 17.383C26.5322 17.066 26.5452 16.689 26.4932 16.117C26.4232 15.34 26.6082 14.857 27.0752 14.559C27.6922 14.164 28.1482 14.606 28.2432 15.399C28.2662 15.589 28.2952 15.845 28.3282 16.135C28.4182 16.938 28.5382 17.997 28.6342 18.602V14.984C28.6342 14.198 28.0192 13.554 27.2442 13.51V13.508C27.2152 13.5075 27.1862 13.5075 27.1572 13.508" fill="url(#paint23_radial_10_252)"/>
<g filter="url(#filter6_i_10_252)">
<path d="M5.4612 17.5081L5.1112 17.0511L4.5332 15.9731L5.9132 15.4571L5.9592 16.7111L6.1592 16.9711C6.23041 17.0637 6.26194 17.1807 6.24684 17.2965C6.23175 17.4123 6.17126 17.5174 6.0787 17.5886C5.98614 17.6598 5.86908 17.6913 5.75328 17.6762C5.63748 17.6611 5.53241 17.6007 5.4612 17.5081Z" fill="#E1912D"/>
</g>
<g filter="url(#filter7_ii_10_252)">
<path d="M11.2489 9.48701C11.5369 10.037 11.3239 10.717 10.7729 11.005L7.70094 12.575C7.44394 12.708 7.25194 12.813 7.15794 13.188L6.82594 14.458C6.80248 14.5481 6.79171 14.641 6.79394 14.734L6.83394 16.49C6.83394 16.619 6.78268 16.7428 6.69145 16.834C6.60021 16.9253 6.47647 16.9765 6.34744 16.9765C6.21841 16.9765 6.09467 16.9253 6.00343 16.834C5.9122 16.7428 5.86094 16.619 5.86094 16.49V15.683L5.29294 16.091C5.25878 16.1157 5.23143 16.1487 5.21342 16.1868C5.19541 16.2249 5.18734 16.2669 5.18994 16.309L5.24594 17.265C5.24968 17.3288 5.24083 17.3926 5.21989 17.453C5.19895 17.5133 5.16633 17.5689 5.12389 17.6167C5.08146 17.6644 5.03003 17.7033 4.97256 17.7312C4.91509 17.759 4.8527 17.7753 4.78894 17.779C4.72518 17.7828 4.66131 17.7739 4.60098 17.753C4.54064 17.732 4.48502 17.6994 4.43729 17.657C4.38956 17.6145 4.35066 17.5631 4.3228 17.5056C4.29495 17.4482 4.27868 17.3858 4.27494 17.322L4.20494 16.122C4.19794 15.996 4.20494 15.773 4.34194 15.594L4.88294 14.725L5.06694 12.992C5.12603 12.4858 5.30787 12.0016 5.59664 11.5816C5.88542 11.1616 6.27239 10.8184 6.72394 10.582L9.73094 9.01101C9.99536 8.87286 10.3038 8.84539 10.5885 8.93466C10.8732 9.02392 11.1107 9.22261 11.2489 9.48701Z" fill="#FFC237"/>
<path d="M11.2489 9.48701C11.5369 10.037 11.3239 10.717 10.7729 11.005L7.70094 12.575C7.44394 12.708 7.25194 12.813 7.15794 13.188L6.82594 14.458C6.80248 14.5481 6.79171 14.641 6.79394 14.734L6.83394 16.49C6.83394 16.619 6.78268 16.7428 6.69145 16.834C6.60021 16.9253 6.47647 16.9765 6.34744 16.9765C6.21841 16.9765 6.09467 16.9253 6.00343 16.834C5.9122 16.7428 5.86094 16.619 5.86094 16.49V15.683L5.29294 16.091C5.25878 16.1157 5.23143 16.1487 5.21342 16.1868C5.19541 16.2249 5.18734 16.2669 5.18994 16.309L5.24594 17.265C5.24968 17.3288 5.24083 17.3926 5.21989 17.453C5.19895 17.5133 5.16633 17.5689 5.12389 17.6167C5.08146 17.6644 5.03003 17.7033 4.97256 17.7312C4.91509 17.759 4.8527 17.7753 4.78894 17.779C4.72518 17.7828 4.66131 17.7739 4.60098 17.753C4.54064 17.732 4.48502 17.6994 4.43729 17.657C4.38956 17.6145 4.35066 17.5631 4.3228 17.5056C4.29495 17.4482 4.27868 17.3858 4.27494 17.322L4.20494 16.122C4.19794 15.996 4.20494 15.773 4.34194 15.594L4.88294 14.725L5.06694 12.992C5.12603 12.4858 5.30787 12.0016 5.59664 11.5816C5.88542 11.1616 6.27239 10.8184 6.72394 10.582L9.73094 9.01101C9.99536 8.87286 10.3038 8.84539 10.5885 8.93466C10.8732 9.02392 11.1107 9.22261 11.2489 9.48701Z" fill="url(#paint24_radial_10_252)"/>
</g>
<path d="M13.5352 10.2559L11.7832 8.65595L12.1662 8.48395H14.2062V9.95995C14.2064 10.0376 14.1839 10.1137 14.1416 10.1788C14.0993 10.2439 14.0389 10.2953 13.9678 10.3267C13.8968 10.3581 13.8181 10.3681 13.7415 10.3556C13.6648 10.343 13.5925 10.3084 13.5352 10.2559Z" fill="url(#paint25_radial_10_252)"/>
<path d="M13.5352 10.2559L11.7832 8.65595L12.1662 8.48395H14.2062V9.95995C14.2064 10.0376 14.1839 10.1137 14.1416 10.1788C14.0993 10.2439 14.0389 10.2953 13.9678 10.3267C13.8968 10.3581 13.8181 10.3681 13.7415 10.3556C13.6648 10.343 13.5925 10.3084 13.5352 10.2559Z" fill="url(#paint26_radial_10_252)"/>
<g filter="url(#filter8_i_10_252)">
<path d="M10.4749 6.81102C10.5753 6.81102 10.6746 6.79126 10.7673 6.75286C10.86 6.71447 10.9442 6.65819 11.0152 6.58725C11.0861 6.51631 11.1424 6.43208 11.1808 6.33939C11.2192 6.2467 11.2389 6.14735 11.2389 6.04702C11.2389 5.94669 11.2192 5.84734 11.1808 5.75465C11.1424 5.66196 11.0861 5.57773 11.0152 5.50679C10.9442 5.43585 10.86 5.37957 10.7673 5.34118C10.6746 5.30278 10.5753 5.28302 10.4749 5.28302C10.2723 5.28302 10.078 5.36351 9.93471 5.50679C9.79143 5.65007 9.71094 5.84439 9.71094 6.04702C9.71094 6.24965 9.79143 6.44397 9.93471 6.58725C10.078 6.73053 10.2723 6.81102 10.4749 6.81102Z" fill="url(#paint27_linear_10_252)"/>
</g>
<g filter="url(#filter9_i_10_252)">
<path d="M14.9925 6.81102C15.0928 6.81102 15.1922 6.79126 15.2849 6.75286C15.3776 6.71447 15.4618 6.65819 15.5327 6.58725C15.6037 6.51631 15.66 6.43208 15.6984 6.33939C15.7368 6.2467 15.7565 6.14735 15.7565 6.04702C15.7565 5.94669 15.7368 5.84734 15.6984 5.75465C15.66 5.66196 15.6037 5.57773 15.5327 5.50679C15.4618 5.43585 15.3776 5.37957 15.2849 5.34118C15.1922 5.30278 15.0928 5.28302 14.9925 5.28302C14.7899 5.28302 14.5956 5.36351 14.4523 5.50679C14.309 5.65007 14.2285 5.84439 14.2285 6.04702C14.2285 6.24965 14.309 6.44397 14.4523 6.58725C14.5956 6.73053 14.7899 6.81102 14.9925 6.81102Z" fill="url(#paint28_radial_10_252)"/>
</g>
<g filter="url(#filter10_f_10_252)">
<path d="M14.9944 6.55693C15.1296 6.55693 15.2594 6.50319 15.355 6.40755C15.4506 6.31191 15.5044 6.18219 15.5044 6.04693C15.5044 5.91167 15.4506 5.78195 15.355 5.6863C15.2594 5.59066 15.1296 5.53693 14.9944 5.53693C14.8591 5.53693 14.7294 5.59066 14.6338 5.6863C14.5381 5.78195 14.4844 5.91167 14.4844 6.04693C14.4844 6.18219 14.5381 6.31191 14.6338 6.40755C14.7294 6.50319 14.8591 6.55693 14.9944 6.55693Z" fill="#FFCA38"/>
<path d="M14.9944 6.55693C15.1296 6.55693 15.2594 6.50319 15.355 6.40755C15.4506 6.31191 15.5044 6.18219 15.5044 6.04693C15.5044 5.91167 15.4506 5.78195 15.355 5.6863C15.2594 5.59066 15.1296 5.53693 14.9944 5.53693C14.8591 5.53693 14.7294 5.59066 14.6338 5.6863C14.5381 5.78195 14.4844 5.91167 14.4844 6.04693C14.4844 6.18219 14.5381 6.31191 14.6338 6.40755C14.7294 6.50319 14.8591 6.55693 14.9944 6.55693Z" fill="url(#paint29_radial_10_252)"/>
</g>
<g filter="url(#filter11_f_10_252)">
<path d="M10.4836 6.55693C10.6189 6.55693 10.7486 6.50319 10.8443 6.40755C10.9399 6.31191 10.9936 6.18219 10.9936 6.04693C10.9936 5.91167 10.9399 5.78195 10.8443 5.6863C10.7486 5.59066 10.6189 5.53693 10.4836 5.53693C10.3484 5.53693 10.2187 5.59066 10.123 5.6863C10.0274 5.78195 9.97363 5.91167 9.97363 6.04693C9.97363 6.18219 10.0274 6.31191 10.123 6.40755C10.2187 6.50319 10.3484 6.55693 10.4836 6.55693Z" fill="#E28527"/>
<path d="M10.4836 6.55693C10.6189 6.55693 10.7486 6.50319 10.8443 6.40755C10.9399 6.31191 10.9936 6.18219 10.9936 6.04693C10.9936 5.91167 10.9399 5.78195 10.8443 5.6863C10.7486 5.59066 10.6189 5.53693 10.4836 5.53693C10.3484 5.53693 10.2187 5.59066 10.123 5.6863C10.0274 5.78195 9.97363 5.91167 9.97363 6.04693C9.97363 6.18219 10.0274 6.31191 10.123 6.40755C10.2187 6.50319 10.3484 6.55693 10.4836 6.55693Z" fill="url(#paint30_radial_10_252)"/>
</g>
<path d="M10.3693 4.7921C10.438 4.70424 10.5229 4.63026 10.6193 4.5741L10.6573 4.5521C10.9433 4.3861 11.2623 4.2001 11.4213 3.7171H11.4283C11.5673 4.0081 12.0533 4.5741 12.9313 4.5741H14.6683C14.8223 4.6041 15.1003 4.7251 15.1213 5.1981L15.0643 6.6581C15.0063 7.9881 13.9663 8.8831 12.6973 8.8831C11.4283 8.8831 10.3893 7.9891 10.3303 6.6581L10.2843 5.4481H10.2903L10.2853 5.3211L10.2803 5.1761C10.2805 5.04302 10.311 4.91173 10.3693 4.7921Z" fill="url(#paint31_radial_10_252)"/>
<path d="M10.3693 4.7921C10.438 4.70424 10.5229 4.63026 10.6193 4.5741L10.6573 4.5521C10.9433 4.3861 11.2623 4.2001 11.4213 3.7171H11.4283C11.5673 4.0081 12.0533 4.5741 12.9313 4.5741H14.6683C14.8223 4.6041 15.1003 4.7251 15.1213 5.1981L15.0643 6.6581C15.0063 7.9881 13.9663 8.8831 12.6973 8.8831C11.4283 8.8831 10.3893 7.9891 10.3303 6.6581L10.2843 5.4481H10.2903L10.2853 5.3211L10.2803 5.1761C10.2805 5.04302 10.311 4.91173 10.3693 4.7921Z" fill="url(#paint32_radial_10_252)"/>
<path d="M10.3693 4.7921C10.438 4.70424 10.5229 4.63026 10.6193 4.5741L10.6573 4.5521C10.9433 4.3861 11.2623 4.2001 11.4213 3.7171H11.4283C11.5673 4.0081 12.0533 4.5741 12.9313 4.5741H14.6683C14.8223 4.6041 15.1003 4.7251 15.1213 5.1981L15.0643 6.6581C15.0063 7.9881 13.9663 8.8831 12.6973 8.8831C11.4283 8.8831 10.3893 7.9891 10.3303 6.6581L10.2843 5.4481H10.2903L10.2853 5.3211L10.2803 5.1761C10.2805 5.04302 10.311 4.91173 10.3693 4.7921Z" fill="url(#paint33_radial_10_252)"/>
<path d="M10.3693 4.7921C10.438 4.70424 10.5229 4.63026 10.6193 4.5741L10.6573 4.5521C10.9433 4.3861 11.2623 4.2001 11.4213 3.7171H11.4283C11.5673 4.0081 12.0533 4.5741 12.9313 4.5741H14.6683C14.8223 4.6041 15.1003 4.7251 15.1213 5.1981L15.0643 6.6581C15.0063 7.9881 13.9663 8.8831 12.6973 8.8831C11.4283 8.8831 10.3893 7.9891 10.3303 6.6581L10.2843 5.4481H10.2903L10.2853 5.3211L10.2803 5.1761C10.2805 5.04302 10.311 4.91173 10.3693 4.7921Z" fill="url(#paint34_radial_10_252)"/>
<path d="M10.3693 4.7921C10.438 4.70424 10.5229 4.63026 10.6193 4.5741L10.6573 4.5521C10.9433 4.3861 11.2623 4.2001 11.4213 3.7171H11.4283C11.5673 4.0081 12.0533 4.5741 12.9313 4.5741H14.6683C14.8223 4.6041 15.1003 4.7251 15.1213 5.1981L15.0643 6.6581C15.0063 7.9881 13.9663 8.8831 12.6973 8.8831C11.4283 8.8831 10.3893 7.9891 10.3303 6.6581L10.2843 5.4481H10.2903L10.2853 5.3211L10.2803 5.1761C10.2805 5.04302 10.311 4.91173 10.3693 4.7921Z" fill="url(#paint35_radial_10_252)"/>
<g filter="url(#filter12_f_10_252)">
<path d="M12.5143 5.94095L12.1903 6.74895C12.1783 6.78747 12.1756 6.82828 12.1824 6.86804C12.1891 6.90781 12.2052 6.94541 12.2293 6.97777C12.2534 7.01014 12.2848 7.03635 12.3209 7.05428C12.3571 7.07222 12.3969 7.08135 12.4373 7.08095H12.8103C12.8506 7.0813 12.8905 7.07213 12.9266 7.05421C12.9628 7.03628 12.9942 7.01009 13.0183 6.97776C13.0425 6.94544 13.0587 6.90788 13.0656 6.86812C13.0726 6.82837 13.07 6.78755 13.0583 6.74895L12.8053 5.94095C12.7513 5.76195 12.5703 5.76195 12.5143 5.94095Z" fill="#EB8B29"/>
</g>
<g filter="url(#filter13_f_10_252)">
<path d="M12.5194 5.87503L12.2674 6.68303C12.2554 6.72155 12.2527 6.76236 12.2595 6.80213C12.2663 6.84189 12.2824 6.87949 12.3065 6.91185C12.3305 6.94422 12.3619 6.97044 12.3981 6.98837C12.4342 7.0063 12.4741 7.01543 12.5144 7.01503H12.8874C12.9278 7.01538 12.9676 7.00622 13.0038 6.98829C13.0399 6.97036 13.0713 6.94417 13.0955 6.91185C13.1196 6.87952 13.1358 6.84196 13.1428 6.80221C13.1497 6.76245 13.1472 6.72163 13.1354 6.68303L12.8824 5.87503C12.8284 5.69603 12.5764 5.69603 12.5194 5.87503Z" fill="url(#paint36_linear_10_252)"/>
<path d="M12.5194 5.87503L12.2674 6.68303C12.2554 6.72155 12.2527 6.76236 12.2595 6.80213C12.2663 6.84189 12.2824 6.87949 12.3065 6.91185C12.3305 6.94422 12.3619 6.97044 12.3981 6.98837C12.4342 7.0063 12.4741 7.01543 12.5144 7.01503H12.8874C12.9278 7.01538 12.9676 7.00622 13.0038 6.98829C13.0399 6.97036 13.0713 6.94417 13.0955 6.91185C13.1196 6.87952 13.1358 6.84196 13.1428 6.80221C13.1497 6.76245 13.1472 6.72163 13.1354 6.68303L12.8824 5.87503C12.8284 5.69603 12.5764 5.69603 12.5194 5.87503Z" fill="url(#paint37_radial_10_252)"/>
<path d="M12.5194 5.87503L12.2674 6.68303C12.2554 6.72155 12.2527 6.76236 12.2595 6.80213C12.2663 6.84189 12.2824 6.87949 12.3065 6.91185C12.3305 6.94422 12.3619 6.97044 12.3981 6.98837C12.4342 7.0063 12.4741 7.01543 12.5144 7.01503H12.8874C12.9278 7.01538 12.9676 7.00622 13.0038 6.98829C13.0399 6.97036 13.0713 6.94417 13.0955 6.91185C13.1196 6.87952 13.1358 6.84196 13.1428 6.80221C13.1497 6.76245 13.1472 6.72163 13.1354 6.68303L12.8824 5.87503C12.8284 5.69603 12.5764 5.69603 12.5194 5.87503Z" fill="url(#paint38_linear_10_252)"/>
<path d="M12.5194 5.87503L12.2674 6.68303C12.2554 6.72155 12.2527 6.76236 12.2595 6.80213C12.2663 6.84189 12.2824 6.87949 12.3065 6.91185C12.3305 6.94422 12.3619 6.97044 12.3981 6.98837C12.4342 7.0063 12.4741 7.01543 12.5144 7.01503H12.8874C12.9278 7.01538 12.9676 7.00622 13.0038 6.98829C13.0399 6.97036 13.0713 6.94417 13.0955 6.91185C13.1196 6.87952 13.1358 6.84196 13.1428 6.80221C13.1497 6.76245 13.1472 6.72163 13.1354 6.68303L12.8824 5.87503C12.8284 5.69603 12.5764 5.69603 12.5194 5.87503Z" fill="url(#paint39_linear_10_252)"/>
</g>
<path d="M12.7005 7.43006C12.4525 7.43006 12.2205 7.37006 12.0255 7.26606C11.9585 7.23106 11.8865 7.30806 11.9285 7.37006C12.0117 7.49906 12.1259 7.60514 12.2607 7.6786C12.3955 7.75206 12.5465 7.79055 12.7 7.79055C12.8535 7.79055 13.0045 7.75206 13.1393 7.6786C13.2741 7.60514 13.3883 7.49906 13.4715 7.37006C13.5135 7.30606 13.4415 7.23106 13.3755 7.26606C13.1674 7.37537 12.9356 7.4317 12.7005 7.43006Z" fill="#8A004F"/>
<g filter="url(#filter14_i_10_252)">
<path d="M13.2432 5.777C13.3692 5.555 13.5612 5.38 13.9732 5.38C14.1542 5.38 14.3282 5.43 14.4832 5.555C14.6112 5.658 14.5932 5.79 14.4952 5.84L14.2312 5.99C13.9212 5.89 13.5792 5.877 13.2432 5.777Z" fill="#635D5F"/>
</g>
<g filter="url(#filter15_i_10_252)">
<path d="M12.1593 5.77709C12.0323 5.55509 11.8413 5.38009 11.4293 5.38009C11.244 5.37655 11.0634 5.43852 10.9193 5.55509C10.7913 5.65809 10.8083 5.79009 10.9073 5.84009L11.1713 5.99009C11.4813 5.89009 11.8243 5.87709 12.1593 5.77709Z" fill="#635D5F"/>
</g>
<g filter="url(#filter16_i_10_252)">
<path d="M11.0869 5.203H11.0849C11.0559 5.22024 11.0212 5.22624 10.9885 5.21789C10.9557 5.20955 10.9277 5.18854 10.9104 5.1595C10.8932 5.13046 10.8882 5.09576 10.8965 5.06303C10.9049 5.03031 10.9259 5.00224 10.9549 4.985L10.9609 4.982L10.9759 4.973L11.0309 4.945C11.0779 4.923 11.1449 4.895 11.2259 4.868C11.3869 4.817 11.6129 4.773 11.8559 4.816C11.8892 4.8217 11.9189 4.84039 11.9384 4.86796C11.9579 4.89553 11.9656 4.92972 11.9599 4.963C11.9542 4.99629 11.9355 5.02594 11.908 5.04545C11.8804 5.06495 11.8462 5.0727 11.8129 5.067C11.6229 5.034 11.4409 5.067 11.3029 5.111C11.2319 5.13372 11.163 5.16249 11.0969 5.197L11.0869 5.203Z" fill="#BD4F26"/>
</g>
<g filter="url(#filter17_i_10_252)">
<path fill-rule="evenodd" clip-rule="evenodd" d="M14.4733 4.98494C14.4877 4.99348 14.5003 5.00476 14.5103 5.01815C14.5203 5.03154 14.5276 5.04677 14.5317 5.06298C14.5358 5.07918 14.5367 5.09604 14.5344 5.11259C14.532 5.12914 14.5264 5.14506 14.5178 5.15944C14.5093 5.17382 14.498 5.18638 14.4846 5.1964C14.4712 5.20642 14.456 5.2137 14.4398 5.21783C14.4071 5.22618 14.3724 5.22118 14.3433 5.20394L14.3403 5.20294C14.3227 5.1929 14.3047 5.18356 14.2863 5.17494C14.2338 5.15 14.1797 5.12861 14.1243 5.11094C13.9603 5.05554 13.7854 5.04045 13.6143 5.06694C13.5817 5.0715 13.5486 5.06323 13.522 5.04388C13.4954 5.02452 13.4774 4.99559 13.4716 4.96318C13.4659 4.93077 13.473 4.89741 13.4915 4.87013C13.5099 4.84285 13.5381 4.82378 13.5703 4.81694C13.8143 4.77294 14.0403 4.81694 14.2013 4.86794C14.293 4.89765 14.3817 4.93582 14.4663 4.98194L14.4713 4.98394L14.4733 4.98494Z" fill="#BD4F26"/>
</g>
<path d="M13.8372 5.40802C14.1472 5.40802 14.4092 5.62202 14.4802 5.91102C14.485 5.93022 14.4852 5.95025 14.481 5.96957C14.4769 5.9889 14.4683 6.00701 14.4561 6.02254C14.4438 6.03806 14.4282 6.05059 14.4104 6.05916C14.3926 6.06774 14.373 6.07213 14.3532 6.07202H13.2932C13.2772 6.07197 13.2614 6.06842 13.2469 6.06162C13.2324 6.05481 13.2195 6.04492 13.2093 6.03263C13.199 6.02035 13.1915 6.00596 13.1873 5.99048C13.1832 5.975 13.1825 5.9588 13.1852 5.94302C13.2151 5.79212 13.2965 5.65629 13.4154 5.55871C13.5343 5.46113 13.6834 5.40787 13.8372 5.40802Z" fill="white"/>
<path d="M13.7389 5.53699C13.8042 5.53698 13.8685 5.55202 13.927 5.58095C13.9855 5.60988 14.0365 5.65191 14.0761 5.70378C14.1156 5.75564 14.1427 5.81594 14.1552 5.87998C14.1676 5.94402 14.1652 6.01007 14.1479 6.07299H13.3279C13.3111 6.01001 13.3089 5.94401 13.3216 5.88006C13.3343 5.81612 13.3615 5.75594 13.4011 5.70416C13.4407 5.65238 13.4917 5.61039 13.5501 5.5814C13.6085 5.55242 13.6737 5.53722 13.7389 5.53699Z" fill="url(#paint40_radial_10_252)"/>
<path d="M13.4951 5.96103C13.4951 5.82603 13.6031 5.71803 13.7381 5.71803C13.78 5.71768 13.8213 5.7282 13.8578 5.74857C13.8944 5.76894 13.9251 5.79845 13.9469 5.83423C13.9686 5.87 13.9808 5.91081 13.982 5.95267C13.9833 5.99453 13.9737 6.036 13.9541 6.07303H13.5241C13.5046 6.03895 13.4946 6.00028 13.4951 5.96103Z" fill="black"/>
<g filter="url(#filter18_f_10_252)">
<path d="M13.7065 5.62597C13.7365 5.66597 13.6735 5.71597 13.6015 5.76997C13.5305 5.82297 13.4765 5.86097 13.4465 5.81997C13.4165 5.77997 13.4505 5.70397 13.5215 5.64997C13.5935 5.59697 13.6765 5.58597 13.7065 5.62597Z" fill="#C7A7A3"/>
<path d="M13.7065 5.62597C13.7365 5.66597 13.6735 5.71597 13.6015 5.76997C13.5305 5.82297 13.4765 5.86097 13.4465 5.81997C13.4165 5.77997 13.4505 5.70397 13.5215 5.64997C13.5935 5.59697 13.6765 5.58597 13.7065 5.62597Z" fill="url(#paint41_radial_10_252)"/>
</g>
<g filter="url(#filter19_f_10_252)">
<path d="M14.1148 5.904C14.1022 5.82122 14.0637 5.74457 14.0048 5.685L13.8818 5.82L13.9378 5.928L14.1148 5.904Z" fill="url(#paint42_linear_10_252)"/>
</g>
<path d="M11.5647 5.40802C11.4168 5.40828 11.2733 5.45791 11.1568 5.54903C11.0403 5.64015 10.9576 5.76755 10.9217 5.91102C10.917 5.93022 10.9167 5.95025 10.9209 5.96957C10.9251 5.9889 10.9337 6.00701 10.9459 6.02253C10.9581 6.03806 10.9738 6.05059 10.9916 6.05916C11.0094 6.06774 11.0289 6.07213 11.0487 6.07202H12.1087C12.1247 6.07183 12.1404 6.06817 12.1548 6.0613C12.1691 6.05444 12.1819 6.04452 12.192 6.03225C12.2022 6.01998 12.2096 6.00565 12.2137 5.99024C12.2178 5.97483 12.2185 5.95872 12.2157 5.94302C12.1857 5.79255 12.1046 5.65708 11.9862 5.55957C11.8677 5.46206 11.7192 5.40852 11.5657 5.40802" fill="white"/>
<path d="M11.6643 5.53693C11.599 5.53676 11.5345 5.5517 11.4759 5.58056C11.4173 5.60942 11.3662 5.65144 11.3265 5.70332C11.2868 5.75521 11.2596 5.81556 11.2471 5.87967C11.2346 5.94379 11.2371 6.00992 11.2543 6.07293H12.0743C12.0909 6.00996 12.0929 5.94403 12.0802 5.88017C12.0674 5.81631 12.0402 5.75622 12.0006 5.70449C11.9611 5.65276 11.9102 5.61077 11.8519 5.58173C11.7936 5.55269 11.7294 5.53736 11.6643 5.53693Z" fill="url(#paint43_radial_10_252)"/>
<path d="M11.9069 5.96103C11.9071 5.92908 11.9009 5.89742 11.8887 5.86788C11.8765 5.83834 11.8586 5.81149 11.8361 5.7889C11.8135 5.76631 11.7866 5.74842 11.7571 5.73625C11.7275 5.72409 11.6959 5.71789 11.6639 5.71803C11.6221 5.71768 11.5808 5.7282 11.5442 5.74857C11.5076 5.76894 11.477 5.79845 11.4552 5.83423C11.4334 5.87 11.4213 5.91081 11.42 5.95267C11.4188 5.99453 11.4284 6.036 11.4479 6.07303H11.8779C11.8966 6.03862 11.9065 6.00017 11.9069 5.96103Z" fill="black"/>
<g filter="url(#filter20_f_10_252)">
<path d="M12.0485 5.91009C12.0485 5.77309 11.9385 5.68309 11.9085 5.65509L11.7715 5.78709L11.8555 5.95709L12.0485 5.91009Z" fill="url(#paint44_linear_10_252)"/>
</g>
<g filter="url(#filter21_f_10_252)">
<path d="M11.5786 5.80114C11.6689 5.75331 11.7224 5.67734 11.6981 5.63147C11.6738 5.58559 11.5809 5.58718 11.4906 5.63501C11.4003 5.68284 11.3469 5.75881 11.3712 5.80468C11.3955 5.85056 11.4884 5.84897 11.5786 5.80114Z" fill="#C7A7A3" fill-opacity="0.9"/>
<path d="M11.5786 5.80114C11.6689 5.75331 11.7224 5.67734 11.6981 5.63147C11.6738 5.58559 11.5809 5.58718 11.4906 5.63501C11.4003 5.68284 11.3469 5.75881 11.3712 5.80468C11.3955 5.85056 11.4884 5.84897 11.5786 5.80114Z" fill="url(#paint45_radial_10_252)"/>
</g>
<g filter="url(#filter22_f_10_252)">
<path d="M10.6193 4.57397C10.4486 4.66956 10.3182 4.82373 10.2523 5.00797C9.89633 4.18797 10.1353 3.62797 10.5023 3.36097C10.8693 3.09297 10.9863 3.20297 11.4943 2.70697C12.0023 2.20997 12.6503 2.02897 14.0173 2.78597C15.1113 3.39097 15.4163 4.22997 15.4313 4.57397H12.9313C12.6681 4.57936 12.4072 4.52365 12.1692 4.41122C11.9311 4.29878 11.7224 4.13269 11.5593 3.92597C11.5033 3.85397 11.3673 3.86397 11.3243 3.94497C11.1423 4.28197 10.8643 4.42997 10.6193 4.57397Z" fill="#F7A427"/>
<path d="M10.6193 4.57397C10.4486 4.66956 10.3182 4.82373 10.2523 5.00797C9.89633 4.18797 10.1353 3.62797 10.5023 3.36097C10.8693 3.09297 10.9863 3.20297 11.4943 2.70697C12.0023 2.20997 12.6503 2.02897 14.0173 2.78597C15.1113 3.39097 15.4163 4.22997 15.4313 4.57397H12.9313C12.6681 4.57936 12.4072 4.52365 12.1692 4.41122C11.9311 4.29878 11.7224 4.13269 11.5593 3.92597C11.5033 3.85397 11.3673 3.86397 11.3243 3.94497C11.1423 4.28197 10.8643 4.42997 10.6193 4.57397Z" fill="url(#paint46_radial_10_252)"/>
<path d="M10.6193 4.57397C10.4486 4.66956 10.3182 4.82373 10.2523 5.00797C9.89633 4.18797 10.1353 3.62797 10.5023 3.36097C10.8693 3.09297 10.9863 3.20297 11.4943 2.70697C12.0023 2.20997 12.6503 2.02897 14.0173 2.78597C15.1113 3.39097 15.4163 4.22997 15.4313 4.57397H12.9313C12.6681 4.57936 12.4072 4.52365 12.1692 4.41122C11.9311 4.29878 11.7224 4.13269 11.5593 3.92597C11.5033 3.85397 11.3673 3.86397 11.3243 3.94497C11.1423 4.28197 10.8643 4.42997 10.6193 4.57397Z" fill="url(#paint47_radial_10_252)"/>
<path d="M10.6193 4.57397C10.4486 4.66956 10.3182 4.82373 10.2523 5.00797C9.89633 4.18797 10.1353 3.62797 10.5023 3.36097C10.8693 3.09297 10.9863 3.20297 11.4943 2.70697C12.0023 2.20997 12.6503 2.02897 14.0173 2.78597C15.1113 3.39097 15.4163 4.22997 15.4313 4.57397H12.9313C12.6681 4.57936 12.4072 4.52365 12.1692 4.41122C11.9311 4.29878 11.7224 4.13269 11.5593 3.92597C11.5033 3.85397 11.3673 3.86397 11.3243 3.94497C11.1423 4.28197 10.8643 4.42997 10.6193 4.57397Z" fill="url(#paint48_radial_10_252)"/>
</g>
<g filter="url(#filter23_ii_10_252)">
<path fill-rule="evenodd" clip-rule="evenodd" d="M15.2687 4.96497C15.2817 4.92497 15.3357 4.90797 15.3687 4.93297C15.4317 4.98346 15.5041 5.02072 15.5818 5.04251C15.6595 5.06429 15.7408 5.07016 15.8208 5.05975C15.9008 5.04935 15.9779 5.02288 16.0475 4.98195C16.117 4.94101 16.1775 4.88645 16.2255 4.82154C16.2734 4.75663 16.3077 4.68271 16.3263 4.6042C16.345 4.5257 16.3476 4.44424 16.334 4.36471C16.3204 4.28518 16.2908 4.20922 16.2471 4.14139C16.2034 4.07356 16.1465 4.01525 16.0797 3.96997C16.072 3.96369 16.0658 3.95576 16.0615 3.94677C16.0572 3.93777 16.055 3.92793 16.055 3.91797C16.055 3.90801 16.0572 3.89817 16.0615 3.88918C16.0658 3.88018 16.072 3.87225 16.0797 3.86597C16.1432 3.81968 16.197 3.76134 16.2379 3.69427C16.2789 3.6272 16.3062 3.55273 16.3184 3.4751C16.3305 3.39747 16.3273 3.31821 16.3088 3.24183C16.2903 3.16545 16.257 3.09346 16.2107 3.02997C16.1644 2.96648 16.1061 2.91272 16.039 2.87178C15.972 2.83083 15.8975 2.80349 15.8198 2.79133C15.7422 2.77916 15.663 2.78241 15.5866 2.80088C15.5102 2.81935 15.4382 2.85268 15.3747 2.89897C15.3397 2.92397 15.2847 2.90597 15.2727 2.86497C15.2522 2.78582 15.2158 2.71169 15.1656 2.64714C15.1154 2.58259 15.0525 2.52898 14.9809 2.48959C14.9092 2.45021 14.8303 2.42589 14.7489 2.41812C14.6675 2.41035 14.5854 2.4193 14.5076 2.44442C14.4298 2.46954 14.3579 2.51029 14.2964 2.56418C14.2349 2.61808 14.1851 2.68397 14.15 2.75781C14.1149 2.83166 14.0952 2.9119 14.0923 2.99361C14.0893 3.07532 14.1031 3.15677 14.1327 3.23297C14.1467 3.27297 14.1127 3.31997 14.0707 3.31997H14.0667C13.9122 3.32629 13.7661 3.39211 13.6591 3.50365C13.552 3.6152 13.4922 3.76384 13.4922 3.91847C13.4922 4.0731 13.552 4.22174 13.6591 4.33329C13.7661 4.44484 13.9122 4.51065 14.0667 4.51697C14.1067 4.51697 14.1397 4.56097 14.1277 4.59997C14.0866 4.74905 14.1047 4.90825 14.1783 5.04426C14.2519 5.18028 14.3752 5.28256 14.5225 5.32972C14.6698 5.37687 14.8296 5.36524 14.9685 5.29726C15.1074 5.22927 15.2146 5.11021 15.2677 4.96497" fill="url(#paint49_linear_10_252)"/>
</g>
<g filter="url(#filter24_ii_10_252)">
<path fill-rule="evenodd" clip-rule="evenodd" d="M15.1367 4.48792C15.1354 4.49294 15.1341 4.49794 15.1327 4.50292C15.0607 4.72492 14.8507 4.85492 14.6627 4.79492C14.4757 4.73392 14.3827 4.50492 14.4537 4.28292L14.4617 4.26292C14.4487 4.26346 14.4357 4.26346 14.4227 4.26292C14.1967 4.26292 14.0137 4.10392 14.0137 3.90692C14.0137 3.70992 14.1967 3.55092 14.4227 3.55092H14.4297C14.4251 3.53615 14.4215 3.52112 14.4187 3.50592C14.3757 3.28492 14.5067 3.07292 14.7117 3.03292C14.9057 2.99592 15.0967 3.12692 15.1517 3.32892L15.1557 3.32692C15.3367 3.19292 15.5787 3.21392 15.6957 3.37192C15.8117 3.53092 15.7597 3.76792 15.5777 3.90192C15.5724 3.90534 15.5671 3.90867 15.5617 3.91192C15.5817 3.92692 15.6007 3.94392 15.6177 3.96192C15.7797 4.12992 15.7957 4.37692 15.6537 4.51292C15.5207 4.64092 15.2977 4.62692 15.1367 4.48792Z" fill="url(#paint50_linear_10_252)"/>
</g>
<defs>
<filter id="filter0_ii_10_252" x="5.31348" y="1.686" width="11.8648" height="12.4772" filterUnits="userSpaceOnUse" color-interpolation-filters="sRGB">
<feFlood flood-opacity="0" result="BackgroundImageFix"/>
<feBlend mode="normal" in="SourceGraphic" in2="BackgroundImageFix" result="shape"/>
<feColorMatrix in="SourceAlpha" type="matrix" values="0 0 0 0 0 0 0 0 0 0 0 0 0 0 0 0 0 0 127 0" result="hardAlpha"/>
<feOffset dx="0.4" dy="0.4"/>
<feGaussianBlur stdDeviation="0.5"/>
<feComposite in2="hardAlpha" operator="arithmetic" k2="-1" k3="1"/>
<feColorMatrix type="matrix" values="0 0 0 0 1 0 0 0 0 0.658824 0 0 0 0 0.160784 0 0 0 1 0"/>
<feBlend mode="normal" in2="shape" result="effect1_innerShadow_10_252"/>
<feColorMatrix in="SourceAlpha" type="matrix" values="0 0 0 0 0 0 0 0 0 0 0 0 0 0 0 0 0 0 127 0" result="hardAlpha"/>
<feOffset dx="0.2" dy="-0.4"/>
<feGaussianBlur stdDeviation="0.4"/>
<feComposite in2="hardAlpha" operator="arithmetic" k2="-1" k3="1"/>
<feColorMatrix type="matrix" values="0 0 0 0 0.823529 0 0 0 0 0.396078 0 0 0 0 0.227451 0 0 0 1 0"/>
<feBlend mode="normal" in2="effect1_innerShadow_10_252" result="effect2_innerShadow_10_252"/>
</filter>
<filter id="filter1_i_10_252" x="17.3848" y="21.11" width="5.90039" height="8.77301" filterUnits="userSpaceOnUse" color-interpolation-filters="sRGB">
<feFlood flood-opacity="0" result="BackgroundImageFix"/>
<feBlend mode="normal" in="SourceGraphic" in2="BackgroundImageFix" result="shape"/>
<feColorMatrix in="SourceAlpha" type="matrix" values="0 0 0 0 0 0 0 0 0 0 0 0 0 0 0 0 0 0 127 0" result="hardAlpha"/>
<feOffset dx="0.5" dy="-0.5"/>
<feGaussianBlur stdDeviation="0.625"/>
<feComposite in2="hardAlpha" operator="arithmetic" k2="-1" k3="1"/>
<feColorMatrix type="matrix" values="0 0 0 0 0.862745 0 0 0 0 0.517647 0 0 0 0 0.235294 0 0 0 1 0"/>
<feBlend mode="normal" in2="shape" result="effect1_innerShadow_10_252"/>
</filter>
<filter id="filter2_i_10_252" x="19.501" y="27.435" width="4.03418" height="2.44802" filterUnits="userSpaceOnUse" color-interpolation-filters="sRGB">
<feFlood flood-opacity="0" result="BackgroundImageFix"/>
<feBlend mode="normal" in="SourceGraphic" in2="BackgroundImageFix" result="shape"/>
<feColorMatrix in="SourceAlpha" type="matrix" values="0 0 0 0 0 0 0 0 0 0 0 0 0 0 0 0 0 0 127 0" result="hardAlpha"/>
<feOffset dx="0.75" dy="-0.1"/>
<feGaussianBlur stdDeviation="0.375"/>
<feComposite in2="hardAlpha" operator="arithmetic" k2="-1" k3="1"/>
<feColorMatrix type="matrix" values="0 0 0 0 0.85098 0 0 0 0 0.219608 0 0 0 0 0.298039 0 0 0 1 0"/>
<feBlend mode="normal" in2="shape" result="effect1_innerShadow_10_252"/>
</filter>
<filter id="filter3_ii_10_252" x="14.9395" y="2.93756" width="8.25098" height="7.77338" filterUnits="userSpaceOnUse" color-interpolation-filters="sRGB">
<feFlood flood-opacity="0" result="BackgroundImageFix"/>
<feBlend mode="normal" in="SourceGraphic" in2="BackgroundImageFix" result="shape"/>
<feColorMatrix in="SourceAlpha" type="matrix" values="0 0 0 0 0 0 0 0 0 0 0 0 0 0 0 0 0 0 127 0" result="hardAlpha"/>
<feOffset/>
<feGaussianBlur stdDeviation="0.5"/>
<feComposite in2="hardAlpha" operator="arithmetic" k2="-1" k3="1"/>
<feColorMatrix type="matrix" values="0 0 0 0 0.94902 0 0 0 0 0.639216 0 0 0 0 0.184314 0 0 0 1 0"/>
<feBlend mode="normal" in2="shape" result="effect1_innerShadow_10_252"/>
<feColorMatrix in="SourceAlpha" type="matrix" values="0 0 0 0 0 0 0 0 0 0 0 0 0 0 0 0 0 0 127 0" result="hardAlpha"/>
<feOffset dy="-0.25"/>
<feGaussianBlur stdDeviation="0.375"/>
<feComposite in2="hardAlpha" operator="arithmetic" k2="-1" k3="1"/>
<feColorMatrix type="matrix" values="0 0 0 0 0.929412 0 0 0 0 0.490196 0 0 0 0 0.211765 0 0 0 1 0"/>
<feBlend mode="normal" in2="effect1_innerShadow_10_252" result="effect2_innerShadow_10_252"/>
</filter>
<filter id="filter4_i_10_252" x="9.44141" y="7.93707" width="7.92969" height="8.27301" filterUnits="userSpaceOnUse" color-interpolation-filters="sRGB">
<feFlood flood-opacity="0" result="BackgroundImageFix"/>
<feBlend mode="normal" in="SourceGraphic" in2="BackgroundImageFix" result="shape"/>
<feColorMatrix in="SourceAlpha" type="matrix" values="0 0 0 0 0 0 0 0 0 0 0 0 0 0 0 0 0 0 127 0" result="hardAlpha"/>
<feOffset dx="1" dy="-0.5"/>
<feGaussianBlur stdDeviation="0.5"/>
<feComposite in2="hardAlpha" operator="arithmetic" k2="-1" k3="1"/>
<feColorMatrix type="matrix" values="0 0 0 0 0.741176 0 0 0 0 0.207843 0 0 0 0 0.262745 0 0 0 1 0"/>
<feBlend mode="normal" in2="shape" result="effect1_innerShadow_10_252"/>
</filter>
<filter id="filter5_iii_10_252" x="4.50937" y="13.2076" width="24.3244" height="17.2064" filterUnits="userSpaceOnUse" color-interpolation-filters="sRGB">
<feFlood flood-opacity="0" result="BackgroundImageFix"/>
<feBlend mode="normal" in="SourceGraphic" in2="BackgroundImageFix" result="shape"/>
<feColorMatrix in="SourceAlpha" type="matrix" values="0 0 0 0 0 0 0 0 0 0 0 0 0 0 0 0 0 0 127 0" result="hardAlpha"/>
<feOffset dx="-0.1" dy="-0.3"/>
<feGaussianBlur stdDeviation="0.25"/>
<feComposite in2="hardAlpha" operator="arithmetic" k2="-1" k3="1"/>
<feColorMatrix type="matrix" values="0 0 0 0 0.92549 0 0 0 0 0.27451 0 0 0 0 0.372549 0 0 0 1 0"/>
<feBlend mode="normal" in2="shape" result="effect1_innerShadow_10_252"/>
<feColorMatrix in="SourceAlpha" type="matrix" values="0 0 0 0 0 0 0 0 0 0 0 0 0 0 0 0 0 0 127 0" result="hardAlpha"/>
<feOffset dx="0.2" dy="-0.2"/>
<feGaussianBlur stdDeviation="0.1"/>
<feComposite in2="hardAlpha" operator="arithmetic" k2="-1" k3="1"/>
<feColorMatrix type="matrix" values="0 0 0 0 0.866667 0 0 0 0 0.2 0 0 0 0 0.380392 0 0 0 1 0"/>
<feBlend mode="normal" in2="effect1_innerShadow_10_252" result="effect2_innerShadow_10_252"/>
<feColorMatrix in="SourceAlpha" type="matrix" values="0 0 0 0 0 0 0 0 0 0 0 0 0 0 0 0 0 0 127 0" result="hardAlpha"/>
<feOffset dy="0.5"/>
<feGaussianBlur stdDeviation="0.5"/>
<feComposite in2="hardAlpha" operator="arithmetic" k2="-1" k3="1"/>
<feColorMatrix type="matrix" values="0 0 0 0 0.862745 0 0 0 0 0.141176 0 0 0 0 0.282353 0 0 0 1 0"/>
<feBlend mode="normal" in2="effect2_innerShadow_10_252" result="effect3_innerShadow_10_252"/>
</filter>
<filter id="filter6_i_10_252" x="4.5332" y="15.4571" width="2.21777" height="2.72284" filterUnits="userSpaceOnUse" color-interpolation-filters="sRGB">
<feFlood flood-opacity="0" result="BackgroundImageFix"/>
<feBlend mode="normal" in="SourceGraphic" in2="BackgroundImageFix" result="shape"/>
<feColorMatrix in="SourceAlpha" type="matrix" values="0 0 0 0 0 0 0 0 0 0 0 0 0 0 0 0 0 0 127 0" result="hardAlpha"/>
<feOffset dx="0.75" dy="0.5"/>
<feGaussianBlur stdDeviation="0.25"/>
<feComposite in2="hardAlpha" operator="arithmetic" k2="-1" k3="1"/>
<feColorMatrix type="matrix" values="0 0 0 0 0.835294 0 0 0 0 0.494118 0 0 0 0 0.0431373 0 0 0 1 0"/>
<feBlend mode="normal" in2="shape" result="effect1_innerShadow_10_252"/>
</filter>
<filter id="filter7_ii_10_252" x="4.10312" y="8.78312" width="7.27383" height="8.99673" filterUnits="userSpaceOnUse" color-interpolation-filters="sRGB">
<feFlood flood-opacity="0" result="BackgroundImageFix"/>
<feBlend mode="normal" in="SourceGraphic" in2="BackgroundImageFix" result="shape"/>
<feColorMatrix in="SourceAlpha" type="matrix" values="0 0 0 0 0 0 0 0 0 0 0 0 0 0 0 0 0 0 127 0" result="hardAlpha"/>
<feOffset/>
<feGaussianBlur stdDeviation="0.5"/>
<feComposite in2="hardAlpha" operator="arithmetic" k2="-1" k3="1"/>
<feColorMatrix type="matrix" values="0 0 0 0 0.933333 0 0 0 0 0.65098 0 0 0 0 0.0784314 0 0 0 1 0"/>
<feBlend mode="normal" in2="shape" result="effect1_innerShadow_10_252"/>
<feColorMatrix in="SourceAlpha" type="matrix" values="0 0 0 0 0 0 0 0 0 0 0 0 0 0 0 0 0 0 127 0" result="hardAlpha"/>
<feOffset dx="-0.1" dy="-0.1"/>
<feGaussianBlur stdDeviation="0.25"/>
<feComposite in2="hardAlpha" operator="arithmetic" k2="-1" k3="1"/>
<feColorMatrix type="matrix" values="0 0 0 0 0.929412 0 0 0 0 0.607843 0 0 0 0 0.196078 0 0 0 1 0"/>
<feBlend mode="normal" in2="effect1_innerShadow_10_252" result="effect2_innerShadow_10_252"/>
</filter>
<filter id="filter8_i_10_252" x="9.71094" y="5.28302" width="1.62832" height="1.52802" filterUnits="userSpaceOnUse" color-interpolation-filters="sRGB">
<feFlood flood-opacity="0" result="BackgroundImageFix"/>
<feBlend mode="normal" in="SourceGraphic" in2="BackgroundImageFix" result="shape"/>
<feColorMatrix in="SourceAlpha" type="matrix" values="0 0 0 0 0 0 0 0 0 0 0 0 0 0 0 0 0 0 127 0" result="hardAlpha"/>
<feOffset dx="0.1"/>
<feGaussianBlur stdDeviation="0.15"/>
<feComposite in2="hardAlpha" operator="arithmetic" k2="-1" k3="1"/>
<feColorMatrix type="matrix" values="0 0 0 0 0.768627 0 0 0 0 0.501961 0 0 0 0 0.160784 0 0 0 1 0"/>
<feBlend mode="normal" in2="shape" result="effect1_innerShadow_10_252"/>
</filter>
<filter id="filter9_i_10_252" x="14.2285" y="5.03302" width="1.52832" height="1.77802" filterUnits="userSpaceOnUse" color-interpolation-filters="sRGB">
<feFlood flood-opacity="0" result="BackgroundImageFix"/>
<feBlend mode="normal" in="SourceGraphic" in2="BackgroundImageFix" result="shape"/>
<feColorMatrix in="SourceAlpha" type="matrix" values="0 0 0 0 0 0 0 0 0 0 0 0 0 0 0 0 0 0 127 0" result="hardAlpha"/>
<feOffset dy="-0.25"/>
<feGaussianBlur stdDeviation="0.25"/>
<feComposite in2="hardAlpha" operator="arithmetic" k2="-1" k3="1"/>
<feColorMatrix type="matrix" values="0 0 0 0 0.937255 0 0 0 0 0.576471 0 0 0 0 0.341176 0 0 0 1 0"/>
<feBlend mode="normal" in2="shape" result="effect1_innerShadow_10_252"/>
</filter>
<filter id="filter10_f_10_252" x="14.3844" y="5.43693" width="1.21953" height="1.22002" filterUnits="userSpaceOnUse" color-interpolation-filters="sRGB">
<feFlood flood-opacity="0" result="BackgroundImageFix"/>
<feBlend mode="normal" in="SourceGraphic" in2="BackgroundImageFix" result="shape"/>
<feGaussianBlur stdDeviation="0.05" result="effect1_foregroundBlur_10_252"/>
</filter>
<filter id="filter11_f_10_252" x="9.87363" y="5.43693" width="1.21953" height="1.22002" filterUnits="userSpaceOnUse" color-interpolation-filters="sRGB">
<feFlood flood-opacity="0" result="BackgroundImageFix"/>
<feBlend mode="normal" in="SourceGraphic" in2="BackgroundImageFix" result="shape"/>
<feGaussianBlur stdDeviation="0.05" result="effect1_foregroundBlur_10_252"/>
</filter>
<filter id="filter12_f_10_252" x="11.6787" y="5.3067" width="1.89062" height="2.27429" filterUnits="userSpaceOnUse" color-interpolation-filters="sRGB">
<feFlood flood-opacity="0" result="BackgroundImageFix"/>
<feBlend mode="normal" in="SourceGraphic" in2="BackgroundImageFix" result="shape"/>
<feGaussianBlur stdDeviation="0.25" result="effect1_foregroundBlur_10_252"/>
</filter>
<filter id="filter13_f_10_252" x="12.2059" y="5.69078" width="0.990625" height="1.37429" filterUnits="userSpaceOnUse" color-interpolation-filters="sRGB">
<feFlood flood-opacity="0" result="BackgroundImageFix"/>
<feBlend mode="normal" in="SourceGraphic" in2="BackgroundImageFix" result="shape"/>
<feGaussianBlur stdDeviation="0.025" result="effect1_foregroundBlur_10_252"/>
</filter>
<filter id="filter14_i_10_252" x="13.0432" y="5.38" width="1.53105" height="0.609985" filterUnits="userSpaceOnUse" color-interpolation-filters="sRGB">
<feFlood flood-opacity="0" result="BackgroundImageFix"/>
<feBlend mode="normal" in="SourceGraphic" in2="BackgroundImageFix" result="shape"/>
<feColorMatrix in="SourceAlpha" type="matrix" values="0 0 0 0 0 0 0 0 0 0 0 0 0 0 0 0 0 0 127 0" result="hardAlpha"/>
<feOffset dx="-0.2"/>
<feGaussianBlur stdDeviation="0.2"/>
<feComposite in2="hardAlpha" operator="arithmetic" k2="-1" k3="1"/>
<feColorMatrix type="matrix" values="0 0 0 0 0.141176 0 0 0 0 0.0862745 0 0 0 0 0.176471 0 0 0 1 0"/>
<feBlend mode="normal" in2="shape" result="effect1_innerShadow_10_252"/>
</filter>
<filter id="filter15_i_10_252" x="10.8281" y="5.37994" width="1.53105" height="0.610168" filterUnits="userSpaceOnUse" color-interpolation-filters="sRGB">
<feFlood flood-opacity="0" result="BackgroundImageFix"/>
<feBlend mode="normal" in="SourceGraphic" in2="BackgroundImageFix" result="shape"/>
<feColorMatrix in="SourceAlpha" type="matrix" values="0 0 0 0 0 0 0 0 0 0 0 0 0 0 0 0 0 0 127 0" result="hardAlpha"/>
<feOffset dx="0.2"/>
<feGaussianBlur stdDeviation="0.125"/>
<feComposite in2="hardAlpha" operator="arithmetic" k2="-1" k3="1"/>
<feColorMatrix type="matrix" values="0 0 0 0 0.133333 0 0 0 0 0.0784314 0 0 0 0 0.168627 0 0 0 1 0"/>
<feBlend mode="normal" in2="shape" result="effect1_innerShadow_10_252"/>
</filter>
<filter id="filter16_i_10_252" x="10.8926" y="4.59858" width="1.26934" height="0.623035" filterUnits="userSpaceOnUse" color-interpolation-filters="sRGB">
<feFlood flood-opacity="0" result="BackgroundImageFix"/>
<feBlend mode="normal" in="SourceGraphic" in2="BackgroundImageFix" result="shape"/>
<feColorMatrix in="SourceAlpha" type="matrix" values="0 0 0 0 0 0 0 0 0 0 0 0 0 0 0 0 0 0 127 0" result="hardAlpha"/>
<feOffset dx="0.2" dy="-0.2"/>
<feGaussianBlur stdDeviation="0.15"/>
<feComposite in2="hardAlpha" operator="arithmetic" k2="-1" k3="1"/>
<feColorMatrix type="matrix" values="0 0 0 0 0.658824 0 0 0 0 0.270588 0 0 0 0 0.141176 0 0 0 1 0"/>
<feBlend mode="normal" in2="shape" result="effect1_innerShadow_10_252"/>
</filter>
<filter id="filter17_i_10_252" x="13.4697" y="4.59889" width="1.26641" height="0.622913" filterUnits="userSpaceOnUse" color-interpolation-filters="sRGB">
<feFlood flood-opacity="0" result="BackgroundImageFix"/>
<feBlend mode="normal" in="SourceGraphic" in2="BackgroundImageFix" result="shape"/>
<feColorMatrix in="SourceAlpha" type="matrix" values="0 0 0 0 0 0 0 0 0 0 0 0 0 0 0 0 0 0 127 0" result="hardAlpha"/>
<feOffset dx="0.2" dy="-0.2"/>
<feGaussianBlur stdDeviation="0.15"/>
<feComposite in2="hardAlpha" operator="arithmetic" k2="-1" k3="1"/>
<feColorMatrix type="matrix" values="0 0 0 0 0.658824 0 0 0 0 0.270588 0 0 0 0 0.141176 0 0 0 1 0"/>
<feBlend mode="normal" in2="shape" result="effect1_innerShadow_10_252"/>
</filter>
<filter id="filter18_f_10_252" x="13.3355" y="5.50187" width="0.47832" height="0.435413" filterUnits="userSpaceOnUse" color-interpolation-filters="sRGB">
<feFlood flood-opacity="0" result="BackgroundImageFix"/>
<feBlend mode="normal" in="SourceGraphic" in2="BackgroundImageFix" result="shape"/>
<feGaussianBlur stdDeviation="0.05" result="effect1_foregroundBlur_10_252"/>
</filter>
<filter id="filter19_f_10_252" x="13.6818" y="5.485" width="0.633398" height="0.642981" filterUnits="userSpaceOnUse" color-interpolation-filters="sRGB">
<feFlood flood-opacity="0" result="BackgroundImageFix"/>
<feBlend mode="normal" in="SourceGraphic" in2="BackgroundImageFix" result="shape"/>
<feGaussianBlur stdDeviation="0.1" result="effect1_foregroundBlur_10_252"/>
</filter>
<filter id="filter20_f_10_252" x="11.5715" y="5.45509" width="0.677344" height="0.702002" filterUnits="userSpaceOnUse" color-interpolation-filters="sRGB">
<feFlood flood-opacity="0" result="BackgroundImageFix"/>
<feBlend mode="normal" in="SourceGraphic" in2="BackgroundImageFix" result="shape"/>
<feGaussianBlur stdDeviation="0.1" result="effect1_foregroundBlur_10_252"/>
</filter>
<filter id="filter21_f_10_252" x="11.2652" y="5.49808" width="0.538867" height="0.43999" filterUnits="userSpaceOnUse" color-interpolation-filters="sRGB">
<feFlood flood-opacity="0" result="BackgroundImageFix"/>
<feBlend mode="normal" in="SourceGraphic" in2="BackgroundImageFix" result="shape"/>
<feGaussianBlur stdDeviation="0.05" result="effect1_foregroundBlur_10_252"/>
</filter>
<filter id="filter22_f_10_252" x="9.97715" y="2.17545" width="5.55449" height="2.93254" filterUnits="userSpaceOnUse" color-interpolation-filters="sRGB">
<feFlood flood-opacity="0" result="BackgroundImageFix"/>
<feBlend mode="normal" in="SourceGraphic" in2="BackgroundImageFix" result="shape"/>
<feGaussianBlur stdDeviation="0.05" result="effect1_foregroundBlur_10_252"/>
</filter>
<filter id="filter23_ii_10_252" x="13.3922" y="2.41541" width="2.95059" height="3.04281" filterUnits="userSpaceOnUse" color-interpolation-filters="sRGB">
<feFlood flood-opacity="0" result="BackgroundImageFix"/>
<feBlend mode="normal" in="SourceGraphic" in2="BackgroundImageFix" result="shape"/>
<feColorMatrix in="SourceAlpha" type="matrix" values="0 0 0 0 0 0 0 0 0 0 0 0 0 0 0 0 0 0 127 0" result="hardAlpha"/>
<feOffset/>
<feGaussianBlur stdDeviation="0.125"/>
<feComposite in2="hardAlpha" operator="arithmetic" k2="-1" k3="1"/>
<feColorMatrix type="matrix" values="0 0 0 0 0.831373 0 0 0 0 0.341176 0 0 0 0 0.223529 0 0 0 1 0"/>
<feBlend mode="normal" in2="shape" result="effect1_innerShadow_10_252"/>
<feColorMatrix in="SourceAlpha" type="matrix" values="0 0 0 0 0 0 0 0 0 0 0 0 0 0 0 0 0 0 127 0" result="hardAlpha"/>
<feOffset dx="-0.1" dy="0.1"/>
<feGaussianBlur stdDeviation="0.15"/>
<feComposite in2="hardAlpha" operator="arithmetic" k2="-1" k3="1"/>
<feColorMatrix type="matrix" values="0 0 0 0 0.917647 0 0 0 0 0.247059 0 0 0 0 0.32549 0 0 0 1 0"/>
<feBlend mode="normal" in2="effect1_innerShadow_10_252" result="effect2_innerShadow_10_252"/>
</filter>
<filter id="filter24_ii_10_252" x="13.8637" y="3.02667" width="1.89414" height="1.9329" filterUnits="userSpaceOnUse" color-interpolation-filters="sRGB">
<feFlood flood-opacity="0" result="BackgroundImageFix"/>
<feBlend mode="normal" in="SourceGraphic" in2="BackgroundImageFix" result="shape"/>
<feColorMatrix in="SourceAlpha" type="matrix" values="0 0 0 0 0 0 0 0 0 0 0 0 0 0 0 0 0 0 127 0" result="hardAlpha"/>
<feOffset dx="-0.15" dy="0.15"/>
<feGaussianBlur stdDeviation="0.125"/>
<feComposite in2="hardAlpha" operator="arithmetic" k2="-1" k3="1"/>
<feColorMatrix type="matrix" values="0 0 0 0 0.815686 0 0 0 0 0.266667 0 0 0 0 0.345098 0 0 0 1 0"/>
<feBlend mode="normal" in2="shape" result="effect1_innerShadow_10_252"/>
<feColorMatrix in="SourceAlpha" type="matrix" values="0 0 0 0 0 0 0 0 0 0 0 0 0 0 0 0 0 0 127 0" result="hardAlpha"/>
<feOffset/>
<feGaussianBlur stdDeviation="0.125"/>
<feComposite in2="hardAlpha" operator="arithmetic" k2="-1" k3="1"/>
<feColorMatrix type="matrix" values="0 0 0 0 0.74902 0 0 0 0 0.0627451 0 0 0 0 0.219608 0 0 0 1 0"/>
<feBlend mode="normal" in2="effect1_innerShadow_10_252" result="effect2_innerShadow_10_252"/>
</filter>
<radialGradient id="paint0_radial_10_252" cx="0" cy="0" r="1" gradientUnits="userSpaceOnUse" gradientTransform="translate(13.8844 2.58599) rotate(78.857) scale(6.30639 6.26922)">
<stop offset="0.315" stop-color="#F0C537"/>
<stop offset="1" stop-color="#FF971F"/>
</radialGradient>
<radialGradient id="paint1_radial_10_252" cx="0" cy="0" r="1" gradientUnits="userSpaceOnUse" gradientTransform="translate(10.0724 13.1795) rotate(-118.32) scale(6.38977 11.6013)">
<stop offset="0.069" stop-color="#E1691F"/>
<stop offset="1" stop-color="#E1691F" stop-opacity="0"/>
</radialGradient>
<radialGradient id="paint2_radial_10_252" cx="0" cy="0" r="1" gradientUnits="userSpaceOnUse" gradientTransform="translate(13.6044 7.46) rotate(19.29) scale(2.97979 4.09807)">
<stop offset="0.297" stop-color="#E06B0E"/>
<stop offset="1" stop-color="#FF8610" stop-opacity="0"/>
</radialGradient>
<radialGradient id="paint3_radial_10_252" cx="0" cy="0" r="1" gradientUnits="userSpaceOnUse" gradientTransform="translate(11.4172 7.92476) rotate(148.061) scale(4.67675 4.03986)">
<stop offset="0.17" stop-color="#AF4103"/>
<stop offset="1" stop-color="#E7740E" stop-opacity="0"/>
</radialGradient>
<radialGradient id="paint4_radial_10_252" cx="0" cy="0" r="1" gradientUnits="userSpaceOnUse" gradientTransform="translate(10.61 6.34348) rotate(128.928) scale(1.15199 1.13106)">
<stop offset="0.262" stop-color="#C0500A"/>
<stop offset="1" stop-color="#C0500A" stop-opacity="0"/>
</radialGradient>
<radialGradient id="paint5_radial_10_252" cx="0" cy="0" r="1" gradientUnits="userSpaceOnUse" gradientTransform="translate(11.5402 2.38036) rotate(59.146) scale(1.54581 3.33775)">
<stop stop-color="#CEA741"/>
<stop offset="1" stop-color="#CEA741" stop-opacity="0"/>
</radialGradient>
<linearGradient id="paint6_linear_10_252" x1="22.0504" y1="20.756" x2="12.6114" y2="31.059" gradientUnits="userSpaceOnUse">
<stop stop-color="#911C39"/>
<stop offset="1" stop-color="#9A3037"/>
</linearGradient>
<linearGradient id="paint7_linear_10_252" x1="10.3934" y1="24.594" x2="19.9564" y2="28.553" gradientUnits="userSpaceOnUse">
<stop stop-color="#851E29"/>
<stop offset="1" stop-color="#851E29" stop-opacity="0"/>
</linearGradient>
<radialGradient id="paint8_radial_10_252" cx="0" cy="0" r="1" gradientUnits="userSpaceOnUse" gradientTransform="translate(9.04937 27.856) rotate(113.219) scale(4.38459 2.08284)">
<stop stop-color="#6C1118"/>
<stop offset="1" stop-color="#6C1118" stop-opacity="0"/>
</radialGradient>
<linearGradient id="paint9_linear_10_252" x1="11.5451" y1="27.476" x2="9.20413" y2="26.934" gradientUnits="userSpaceOnUse">
<stop stop-color="#E69934"/>
<stop offset="1" stop-color="#DB7C1A"/>
</linearGradient>
<radialGradient id="paint10_radial_10_252" cx="0" cy="0" r="1" gradientUnits="userSpaceOnUse" gradientTransform="translate(10.6617 27.902) rotate(117.071) scale(2.08793 1.98277)">
<stop stop-color="#EE3148"/>
<stop offset="1" stop-color="#CC2E32"/>
</radialGradient>
<radialGradient id="paint11_radial_10_252" cx="0" cy="0" r="1" gradientUnits="userSpaceOnUse" gradientTransform="translate(23.1925 3.71092) rotate(137.179) scale(1.65512 1.71573)">
<stop stop-color="#FDC938"/>
<stop offset="1" stop-color="#FDC938" stop-opacity="0"/>
</radialGradient>
<radialGradient id="paint12_radial_10_252" cx="0" cy="0" r="1" gradientUnits="userSpaceOnUse" gradientTransform="translate(21.1035 3.39892) rotate(132.51) scale(1.01743 0.708263)">
<stop stop-color="#FFCA3F"/>
<stop offset="1" stop-color="#FFCA3F" stop-opacity="0"/>
</radialGradient>
<radialGradient id="paint13_radial_10_252" cx="0" cy="0" r="1" gradientUnits="userSpaceOnUse" gradientTransform="translate(21.2905 7.58592) rotate(90) scale(3.125 1.17925)">
<stop offset="0.264" stop-color="#FFD03E"/>
<stop offset="1" stop-color="#FFD03E" stop-opacity="0"/>
</radialGradient>
<radialGradient id="paint14_radial_10_252" cx="0" cy="0" r="1" gradientUnits="userSpaceOnUse" gradientTransform="translate(15.6035 9.74192) scale(3.28125 0.75)">
<stop stop-color="#FFB92F"/>
<stop offset="1" stop-color="#FFB92F" stop-opacity="0"/>
</radialGradient>
<radialGradient id="paint15_radial_10_252" cx="0" cy="0" r="1" gradientUnits="userSpaceOnUse" gradientTransform="translate(15.6974 14.8361) rotate(-132.211) scale(7.72103 6.88334)">
<stop stop-color="#FF3B57"/>
<stop offset="1" stop-color="#E9283F"/>
</radialGradient>
<radialGradient id="paint16_radial_10_252" cx="0" cy="0" r="1" gradientUnits="userSpaceOnUse" gradientTransform="translate(10.2594 12.3241) rotate(-8.3205) scale(3.15824 5.53658)">
<stop offset="0.481" stop-color="#D62645"/>
<stop offset="1" stop-color="#D62645" stop-opacity="0"/>
</radialGradient>
<radialGradient id="paint17_radial_10_252" cx="0" cy="0" r="1" gradientUnits="userSpaceOnUse" gradientTransform="translate(16.5724 9.86707) rotate(180) scale(5.4375 4.28125)">
<stop offset="0.144" stop-color="#FF4660"/>
<stop offset="1" stop-color="#FF4660" stop-opacity="0"/>
</radialGradient>
<radialGradient id="paint18_radial_10_252" cx="0" cy="0" r="1" gradientUnits="userSpaceOnUse" gradientTransform="translate(16.3714 12.7101) rotate(173.344) scale(2.15699 1.96837)">
<stop stop-color="#F22B4E"/>
<stop offset="1" stop-color="#F22B4E" stop-opacity="0"/>
</radialGradient>
<radialGradient id="paint19_radial_10_252" cx="0" cy="0" r="1" gradientUnits="userSpaceOnUse" gradientTransform="translate(11.2916 16.9296) rotate(45.496) scale(10.2092 15.8767)">
<stop stop-color="#D42F4E"/>
<stop offset="1" stop-color="#DA2E3D"/>
</radialGradient>
<linearGradient id="paint20_linear_10_252" x1="28.6352" y1="17.367" x2="16.6232" y2="17.367" gradientUnits="userSpaceOnUse">
<stop offset="0.219" stop-color="#DB2F4A"/>
<stop offset="1" stop-color="#DB2F4A" stop-opacity="0"/>
</linearGradient>
<radialGradient id="paint21_radial_10_252" cx="0" cy="0" r="1" gradientUnits="userSpaceOnUse" gradientTransform="translate(27.4792 16.648) rotate(-78.8453) scale(4.52294 3.89162)">
<stop offset="0.37" stop-color="#E73E59"/>
<stop offset="1" stop-color="#E73E59" stop-opacity="0"/>
</radialGradient>
<radialGradient id="paint22_radial_10_252" cx="0" cy="0" r="1" gradientUnits="userSpaceOnUse" gradientTransform="translate(5.20717 29.252) rotate(-31.0321) scale(5.51406 12.95)">
<stop stop-color="#D32659"/>
<stop offset="1" stop-color="#D32659" stop-opacity="0"/>
</radialGradient>
<radialGradient id="paint23_radial_10_252" cx="0" cy="0" r="1" gradientUnits="userSpaceOnUse" gradientTransform="translate(28.6352 17.497) rotate(-80.0959) scale(4.71837 2.47189)">
<stop stop-color="#B01B4B"/>
<stop offset="1" stop-color="#B01B4B" stop-opacity="0"/>
</radialGradient>
<radialGradient id="paint24_radial_10_252" cx="0" cy="0" r="1" gradientUnits="userSpaceOnUse" gradientTransform="translate(11.377 9.27439) rotate(146.197) scale(2.1345 2.96029)">
<stop offset="0.253" stop-color="#FFCE35"/>
<stop offset="1" stop-color="#FFCE35" stop-opacity="0"/>
</radialGradient>
<radialGradient id="paint25_radial_10_252" cx="0" cy="0" r="1" gradientUnits="userSpaceOnUse" gradientTransform="translate(13.1046 10.1952) rotate(-56.976) scale(1.86357 2.40477)">
<stop offset="0.304" stop-color="#FFD23B"/>
<stop offset="1" stop-color="#EBA410"/>
</radialGradient>
<radialGradient id="paint26_radial_10_252" cx="0" cy="0" r="1" gradientUnits="userSpaceOnUse" gradientTransform="translate(12.166 8.48467) rotate(47.291) scale(1.79682 5.00055)">
<stop stop-color="#C97000"/>
<stop offset="1" stop-color="#FCAD16" stop-opacity="0"/>
</radialGradient>
<linearGradient id="paint27_linear_10_252" x1="9.71094" y1="6.08802" x2="11.1169" y2="6.08802" gradientUnits="userSpaceOnUse">
<stop stop-color="#E79B27"/>
<stop offset="1" stop-color="#B96201"/>
</linearGradient>
<radialGradient id="paint28_radial_10_252" cx="0" cy="0" r="1" gradientUnits="userSpaceOnUse" gradientTransform="translate(14.6185 6.25602) rotate(-24.4441) scale(1.29863 1.58556)">
<stop offset="0.572" stop-color="#FFC531"/>
<stop offset="0.905" stop-color="#FFE549"/>
</radialGradient>
<radialGradient id="paint29_radial_10_252" cx="0" cy="0" r="1" gradientUnits="userSpaceOnUse" gradientTransform="translate(14.8827 6.16013) rotate(-20.298) scale(0.61964)">
<stop offset="0.71" stop-color="#FFBA25" stop-opacity="0"/>
<stop offset="1" stop-color="#FFBA25"/>
</radialGradient>
<radialGradient id="paint30_radial_10_252" cx="0" cy="0" r="1" gradientUnits="userSpaceOnUse" gradientTransform="translate(10.4836 6.04693) rotate(180) scale(0.51017 0.48801)">
<stop offset="0.415" stop-color="#D67923" stop-opacity="0"/>
<stop offset="1" stop-color="#D67923"/>
</radialGradient>
<radialGradient id="paint31_radial_10_252" cx="0" cy="0" r="1" gradientUnits="userSpaceOnUse" gradientTransform="translate(14.4153 5.36588) rotate(141.306) scale(5.29858 4.93449)">
<stop stop-color="#FFE644"/>
<stop offset="1" stop-color="#EE8620"/>
</radialGradient>
<radialGradient id="paint32_radial_10_252" cx="0" cy="0" r="1" gradientUnits="userSpaceOnUse" gradientTransform="translate(11.6653 9.0131) rotate(-78.3105) scale(1.96201 2.48942)">
<stop stop-color="#E4883F"/>
<stop offset="1" stop-color="#E4883F" stop-opacity="0"/>
</radialGradient>
<radialGradient id="paint33_radial_10_252" cx="0" cy="0" r="1" gradientUnits="userSpaceOnUse" gradientTransform="translate(13.7943 5.5931) rotate(-90) scale(0.54658 0.6708)">
<stop stop-color="#FFBB31"/>
<stop offset="1" stop-color="#FFBB31" stop-opacity="0"/>
</radialGradient>
<radialGradient id="paint34_radial_10_252" cx="0" cy="0" r="1" gradientUnits="userSpaceOnUse" gradientTransform="translate(11.7893 5.6341) rotate(-90) scale(0.64596 0.74031)">
<stop stop-color="#F09429"/>
<stop offset="1" stop-color="#F09429" stop-opacity="0"/>
</radialGradient>
<radialGradient id="paint35_radial_10_252" cx="0" cy="0" r="1" gradientUnits="userSpaceOnUse" gradientTransform="translate(14.8993 4.89761) rotate(137.064) scale(2.70714 3.12769)">
<stop stop-color="#EF9025"/>
<stop offset="1" stop-color="#EF9025" stop-opacity="0"/>
</radialGradient>
<linearGradient id="paint36_linear_10_252" x1="12.7014" y1="7.01503" x2="12.7014" y2="5.74103" gradientUnits="userSpaceOnUse">
<stop stop-color="#FFC134"/>
<stop offset="1" stop-color="#F8C73F"/>
</linearGradient>
<radialGradient id="paint37_radial_10_252" cx="0" cy="0" r="1" gradientUnits="userSpaceOnUse" gradientTransform="translate(13.0744 6.64503) rotate(-105.892) scale(1.20979 0.692259)">
<stop offset="0.017" stop-color="#FFE848"/>
<stop offset="1" stop-color="#FFE848" stop-opacity="0"/>
</radialGradient>
<linearGradient id="paint38_linear_10_252" x1="12.2044" y1="6.65303" x2="12.6104" y2="6.70303" gradientUnits="userSpaceOnUse">
<stop stop-color="#F8A322"/>
<stop offset="1" stop-color="#F8A322" stop-opacity="0"/>
</linearGradient>
<linearGradient id="paint39_linear_10_252" x1="12.7014" y1="7.05903" x2="12.7014" y2="6.76903" gradientUnits="userSpaceOnUse">
<stop stop-color="#E48538"/>
<stop offset="1" stop-color="#E48538" stop-opacity="0"/>
</linearGradient>
<radialGradient id="paint40_radial_10_252" cx="0" cy="0" r="1" gradientUnits="userSpaceOnUse" gradientTransform="translate(13.7379 5.76399) rotate(90) scale(0.38577 0.61361)">
<stop offset="0.802" stop-color="#925C51"/>
<stop offset="1" stop-color="#85534D"/>
</radialGradient>
<radialGradient id="paint41_radial_10_252" cx="0" cy="0" r="1" gradientUnits="userSpaceOnUse" gradientTransform="translate(13.6285 5.80297) rotate(-127.813) scale(0.179516 0.247146)">
<stop offset="0.766" stop-color="#FFE6E2" stop-opacity="0"/>
<stop offset="0.966" stop-color="#FFE6E2"/>
</radialGradient>
<linearGradient id="paint42_linear_10_252" x1="14.1058" y1="5.788" x2="13.9568" y2="5.88" gradientUnits="userSpaceOnUse">
<stop stop-color="#B4948D"/>
<stop offset="1" stop-color="#B4948D" stop-opacity="0"/>
</linearGradient>
<radialGradient id="paint43_radial_10_252" cx="0" cy="0" r="1" gradientUnits="userSpaceOnUse" gradientTransform="translate(11.6653 5.76393) rotate(90) scale(0.38577 0.61362)">
<stop offset="0.802" stop-color="#925C51"/>
<stop offset="1" stop-color="#85534D"/>
</radialGradient>
<linearGradient id="paint44_linear_10_252" x1="12.0165" y1="5.78809" x2="11.8675" y2="5.88009" gradientUnits="userSpaceOnUse">
<stop stop-color="#B4948D"/>
<stop offset="1" stop-color="#B4948D" stop-opacity="0"/>
</linearGradient>
<radialGradient id="paint45_radial_10_252" cx="0" cy="0" r="1" gradientUnits="userSpaceOnUse" gradientTransform="translate(11.5991 5.85286) rotate(-118.811) scale(0.23448 0.28186)">
<stop offset="0.766" stop-color="#FFE6E2" stop-opacity="0"/>
<stop offset="0.966" stop-color="#FFE6E2"/>
</radialGradient>
<radialGradient id="paint46_radial_10_252" cx="0" cy="0" r="1" gradientUnits="userSpaceOnUse" gradientTransform="translate(13.5893 3.24197) rotate(123.239) scale(1.5248 2.18008)">
<stop offset="0.426" stop-color="#FFC426"/>
<stop offset="1" stop-color="#FFC426" stop-opacity="0"/>
</radialGradient>
<radialGradient id="paint47_radial_10_252" cx="0" cy="0" r="1" gradientUnits="userSpaceOnUse" gradientTransform="translate(12.8496 2.80995) rotate(142.413) scale(3.30578 3.33435)">
<stop offset="0.842" stop-color="#F29D23" stop-opacity="0"/>
<stop offset="1" stop-color="#F29D23"/>
</radialGradient>
<radialGradient id="paint48_radial_10_252" cx="0" cy="0" r="1" gradientUnits="userSpaceOnUse" gradientTransform="translate(14.3313 4.22397) rotate(180) scale(1.41321 1.02779)">
<stop stop-color="#E16F21"/>
<stop offset="1" stop-color="#E16F21" stop-opacity="0"/>
</radialGradient>
<linearGradient id="paint49_linear_10_252" x1="15.8307" y1="2.93197" x2="14.4687" y2="5.27597" gradientUnits="userSpaceOnUse">
<stop stop-color="#E73950"/>
<stop offset="1" stop-color="#DC2D68"/>
</linearGradient>
<linearGradient id="paint50_linear_10_252" x1="15.7577" y1="3.42992" x2="14.2747" y2="4.38292" gradientUnits="userSpaceOnUse">
<stop stop-color="#C9334F"/>
<stop offset="1" stop-color="#C32E4E"/>
</linearGradient>
</defs>
</svg>
