 <svg
      width="24"
      height="24"
      viewBox="0 0 24 24"
      fill="none"
      xmlns="http://www.w3.org/2000/svg"

    >
      <path
        fillRule="evenodd"
        clipRule="evenodd"
        d="M21.582 7.20034C21.352 6.3342 20.6744 5.65216 19.8139 5.42068C18.2542 5 12 5 12 5C12 5 5.74584 5 4.18614 5.42068C3.32568 5.65216 2.64795 6.3342 2.41795 7.20034C2 8.77011 2 12.0455 2 12.0455C2 12.0455 2 15.3207 2.41795 16.8907C2.64795 17.7568 3.32568 18.4388 4.18614 18.6703C5.74584 19.0909 12 19.0909 12 19.0909C12 19.0909 18.2542 19.0909 19.8139 18.6703C20.6744 18.4388 21.352 17.7568 21.582 16.8907C22 15.3207 22 12.0455 22 12.0455C22 12.0455 22 8.77011 21.582 7.20034Z"
        fill="#C3C3C3"
      />
      <path
        d="M9.95455 15.0545L15.1818 12.0455L9.95455 9.03636V15.0545Z"
        fill="#1E1E1E"
      />
    </svg>